<svg version="1.2" baseProfile="tiny-ps" xmlns="http://www.w3.org/2000/svg" viewBox="0 0 166 166" width="163" height="163">
	<title>DO_White_SVG-svg</title>
	<defs>
		<linearGradient id="grd1" gradientUnits="userSpaceOnUse"  x1="20.224" y1="7538.531" x2="15562.013" y2="7538.531">
			<stop offset="0" stop-color="#ffffff"  />
			<stop offset="100" stop-color="#ffffff"  />
		</linearGradient>
		<linearGradient id="grd2" gradientUnits="userSpaceOnUse"  x1="35.14" y1="476.429" x2="417.925" y2="476.429">
			<stop offset="0" stop-color="#02d7f5"  />
			<stop offset="100" stop-color="#ff0dd4"  />
		</linearGradient>
		<linearGradient id="grd3" gradientUnits="userSpaceOnUse"  x1="22.981" y1="279.158" x2="139.017" y2="279.158">
			<stop offset="0" stop-color="#02d7f5"  />
			<stop offset="100" stop-color="#ff0dd4"  />
		</linearGradient>
		<linearGradient id="grd4" gradientUnits="userSpaceOnUse"  x1="119.481" y1="244.155" x2="368.413" y2="244.155">
			<stop offset="0" stop-color="#02d7f5"  />
			<stop offset="100" stop-color="#ff0dd4"  />
		</linearGradient>
		<linearGradient id="grd5" gradientUnits="userSpaceOnUse"  x1="113.537" y1="177.164" x2="274.902" y2="177.164">
			<stop offset="0" stop-color="#02d7f5"  />
			<stop offset="100" stop-color="#ff0dd4"  />
		</linearGradient>
	</defs>
	<style>
		tspan { white-space:pre }
		.shp0 { fill: #ffffff } 
		.shp1 { fill: none } 
		.shp2 { fill: url(#grd1) } 
		.shp3 { fill: url(#grd2) } 
		.shp4 { fill: url(#grd3) } 
		.shp5 { fill: url(#grd4) } 
		.shp6 { fill: url(#grd5) } 
	</style>
	<g id="Logo-new">
		<g id="DO-White-SVG">
			<g id="Dataorb-logo-(2)">
				<g id="Group">
					<path id="Shape" fill-rule="evenodd" class="shp0" d="M307.08 80.41C307.08 87.13 305.93 93.28 303.77 98.98C301.62 104.69 298.45 109.51 294.43 113.61C290.41 117.7 285.67 120.78 280.06 123.12C274.46 125.31 268.13 126.48 261.24 126.48L226.75 126.48L226.75 34.48L261.24 34.48C268.13 34.48 274.31 35.65 280.06 37.84C285.67 40.18 290.55 43.25 294.43 47.35C298.45 51.44 301.47 56.27 303.77 61.83C306.07 67.39 307.08 73.68 307.08 80.41ZM289.69 80.41C289.69 75.29 288.97 70.9 287.68 66.8C286.38 62.85 284.52 59.34 281.93 56.56C279.49 53.79 276.47 51.59 272.88 50.13C269.28 48.67 265.4 47.93 260.95 47.93L243.42 47.93L243.42 112.73L260.95 112.73C265.4 112.73 269.28 112 272.88 110.54C276.47 109.07 279.34 106.88 281.93 104.1C284.52 101.32 286.24 97.96 287.68 93.86C289.11 90.06 289.69 85.53 289.69 80.41Z" />
					<path id="Shape" fill-rule="evenodd" class="shp0" d="M320.44 70.31C327.77 63.44 336.68 60.07 347.02 60.07C350.76 60.07 354.06 60.66 357.08 61.98C360.1 63.29 362.54 64.9 364.55 67.24C366.57 69.58 368.15 72.07 369.15 75.29C370.16 78.36 370.73 81.72 370.73 85.53L370.73 126.77L363.69 126.77C362.25 126.77 361.11 126.48 360.39 126.04C359.52 125.6 358.95 124.73 358.52 123.41L357.08 118.73C355.5 120.19 353.92 121.51 352.34 122.68C350.76 123.85 349.18 124.73 347.6 125.46C346.02 126.19 344.15 126.77 342.28 127.21C340.41 127.65 338.26 127.8 335.96 127.8C333.23 127.8 330.79 127.36 328.49 126.63C326.19 125.9 324.18 124.73 322.59 123.26C320.87 121.8 319.58 119.9 318.72 117.7C317.85 115.51 317.28 112.88 317.28 109.95C317.28 108.34 317.57 106.59 318.14 104.98C318.72 103.37 319.58 101.76 320.73 100.3C322.02 98.84 323.6 97.37 325.47 96.06C327.48 94.74 329.78 93.57 332.65 92.69C335.53 91.67 338.83 90.94 342.57 90.35C346.3 89.77 350.76 89.33 355.5 89.18L355.5 85.23C355.5 80.84 354.64 77.63 352.77 75.58C350.9 73.53 348.32 72.36 344.87 72.36C342.42 72.36 340.27 72.65 338.69 73.24C337.11 73.82 335.53 74.56 334.38 75.29C333.08 76.02 331.93 76.75 330.93 77.33C329.92 77.92 328.77 78.21 327.48 78.21C326.33 78.21 325.47 77.92 324.75 77.33C324.03 76.75 323.46 76.16 322.88 75.29L320.44 70.31ZM355.79 98.54C351.33 98.69 347.6 99.13 344.58 99.71C341.56 100.3 339.12 101.03 337.25 101.91C335.38 102.79 334.09 103.81 333.37 104.98C332.51 106.15 332.22 107.47 332.22 108.93C332.22 111.71 333.08 113.61 334.67 114.78C336.25 115.95 338.4 116.53 340.99 116.53C344.15 116.53 346.88 115.95 349.18 114.78C351.48 113.61 353.78 111.85 355.93 109.51L355.93 98.54L355.79 98.54Z" />
					<path id="Path" class="shp0" d="M409.24 127.5C403.64 127.5 399.33 125.9 396.45 122.68C393.44 119.46 392 115.07 392 109.37L392 72.95L385.39 72.95C384.53 72.95 383.81 72.65 383.23 72.07C382.66 71.48 382.37 70.75 382.37 69.58L382.37 63.29L392.72 61.54L396.02 43.69C396.17 42.81 396.6 42.23 397.17 41.79C397.75 41.35 398.47 41.06 399.47 41.06L407.52 41.06L407.52 61.68L424.62 61.68L424.62 72.95L407.52 72.95L407.52 108.34C407.52 110.39 407.95 112 408.96 113.17C409.96 114.34 411.25 114.93 412.98 114.93C413.98 114.93 414.7 114.78 415.42 114.63C416 114.34 416.57 114.19 417.15 113.9C417.58 113.61 418.01 113.46 418.44 113.17C418.87 112.88 419.16 112.88 419.59 112.88C420.02 112.88 420.45 113.02 420.74 113.17C421.03 113.46 421.31 113.76 421.74 114.19L426.34 121.8C424.04 123.7 421.46 125.16 418.58 126.19C415.28 126.92 412.26 127.5 409.24 127.5Z" />
					<path id="Shape" fill-rule="evenodd" class="shp0" d="M435.4 70.31C442.72 63.44 451.63 60.07 461.98 60.07C465.72 60.07 469.02 60.66 472.04 61.98C475.06 63.29 477.5 64.9 479.51 67.24C481.52 69.58 483.1 72.07 484.11 75.29C485.11 78.36 485.69 81.72 485.69 85.53L485.69 126.77L478.65 126.77C477.21 126.77 476.06 126.48 475.34 126.04C474.48 125.6 473.91 124.73 473.47 123.41L472.04 118.73C470.46 120.19 468.88 121.51 467.3 122.68C465.72 123.85 464.13 124.73 462.55 125.46C460.97 126.19 459.11 126.77 457.24 127.21C455.37 127.65 453.21 127.8 450.91 127.8C448.18 127.8 445.74 127.36 443.44 126.63C441.14 125.9 439.13 124.73 437.55 123.26C435.83 121.8 434.53 119.9 433.67 117.7C432.81 115.51 432.23 112.88 432.23 109.95C432.23 108.34 432.52 106.59 433.1 104.98C433.67 103.37 434.53 101.76 435.68 100.3C436.98 98.84 438.56 97.37 440.42 96.06C442.44 94.74 444.74 93.57 447.61 92.69C450.48 91.67 453.79 90.94 457.52 90.35C461.26 89.77 465.72 89.33 470.46 89.18L470.46 85.23C470.46 80.84 469.59 77.63 467.73 75.58C465.86 73.53 463.27 72.36 459.82 72.36C457.38 72.36 455.23 72.65 453.64 73.24C452.06 73.82 450.48 74.56 449.33 75.29C448.04 76.02 446.89 76.75 445.89 77.33C444.88 77.92 443.73 78.21 442.44 78.21C441.29 78.21 440.42 77.92 439.71 77.33C438.99 76.75 438.41 76.16 437.84 75.29L435.4 70.31ZM470.74 98.54C466.29 98.69 462.55 99.13 459.54 99.71C456.52 100.3 454.08 101.03 452.21 101.91C450.34 102.79 449.05 103.81 448.33 104.98C447.47 106.15 447.18 107.47 447.18 108.93C447.18 111.71 448.04 113.61 449.62 114.78C451.2 115.95 453.36 116.53 455.94 116.53C459.11 116.53 461.84 115.95 464.13 114.78C466.43 113.61 468.73 111.85 470.89 109.51L470.89 98.54L470.74 98.54Z" />
					<path id="Shape" fill-rule="evenodd" class="shp0" d="M591.45 80.41C591.45 87.13 590.3 93.42 588.14 99.13C585.99 104.83 582.83 109.81 578.8 114.05C574.78 118.29 570.04 121.51 564.43 123.85C558.83 126.19 552.51 127.36 545.75 127.36C538.86 127.36 532.68 126.19 527.07 123.85C521.47 121.51 516.58 118.29 512.56 114.05C508.54 109.81 505.37 104.83 503.22 99.13C501.06 93.42 499.91 87.13 499.91 80.41C499.91 73.68 501.06 67.39 503.22 61.68C505.37 55.98 508.54 51.01 512.56 46.76C516.58 42.52 521.47 39.3 527.07 36.96C532.68 34.62 539 33.45 545.75 33.45C550.35 33.45 554.66 34.04 558.69 35.06C562.71 36.09 566.45 37.7 569.75 39.6C573.06 41.5 576.22 43.99 578.8 46.76C581.53 49.54 583.83 52.76 585.7 56.27C587.57 59.78 589.01 63.59 590.01 67.53C590.87 71.63 591.45 75.87 591.45 80.41ZM574.2 80.41C574.2 75.29 573.49 70.9 572.19 66.8C570.9 62.85 569.03 59.34 566.45 56.56C564 53.79 560.98 51.59 557.54 50.13C553.94 48.67 550.06 47.93 545.61 47.93C541.15 47.93 537.28 48.67 533.68 50.13C530.09 51.59 527.22 53.79 524.63 56.56C522.19 59.34 520.18 62.71 518.88 66.8C517.59 70.75 516.87 75.29 516.87 80.41C516.87 85.53 517.59 89.91 518.88 94.01C520.18 97.96 522.19 101.47 524.63 104.25C527.07 107.03 530.09 109.22 533.68 110.68C537.28 112.15 541.15 112.88 545.61 112.88C550.06 112.88 553.94 112.15 557.54 110.68C561.13 109.22 564 107.03 566.45 104.25C568.89 101.47 570.76 98.1 572.19 94.01C573.49 90.06 574.2 85.53 574.2 80.41Z" />
					<path id="Path" class="shp0" d="M620.91 72.51C622.92 68.56 625.22 65.49 628.09 63.29C630.96 61.1 634.13 59.93 637.86 59.93C640.88 59.93 643.18 60.66 645.05 61.83L644.04 73.53C643.9 74.26 643.47 74.85 643.18 75.14C642.75 75.43 642.32 75.58 641.6 75.58C641.02 75.58 640.02 75.43 638.87 75.29C637.72 75.14 636.42 74.99 635.28 74.99C633.55 74.99 632.11 75.29 630.68 75.73C629.24 76.16 628.09 76.9 627.08 77.92C626.08 78.94 625.07 79.97 624.21 81.43C623.35 82.75 622.63 84.36 621.91 86.11L621.91 126.33L606.25 126.33L606.25 61.1L615.3 61.1C616.88 61.1 618.03 61.39 618.61 61.98C619.18 62.56 619.61 63.59 619.9 65.05L620.91 72.51Z" />
					<path id="Shape" fill-rule="evenodd" class="shp0" d="M670.91 69.14C673.5 66.36 676.37 64.17 679.53 62.56C682.69 60.95 686.29 60.07 690.31 60.07C694.05 60.07 697.35 60.81 700.37 62.27C703.39 63.73 705.83 65.93 707.98 68.7C710.14 71.48 711.72 74.85 712.87 78.8C714.02 82.75 714.59 87.13 714.59 92.11C714.59 97.37 713.88 102.2 712.73 106.59C711.43 110.98 709.57 114.63 707.27 117.7C704.82 120.78 701.95 123.12 698.64 124.87C695.34 126.63 691.46 127.36 687.44 127.36C685.42 127.36 683.56 127.21 681.98 126.77C680.4 126.33 678.81 125.75 677.52 125.02C676.08 124.29 674.93 123.41 673.79 122.39C672.64 121.36 671.49 120.19 670.48 118.87L669.76 123.26C669.47 124.43 669.04 125.16 668.47 125.6C667.89 126.04 667.03 126.33 666.03 126.33L655.82 126.33L655.82 31.84L670.91 31.84L670.91 69.14ZM676.66 114.05C678.67 114.93 680.97 115.36 683.13 115.36C685.57 115.36 687.58 114.93 689.59 114.05C691.46 113.17 693.04 111.85 694.48 109.95C695.77 108.05 696.78 105.71 697.5 102.93C698.21 100.15 698.5 96.64 698.5 92.69C698.5 85.53 697.35 80.41 695.05 77.19C692.75 73.97 689.3 72.36 684.99 72.36C681.98 72.36 679.39 73.09 677.23 74.41C675.08 75.73 672.92 77.77 670.91 80.26L670.91 109.51C672.64 111.71 674.5 113.17 676.66 114.05Z" />
				</g>
			</g>
			<g id="XMLID_80_">
				<path id="XMLID_83_" class="shp1" d="M136.26 114.98C137.57 113.93 137.88 112.71 137.37 110.08C136.87 111.83 136.16 112.88 136.26 114.98Z" />
				<path id="XMLID_124_" class="shp1" d="M141.32 79.28C141.32 78.27 141.63 77.25 140.61 76.54C140.51 76.44 140.61 76.14 140.51 75.93C140.31 75.12 140.31 74.31 139.9 73.6C139.4 72.79 139.19 72.28 139.9 71.57C140.11 71.37 140.21 70.86 140.11 70.56C139.6 69.34 139.09 68.22 138.58 67.11C137.77 64.98 136.86 62.85 137.16 60.51C137.16 60.11 136.86 59.6 136.55 59.3C135.44 58.18 133.92 57.47 134.12 55.54C134.12 55.44 134.02 55.44 134.02 55.34C132.9 52.5 131.08 50.17 129.35 47.73C127.93 45.7 126.1 43.98 124.48 42.05C124.28 41.85 123.97 41.75 123.77 41.54C123.36 41.24 122.86 41.04 122.55 40.73C121.94 40.23 121.43 39.62 120.83 39.11C118.39 37.08 115.45 35.66 112.61 34.44C110.47 33.53 108.44 32.52 106.31 31.81C104.59 31.2 102.76 30.89 100.94 30.49C100.02 30.28 99.31 30.18 99.41 28.97C99.41 28.26 99.01 27.75 98.09 27.95C97.79 28.05 97.28 27.85 96.98 27.85C96.37 27.85 95.76 27.65 95.25 27.75C94.24 27.95 93.43 27.85 92.61 27.24C91.8 26.73 91.19 26.84 90.58 27.55C89.87 28.46 89.67 28.36 89.16 27.34C88.86 26.73 88.55 26.53 87.84 26.94C87.44 27.14 86.73 27.24 86.22 27.14C85.51 26.84 84.9 26.94 84.29 27.34C83.99 27.55 83.28 27.85 83.07 27.65C81.76 26.63 80.74 27.14 79.42 27.75C78 28.36 76.17 27.95 74.55 27.95C74.25 27.95 73.74 28.05 73.64 28.26C73.03 29.07 72.32 29.17 71.4 29.17C70.39 29.17 69.37 29.27 68.36 29.57C66.84 30.08 65.42 30.79 64 31.4C62.98 31.81 61.97 32.11 60.95 32.52C60.34 32.72 59.63 33.02 59.23 33.53C58.11 34.85 57.5 34.85 56.49 33.53C56.39 33.43 56.28 33.43 55.98 33.33C56.08 33.73 56.08 34.04 56.18 34.34C56.28 34.65 56.39 34.85 56.49 35.15C56.18 35.26 55.88 35.36 55.57 35.26C54.05 35.26 51.62 36.88 51.31 38.3C51.11 39.21 50.5 39.41 49.89 39.01C48.98 38.4 48.37 38.7 47.86 39.41C45.83 41.75 43.9 44.08 41.87 46.41C40.86 47.63 40.86 47.63 39.95 46.52C39.95 46.52 39.84 46.52 39.74 46.52C38.42 48.34 37.21 50.17 35.89 51.89C33.04 55.64 31.32 60.01 29.8 64.37C28.99 66.8 28.28 69.34 27.56 71.87C27.26 73.09 26.96 74.41 26.75 75.73C26.55 77.25 26.14 78.67 25.13 79.79C24.42 80.6 23.91 81.31 24.52 82.42C24.72 82.73 24.72 83.34 24.52 83.74C23.71 86.08 24.22 88.41 24.52 90.84C24.62 91.45 24.82 92.16 25.03 92.77C25.43 92.26 25.84 91.66 26.35 91.15C26.55 90.84 26.85 90.64 27.06 90.44C27.26 90.74 27.56 91.05 27.56 91.45C27.56 92.16 27.36 92.97 27.46 93.79C27.46 94.19 27.87 94.9 28.17 95C29.29 95.21 29.29 95.92 29.09 96.63C28.68 97.94 28.38 99.06 29.29 100.28C29.49 100.48 29.39 100.99 29.39 101.39C29.39 102.51 29.39 103.63 29.39 104.64C29.39 105.15 29.39 105.76 29.59 106.26C30.3 107.99 31.22 109.61 31.42 111.54C31.42 111.84 31.62 112.04 31.73 112.35C31.93 112.96 32.23 113.67 32.33 114.28C32.54 116.1 33.15 117.62 34.87 118.44C35.58 118.84 36.09 119.55 35.68 120.36C35.18 121.48 35.78 122.09 36.5 122.7C37.41 123.51 38.22 124.42 39.13 125.23C39.44 125.54 39.95 125.64 40.35 125.94C40.35 125.54 40.35 125.13 40.35 124.72C40.35 124.42 40.35 124.12 40.45 123.81C40.76 123.91 41.16 123.91 41.47 124.01C41.67 124.12 41.87 124.42 42.08 124.62C42.79 125.64 43.5 126.75 44.21 127.67C45.12 128.78 46.03 129.9 47.05 131.01C47.25 131.22 47.66 131.42 47.86 131.52C47.96 131.22 48.27 130.81 48.27 130.51C48.27 130.2 48.06 129.8 47.86 129.49C47.56 128.88 47.35 128.07 46.85 127.67C45.73 126.75 45.02 125.54 44.41 124.32C44.41 124.32 44.31 124.32 44.31 124.22C43.5 123.41 42.69 122.59 41.98 121.78C41.77 121.58 41.87 121.17 41.87 120.87C42.18 120.97 42.58 120.97 42.79 121.17C43.4 121.58 43.9 122.09 44.51 122.59C44.72 122.8 44.92 122.9 45.02 123.1C45.73 124.12 46.34 125.13 47.05 126.04C47.66 126.85 48.37 127.67 49.08 128.27C50.91 129.9 52.93 131.42 54.76 133.04C55.98 134.06 56.99 135.17 58.21 136.09C59.63 137.2 61.87 137.3 62.98 139.03C62.98 139.13 63.08 139.13 63.18 139.13C65.52 139.43 67.14 141.66 69.68 141.36C69.88 141.36 70.19 141.46 70.29 141.56C71.2 142.48 72.42 142.48 73.54 142.48C74.04 142.48 74.55 142.48 74.96 142.68C78.31 143.9 81.65 144.2 85.21 144.1C85.81 144.1 86.42 144.4 87.03 144.4C87.34 144.4 87.95 144.3 88.05 144.1C88.45 143.49 88.86 143.49 89.47 143.69C89.87 143.8 90.28 143.8 90.58 143.8C91.5 143.8 92.31 143.49 93.22 143.69C95.35 144 97.08 143.09 98.8 142.17C99.62 141.77 100.63 141.66 101.54 141.36C102.36 141.16 103.17 141.06 103.98 140.85C104.59 140.75 105.2 140.45 105.81 140.35C107.43 139.94 109.16 139.64 110.78 139.13C112.3 138.62 113.72 137.81 115.14 137.1C117.17 136.09 119.4 135.07 121.33 133.85C123.16 132.74 124.88 131.22 126.61 130C127.12 129.59 127.83 129.39 128.13 128.99C129.45 127.46 130.67 125.74 131.89 124.22C132.39 123.51 132.9 122.59 133.61 122.19C134.93 121.38 135.64 120.06 136.35 118.84C136.66 118.33 136.96 117.73 137.27 117.22C137.16 117.12 137.06 117.02 136.86 116.91C136.55 117.12 136.05 117.32 135.84 117.62C135.03 118.44 134.12 119.25 133.71 120.16C132.8 122.29 130.67 123.3 129.15 124.93C128.84 125.33 128.44 125.64 127.93 125.84C127.73 125.94 127.32 125.84 127.02 125.84C127.12 125.54 127.12 125.13 127.22 124.83C127.32 124.62 127.52 124.52 127.73 124.42C129.45 122.7 131.28 120.97 133 119.25C133.21 119.04 133 118.44 133 118.03C132.6 118.03 132.09 117.93 131.89 118.13C131.08 118.74 130.36 119.45 129.65 120.16C128.44 121.58 126.61 122.59 125.6 124.22C125.29 124.62 124.78 125.03 124.38 125.33C124.17 125.43 123.87 125.54 123.67 125.43C123.57 125.33 123.46 124.93 123.57 124.72C124.38 123.71 125.19 122.7 126.1 121.68C127.52 120.16 129.25 118.84 130.36 117.12C131.58 115.09 132.9 113.16 134.32 111.33C135.54 109.81 136.55 108.19 137.37 106.47C138.38 104.34 139.09 102 140.01 99.67C140.31 98.96 140.61 98.35 140.92 97.74C141.02 97.54 141.12 97.23 141.02 97.03C140.51 95.81 140.92 94.8 141.32 93.68C141.53 93.18 141.43 92.47 141.53 91.86C141.63 90.34 141.63 88.71 141.73 87.19C141.73 85.47 141.83 83.74 141.83 82.12C141.63 81.21 141.22 80.29 141.32 79.28Z" />
				<g id="XMLID_108_">
					<path id="XMLID_117_" fill-rule="evenodd" class="shp2" d="M160.14 85.34C160.14 87.37 159.84 89.29 159.63 91.22C159.43 93.15 159.23 95.07 158.92 96.89C158.82 97.81 158.42 98.82 158.22 99.73C158.11 100.04 158.01 100.44 157.91 100.75C157.2 103.18 156.6 105.51 155.89 107.94C155.89 108.04 155.78 108.24 155.78 108.35C155.89 110.88 154.06 112.7 153.66 115.03C153.46 115.95 152.85 116.76 152.34 117.57C150.42 120.71 148.69 124.05 146.57 126.99C144.34 130.13 141.6 132.77 139.27 135.81C136.34 139.76 132.08 141.99 128.44 145.03C124.59 148.27 119.93 150.3 115.37 152.32C112.64 153.54 109.9 154.76 107.06 155.57C105.04 156.07 103.11 157.09 100.89 156.88C99.97 156.78 98.96 157.29 98.05 157.49C97.75 157.49 97.44 157.69 97.14 157.69C93.49 158 89.84 158.4 86.2 158.61C85.19 158.71 84.27 158.3 83.26 158.2C82.05 158.1 80.73 158 79.51 157.8C78.6 157.69 77.59 157.39 76.68 157.29C75.16 157.09 73.64 156.99 72.12 156.78C71.51 156.68 70.9 156.38 70.3 156.17C69.99 156.17 69.79 155.87 69.59 155.87C64.72 155.06 60.47 152.73 56.12 150.8C54.49 149.99 53.08 148.98 51.46 148.17C47.51 146.24 44.57 143.31 41.53 140.27C39.3 137.93 36.97 135.71 34.84 133.37C33.73 132.16 32.82 130.64 31.91 129.22C31 128 30.29 126.69 29.88 125.17C29.68 124.56 29.27 123.95 28.87 123.44C26.94 121.01 24.82 118.78 22.99 116.25C21.58 114.32 20.36 112.3 19.35 110.27C18.13 107.84 17.22 105.31 16.11 102.77C15.7 101.86 15.19 100.95 14.59 100.04C13.47 98.31 12.56 96.49 12.56 94.36C12.56 93.45 12.26 92.64 12.05 91.73C11.95 91.12 11.75 90.61 11.75 90C11.65 85.95 11.65 81.8 11.65 77.74C11.65 77.24 11.55 76.83 11.45 76.32C11.24 76.32 11.14 76.32 10.94 76.32C10.84 76.73 10.74 77.13 10.74 77.54C10.74 81.29 10.74 84.94 10.64 88.69C10.64 89.6 10.43 90.41 10.33 91.32C10.13 92.84 9.62 94.46 9.83 95.88C10.13 98.21 10.84 100.64 11.45 102.97C11.85 104.7 12.26 106.32 12.76 108.04C12.97 108.75 13.47 109.36 13.57 109.97C14.08 112.3 15.09 114.43 16.11 116.55C16.21 116.65 16.21 116.86 16.21 117.16C15.9 117.06 15.7 117.06 15.7 116.96C15.09 115.74 13.67 114.93 13.67 113.31C13.67 113.11 13.67 112.91 13.57 112.8C12.56 111.28 11.95 109.66 11.55 107.94C11.45 107.64 11.04 107.43 10.74 107.23C10.43 107.03 10.03 106.93 9.93 106.72C9.52 105.31 9.12 103.89 8.71 102.47C8.31 101.05 7.7 99.73 7.39 98.31C6.69 95.17 6.28 91.93 5.47 88.79C4.76 85.95 5.06 83.21 5.06 80.38C5.06 78.55 5.47 76.83 5.77 75.01C6.28 71.97 6.89 69.03 7.5 65.99C7.6 65.38 7.7 64.67 7.7 64.06C7.7 62.95 7.9 61.93 8.41 60.82C9.12 59.6 9.22 58.08 9.72 56.77C10.23 55.25 10.94 53.83 11.55 52.31C11.95 51.4 12.16 50.38 12.66 49.57C14.69 46.13 16.51 42.48 18.94 39.34C22.99 34.07 27.55 29.2 32.92 25.25C34.84 23.83 36.77 22.52 38.69 21.1C40.21 19.98 41.63 18.77 43.25 17.75C45.07 16.64 47 15.63 48.92 14.71C50.34 14 51.86 13.4 53.28 12.79C53.38 12.79 53.48 12.69 53.58 12.69C55.1 12.28 56.72 11.98 58.24 11.57C60.27 11.07 62.29 10.46 64.32 9.95C65.03 9.85 65.64 9.65 66.35 9.55C67.46 9.34 68.68 9.34 69.89 9.04C75.56 7.72 81.34 7.82 87.01 8.43C90.05 8.73 92.98 9.14 96.02 9.55C97.85 9.85 99.77 10.15 101.59 10.56C103.42 10.96 105.14 11.67 106.96 12.18C107.37 12.28 107.77 12.28 108.18 12.38C108.48 12.38 108.89 12.28 109.09 12.48C110.2 13.29 111.52 13.4 112.84 13.7C116.89 14.81 120.54 16.74 123.98 18.97C126.21 20.39 128.54 21.81 130.77 23.33C131.98 24.24 132.99 25.35 134.11 26.27C137.86 29.41 140.9 33.36 144.14 37.01C147.38 40.65 149.2 45.21 151.73 49.27C152.14 49.77 152.34 50.48 152.85 50.89C153.96 51.9 154.37 53.32 154.87 54.64C155.58 56.46 156.29 58.29 156.8 60.11C157.3 61.93 157.71 63.76 158.11 65.58C158.42 67.2 159.03 68.72 159.23 70.35C159.63 72.88 159.53 75.51 160.14 78.05C160.75 80.48 160.55 82.91 160.14 85.34ZM139.68 80.78C139.68 79.77 139.27 78.86 139.27 77.84C139.27 76.83 139.58 75.92 138.57 75.11C138.46 75.01 138.57 74.7 138.46 74.5C138.36 73.69 138.26 72.78 137.86 72.17C137.35 71.36 137.15 70.85 137.86 70.14C138.06 69.94 138.16 69.43 138.06 69.13C137.55 68.01 137.05 66.9 136.54 65.68C135.73 63.56 134.82 61.53 135.12 59.1C135.12 58.69 134.82 58.19 134.51 57.88C133.5 56.77 131.88 56.06 132.08 54.13C132.08 54.03 131.98 54.03 131.98 53.93C130.87 51.09 129.04 48.76 127.32 46.33C125.8 44.3 124.08 42.48 122.46 40.65C122.26 40.45 121.95 40.35 121.75 40.15C121.35 39.84 120.94 39.64 120.54 39.34C119.93 38.83 119.42 38.22 118.81 37.72C116.38 35.69 113.55 34.27 110.61 33.05C108.58 32.14 106.46 31.13 104.33 30.42C102.61 29.81 100.78 29.51 98.96 29.1C98.15 28.9 97.44 28.8 97.44 27.58C97.44 26.77 97.04 26.37 96.12 26.57C95.82 26.67 95.42 26.47 95.01 26.47C94.4 26.37 93.8 26.27 93.29 26.37C92.28 26.57 91.47 26.37 90.66 25.86C89.84 25.25 89.24 25.45 88.63 26.16C87.92 26.97 87.72 26.97 87.21 25.96C86.91 25.35 86.6 25.25 85.89 25.56C85.39 25.86 84.78 25.96 84.27 25.76C83.56 25.56 82.96 25.56 82.35 25.96C82.05 26.16 81.34 26.47 81.13 26.27C79.82 25.25 78.91 25.76 77.49 26.37C76.17 26.97 74.25 26.47 72.63 26.57C72.32 26.57 71.92 26.67 71.71 26.87C71.11 27.68 70.4 27.79 69.49 27.79C68.47 27.79 67.36 27.89 66.45 28.19C64.93 28.7 63.51 29.41 62.09 30.01C61.08 30.42 60.07 30.72 59.05 31.13C58.44 31.43 57.74 31.64 57.33 32.14C56.22 33.46 55.61 33.56 54.6 32.14C54.49 32.04 54.39 32.04 54.09 31.94C54.19 32.35 54.19 32.65 54.29 32.95C54.39 33.26 54.49 33.46 54.6 33.76C54.29 33.76 53.99 33.87 53.68 33.87C52.16 33.87 49.84 35.49 49.43 36.91C49.23 37.82 48.62 38.02 48.01 37.61C47.2 37.11 46.59 37.31 45.99 38.02C43.96 40.35 42.04 42.68 40.01 45.01C39 46.23 39 46.23 38.09 45.11C37.98 45.11 37.88 45.11 37.88 45.11C36.57 46.94 35.35 48.76 34.03 50.48C31.2 54.23 29.48 58.59 27.96 62.95C27.15 65.38 26.44 67.91 25.73 70.45C25.32 71.66 25.02 72.98 24.92 74.3C24.82 75.82 24.41 77.24 23.3 78.35C22.49 79.16 21.98 79.87 22.69 80.99C22.89 81.39 22.79 81.9 22.69 82.3C21.88 84.73 22.39 87.07 22.69 89.4C22.79 90 22.99 90.71 23.2 91.32C23.7 90.71 24.11 90.21 24.51 89.7C24.72 89.4 25.02 89.19 25.22 88.99C25.42 89.4 25.73 89.7 25.73 90C25.83 90.81 25.53 91.63 25.63 92.33C25.63 92.74 26.03 93.55 26.34 93.55C27.45 93.75 27.45 94.46 27.25 95.17C26.84 96.39 26.44 97.6 27.45 98.82C27.55 99.12 27.55 99.53 27.55 99.93C27.55 100.95 27.55 102.06 27.55 103.18C27.55 103.68 27.55 104.29 27.75 104.8C28.46 106.52 29.37 108.14 29.58 110.07C29.58 110.37 29.78 110.57 29.88 110.88C30.08 111.49 30.39 112.09 30.49 112.8C30.69 114.63 31.3 116.05 33.02 116.96C33.73 117.36 34.24 118.07 33.83 118.88C33.32 120 33.93 120.61 34.64 121.21C35.55 122.03 36.36 122.94 37.28 123.75C37.58 124.05 38.09 124.25 38.49 124.46C38.49 124.05 38.49 123.65 38.49 123.24C38.49 122.94 38.59 122.63 38.59 122.33C39 122.33 39.3 122.33 39.6 122.53C39.91 122.63 40.01 122.94 40.21 123.14C40.92 124.15 41.53 125.17 42.34 126.18C43.25 127.4 44.26 128.41 45.18 129.52C45.38 129.73 45.68 129.83 45.99 130.03C46.09 129.73 46.39 129.32 46.39 129.02C46.39 128.71 46.19 128.31 45.99 128C45.68 127.29 45.48 126.59 44.97 126.18C43.86 125.27 43.15 124.05 42.54 122.84C42.54 122.73 42.44 122.73 42.44 122.73C41.63 121.92 40.82 121.11 40.11 120.3C39.91 120.1 40.01 119.69 40.01 119.39C40.31 119.49 40.62 119.49 40.92 119.69C41.53 120.1 42.04 120.61 42.64 121.11C42.74 121.32 43.05 121.42 43.15 121.62C43.86 122.63 44.47 123.65 45.18 124.56C45.78 125.37 46.49 126.08 47.2 126.79C49.02 128.41 50.95 129.93 52.87 131.55C54.09 132.56 55.1 133.68 56.32 134.59C57.84 135.71 59.96 135.81 61.08 137.53C61.08 137.63 61.18 137.63 61.28 137.63C63.61 138.04 65.23 140.16 67.76 139.86C67.97 139.86 68.27 139.96 68.37 140.06C69.28 140.97 70.4 140.97 71.61 140.97C72.12 140.97 72.63 140.97 73.03 141.18C76.37 142.39 79.72 142.7 83.26 142.6C83.87 142.6 84.48 142.9 85.08 142.9C85.39 142.9 86 142.8 86.1 142.6C86.5 141.99 86.91 141.99 87.52 142.19C87.82 142.29 88.22 142.29 88.63 142.29C89.54 142.29 90.45 142.09 91.26 142.19C93.39 142.49 95.01 141.58 96.83 140.67C97.64 140.27 98.66 140.06 99.57 139.86C100.38 139.66 101.19 139.56 102 139.35C102.61 139.25 103.22 139.05 103.82 138.85C105.44 138.44 107.17 138.14 108.79 137.63C110.31 137.12 111.72 136.31 113.14 135.6C115.27 134.59 117.4 133.58 119.32 132.36C121.14 131.25 122.76 129.83 124.59 128.51C125.09 128.11 125.7 127.9 126.11 127.5C127.42 125.98 128.64 124.36 129.85 122.73C130.36 122.03 130.87 121.21 131.58 120.71C132.89 119.8 133.5 118.58 134.31 117.36C134.62 116.86 134.92 116.25 135.22 115.74C135.02 115.64 134.92 115.54 134.82 115.44C134.51 115.74 134.11 115.84 133.8 116.15C133.1 116.96 132.08 117.67 131.68 118.68C130.66 120.81 128.64 121.82 127.12 123.44C126.71 123.75 126.31 124.15 125.9 124.36C125.7 124.46 125.3 124.36 124.99 124.36C125.09 123.95 125.09 123.65 125.2 123.34C125.3 123.14 125.5 123.04 125.7 122.94C127.52 121.21 129.25 119.59 130.97 117.77C131.17 117.57 130.97 116.96 130.97 116.55C130.66 116.55 130.16 116.45 129.85 116.65C129.04 117.26 128.23 117.97 127.63 118.68C126.41 120.1 124.69 121.11 123.57 122.73C123.27 123.24 122.76 123.55 122.36 123.85C122.16 124.05 121.75 124.05 121.65 123.95C121.55 123.75 121.45 123.34 121.55 123.24C122.36 122.23 123.17 121.21 124.08 120.2C125.5 118.68 127.32 117.36 128.34 115.64C129.55 113.61 130.87 111.69 132.29 109.87C133.5 108.45 134.51 106.72 135.32 105C136.34 102.77 137.05 100.44 137.96 98.21C138.26 97.6 138.57 97 138.87 96.29C138.97 96.08 139.07 95.78 138.97 95.58C138.46 94.36 138.87 93.35 139.27 92.23C139.48 91.73 139.48 91.02 139.48 90.41C139.58 88.89 139.68 87.27 139.68 85.75C139.78 84.03 139.78 82.4 139.68 80.78ZM67.16 146.35C66.95 146.14 66.75 145.74 66.45 145.64C65.13 144.93 63.71 144.32 62.4 143.61C60.07 142.39 57.63 141.28 55.3 140.06C53.48 139.15 51.66 138.34 50.34 136.82C49.73 136.11 48.92 135.4 48.21 134.79C47.71 134.39 47 133.78 46.59 134.59C46.39 135 46.59 136.11 47 136.41C48.11 137.33 49.33 138.04 50.54 138.85C51.66 139.56 52.77 140.37 53.89 141.08C55 141.79 56.22 142.7 57.43 143.31C59.56 144.42 61.69 145.33 63.81 146.24C64.52 146.55 65.23 146.75 66.14 147.05C66.45 146.85 66.75 146.65 67.16 146.35ZM137.86 110.78C137.35 111.79 136.54 112.5 136.74 113.61C138.06 113.01 138.46 112.3 137.86 110.78ZM43.56 130.03C43.25 129.63 42.95 129.32 42.74 128.92C42.54 128.51 42.04 128 42.04 127.6C41.93 126.38 41.02 125.98 40.11 125.57C39.81 125.47 39.4 125.57 39.1 125.57C39.1 125.88 39 126.28 39.1 126.59C40.11 128.41 41.63 129.42 43.35 130.33C43.35 130.33 43.45 130.23 43.56 130.03Z" />
					<path id="XMLID_112_" class="shp3" d="M35.25 114.73C35.15 114.53 34.74 114.43 34.54 114.22C34.54 114.53 34.34 114.93 34.44 115.24C35.35 117.26 36.36 119.19 37.28 121.21C37.38 121.42 37.68 121.62 37.78 121.62C37.98 121.52 38.09 121.21 38.19 121.21C37.78 120.1 37.48 119.19 37.07 118.28C36.57 116.96 35.96 115.84 35.25 114.73Z" />
					<path id="XMLID_111_" class="shp4" d="M25.53 87.57C25.63 87.67 26.23 87.47 26.23 87.37C26.23 86.25 26.13 85.04 26.03 83.72C25.02 84.53 24.82 86.96 25.53 87.57Z" />
					<path id="XMLID_110_" class="shp5" d="M119.73 128.61C119.62 128.71 119.83 129.12 119.93 129.32C120.03 129.32 120.13 129.42 120.33 129.42C120.94 128.71 121.55 128 122.26 127.4C122.06 127.19 121.65 126.89 121.55 126.99C120.84 127.4 120.23 128 119.73 128.61Z" />
					<path id="XMLID_109_" class="shp6" d="M115.78 130.64C115.98 130.84 116.18 131.15 116.38 131.15C116.59 131.15 116.89 130.94 117.4 130.64C116.89 130.44 116.69 130.13 116.48 130.23C116.18 130.23 115.98 130.44 115.78 130.64Z" />
				</g>
			</g>
		</g>
	</g>
</svg>