<svg xmlns="http://www.w3.org/2000/svg" xmlns:xlink="http://www.w3.org/1999/xlink" version="1.1" x="0px" y="0px" viewBox="0 0 16 20" style="enable-background:new 0 0 16 16;" xml:space="preserve"><g><path d="M8.5,15C8.224,15,8,14.776,8,14.5v-13C8,1.224,8.224,1,8.5,1S9,1.224,9,1.5v13C9,14.776,8.776,15,8.5,15z"/><path d="M11.5,12c-0.276,0-0.5-0.224-0.5-0.5v-7C11,4.224,11.224,4,11.5,4S12,4.224,12,4.5v7C12,11.776,11.776,12,11.5,12z"/><path d="M14.5,10C14.224,10,14,9.776,14,9.5v-3C14,6.224,14.224,6,14.5,6S15,6.224,15,6.5v3C15,9.776,14.776,10,14.5,10z"/><path d="M5.5,12C5.224,12,5,11.776,5,11.5v-7C5,4.224,5.224,4,5.5,4S6,4.224,6,4.5v7C6,11.776,5.776,12,5.5,12z"/><path d="M2.5,10C2.224,10,2,9.776,2,9.5v-3C2,6.224,2.224,6,2.5,6S3,6.224,3,6.5v3C3,9.776,2.776,10,2.5,10z"/></g><text x="0" y="31" fill="#000000" font-size="5px" font-weight="bold" font-family="'Helvetica Neue', Helvetica, Arial-Unicode, Arial, Sans-serif">Created by icon 54</text><text x="0" y="36" fill="#000000" font-size="5px" font-weight="bold" font-family="'Helvetica Neue', Helvetica, Arial-Unicode, Arial, Sans-serif">from the Noun Project</text></svg>