<svg xmlns="http://www.w3.org/2000/svg" xmlns:xlink="http://www.w3.org/1999/xlink" width="24" height="24" viewBox="0 0 24 24">
    <defs>
        <path id="ml5vu2w9ja" d="M21 6h-2v9H6v2c0 .55.45 1 1 1h11l4 4V7c0-.55-.45-1-1-1zm-4 6V3c0-.55-.45-1-1-1H3c-.55 0-1 .45-1 1v14l4-4h10c.55 0 1-.45 1-1z"/>
    </defs>
    <g fill="none" fill-rule="evenodd">
        <g>
            <g>
                <g transform="translate(-1794 -124) translate(1244 108) translate(550 16)">
                    <mask id="tyl1o8rg0b" fill="#fff">
                        <use xlink:href="#ml5vu2w9ja"/>
                    </mask>
                    <g fill="#8B8B8B" mask="url(#tyl1o8rg0b)">
                        <path d="M0 0H50V50H0z" transform="translate(-13 -13)"/>
                    </g>
                </g>
            </g>
        </g>
    </g>
</svg>
