<?xml version="1.0" encoding="utf-8"?>
<!-- Generator: Adobe Illustrator 23.1.0, SVG Export Plug-In . SVG Version: 6.00 Build 0)  -->
<svg version="1.1" id="Layer_1" xmlns="http://www.w3.org/2000/svg" xmlns:xlink="http://www.w3.org/1999/xlink" x="0px" y="0px"
	 viewBox="0 0 511.5 196.4" style="enable-background:new 0 0 511.5 196.4;" xml:space="preserve">
<style type="text/css">
	.st0{fill:#222831;}
	.st1{fill:none;}
	.st2{fill:url(#XMLID_58_);}
	.st3{fill:url(#XMLID_86_);}
	.st4{fill:url(#XMLID_125_);}
	.st5{fill:url(#XMLID_126_);}
	.st6{fill:url(#XMLID_127_);}
	.st7{fill:url(#XMLID_128_);}
	.st8{fill:url(#XMLID_129_);}
	.st9{fill:url(#XMLID_130_);}
	.st10{fill:url(#XMLID_131_);}
	.st11{fill:url(#XMLID_132_);}
	.st12{fill:url(#XMLID_133_);}
	.st13{fill:url(#XMLID_136_);}
	.st14{fill:url(#XMLID_137_);}
	.st15{fill:url(#XMLID_138_);}
	.st16{fill:url(#XMLID_139_);}
	.st17{fill:url(#XMLID_176_);}
	.st18{fill:url(#XMLID_210_);}
	.st19{fill:url(#XMLID_211_);}
	.st20{fill:url(#XMLID_212_);}
	.st21{fill:url(#XMLID_213_);}
	.st22{fill:url(#XMLID_214_);}
	.st23{fill:url(#XMLID_229_);}
	.st24{fill:url(#XMLID_230_);}
	.st25{fill:url(#XMLID_231_);}
	.st26{fill:url(#XMLID_232_);}
	.st27{fill:url(#XMLID_233_);}
	.st28{fill:url(#XMLID_234_);}
	.st29{fill:#FB10D5;}
	.st30{fill:url(#XMLID_235_);}
	.st31{fill:url(#XMLID_236_);}
	.st32{fill:url(#XMLID_237_);}
	.st33{fill:url(#XMLID_238_);}
	.st34{fill:url(#XMLID_239_);}
</style>
<g>
	<g id="XMLID_80_">
		<path id="XMLID_83_" class="st1" d="M138.6,128.1c1.3-0.6,1.6-1.3,1.1-2.8C139.2,126.3,138.5,126.9,138.6,128.1z"/>
		<path id="XMLID_124_" class="st1" d="M141.2,92.7c0-1,0.3-2-0.7-2.7c-0.1-0.1,0-0.4-0.1-0.6c-0.2-0.8-0.2-1.6-0.6-2.3
			c-0.5-0.8-0.7-1.3,0-2c0.2-0.2,0.3-0.7,0.2-1c-0.5-1.2-1-2.3-1.5-3.4c-0.8-2.1-1.7-4.2-1.4-6.5c0-0.4-0.3-0.9-0.6-1.2
			c-1.1-1.1-2.6-1.8-2.4-3.7c0-0.1-0.1-0.1-0.1-0.2c-1.1-2.8-2.9-5.1-4.6-7.5c-1.4-2-3.2-3.7-4.8-5.6c-0.2-0.2-0.5-0.3-0.7-0.5
			c-0.4-0.3-0.9-0.5-1.2-0.8c-0.6-0.5-1.1-1.1-1.7-1.6c-2.4-2-5.3-3.4-8.1-4.6c-2.1-0.9-4.1-1.9-6.2-2.6c-1.7-0.6-3.5-0.9-5.3-1.3
			c-0.9-0.2-1.6-0.3-1.5-1.5c0-0.7-0.4-1.2-1.3-1c-0.3,0.1-0.8-0.1-1.1-0.1c-0.6,0-1.2-0.2-1.7-0.1c-1,0.2-1.8,0.1-2.6-0.5
			c-0.8-0.5-1.4-0.4-2,0.3c-0.7,0.9-0.9,0.8-1.4-0.2c-0.3-0.6-0.6-0.8-1.3-0.4c-0.4,0.2-1.1,0.3-1.6,0.2c-0.7-0.3-1.3-0.2-1.9,0.2
			c-0.3,0.2-1,0.5-1.2,0.3c-1.3-1-2.3-0.5-3.6,0.1c-1.4,0.6-3.2,0.2-4.8,0.2c-0.3,0-0.8,0.1-0.9,0.3c-0.6,0.8-1.3,0.9-2.2,0.9
			c-1,0-2,0.1-3,0.4c-1.5,0.5-2.9,1.2-4.3,1.8c-1,0.4-2,0.7-3,1.1c-0.6,0.2-1.3,0.5-1.7,1c-1.1,1.3-1.7,1.3-2.7,0
			c-0.1-0.1-0.2-0.1-0.5-0.2c0.1,0.4,0.1,0.7,0.2,1c0.1,0.3,0.2,0.5,0.3,0.8c-0.3,0.1-0.6,0.2-0.9,0.1c-1.5,0-3.9,1.6-4.2,3
			c-0.2,0.9-0.8,1.1-1.4,0.7c-0.9-0.6-1.5-0.3-2,0.4c-2,2.3-3.9,4.6-5.9,6.9c-1,1.2-1,1.2-1.9,0.1c0,0-0.1,0-0.2,0
			c-1.3,1.8-2.5,3.6-3.8,5.3c-2.8,3.7-4.5,8-6,12.3c-0.8,2.4-1.5,4.9-2.2,7.4c-0.3,1.2-0.6,2.5-0.8,3.8c-0.2,1.5-0.6,2.9-1.6,4
			c-0.7,0.8-1.2,1.5-0.6,2.6c0.2,0.3,0.2,0.9,0,1.3c-0.8,2.3-0.3,4.6,0,7c0.1,0.6,0.3,1.3,0.5,1.9c0.4-0.5,0.8-1.1,1.3-1.6
			c0.2-0.3,0.5-0.5,0.7-0.7c0.2,0.3,0.5,0.6,0.5,1c0,0.7-0.2,1.5-0.1,2.3c0,0.4,0.4,1.1,0.7,1.2c1.1,0.2,1.1,0.9,0.9,1.6
			c-0.4,1.3-0.7,2.4,0.2,3.6c0.2,0.2,0.1,0.7,0.1,1.1c0,1.1,0,2.2,0,3.2c0,0.5,0,1.1,0.2,1.6c0.7,1.7,1.6,3.3,1.8,5.2
			c0,0.3,0.2,0.5,0.3,0.8c0.2,0.6,0.5,1.3,0.6,1.9c0.2,1.8,0.8,3.3,2.5,4.1c0.7,0.4,1.2,1.1,0.8,1.9c-0.5,1.1,0.1,1.7,0.8,2.3
			c0.9,0.8,1.7,1.7,2.6,2.5c0.3,0.3,0.8,0.4,1.2,0.7c0-0.4,0-0.8,0-1.2c0-0.3,0-0.6,0.1-0.9c0.3,0.1,0.7,0.1,1,0.2
			c0.2,0.1,0.4,0.4,0.6,0.6c0.7,1,1.4,2.1,2.1,3c0.9,1.1,1.8,2.2,2.8,3.3c0.2,0.2,0.6,0.4,0.8,0.5c0.1-0.3,0.4-0.7,0.4-1
			c0-0.3-0.2-0.7-0.4-1c-0.3-0.6-0.5-1.4-1-1.8c-1.1-0.9-1.8-2.1-2.4-3.3c0,0-0.1,0-0.1-0.1c-0.8-0.8-1.6-1.6-2.3-2.4
			c-0.2-0.2-0.1-0.6-0.1-0.9c0.3,0.1,0.7,0.1,0.9,0.3c0.6,0.4,1.1,0.9,1.7,1.4c0.2,0.2,0.4,0.3,0.5,0.5c0.7,1,1.3,2,2,2.9
			c0.6,0.8,1.3,1.6,2,2.2c1.8,1.6,3.8,3.1,5.6,4.7c1.2,1,2.2,2.1,3.4,3c1.4,1.1,3.6,1.2,4.7,2.9c0,0.1,0.1,0.1,0.2,0.1
			c2.3,0.3,3.9,2.5,6.4,2.2c0.2,0,0.5,0.1,0.6,0.2c0.9,0.9,2.1,0.9,3.2,0.9c0.5,0,1,0,1.4,0.2c3.3,1.2,6.6,1.5,10.1,1.4
			c0.6,0,1.2,0.3,1.8,0.3c0.3,0,0.9-0.1,1-0.3c0.4-0.6,0.8-0.6,1.4-0.4c0.4,0.1,0.8,0.1,1.1,0.1c0.9,0,1.7-0.3,2.6-0.1
			c2.1,0.3,3.8-0.6,5.5-1.5c0.8-0.4,1.8-0.5,2.7-0.8c0.8-0.2,1.6-0.3,2.4-0.5c0.6-0.1,1.2-0.4,1.8-0.5c1.6-0.4,3.3-0.7,4.9-1.2
			c1.5-0.5,2.9-1.3,4.3-2c2-1,4.2-2,6.1-3.2c1.8-1.1,3.5-2.6,5.2-3.8c0.5-0.4,1.2-0.6,1.5-1c1.3-1.5,2.5-3.2,3.7-4.7
			c0.5-0.7,1-1.6,1.7-2c1.3-0.8,2-2.1,2.7-3.3c0.3-0.5,0.6-1.1,0.9-1.6c-0.1-0.1-0.2-0.2-0.4-0.3c-0.3,0.2-0.8,0.4-1,0.7
			c-0.8,0.8-1.7,1.6-2.1,2.5c-0.9,2.1-3,3.1-4.5,4.7c-0.3,0.4-0.7,0.7-1.2,0.9c-0.2,0.1-0.6,0-0.9,0c0.1-0.3,0.1-0.7,0.2-1
			c0.1-0.2,0.3-0.3,0.5-0.4c1.7-1.7,3.5-3.4,5.2-5.1c0.2-0.2,0-0.8,0-1.2c-0.4,0-0.9-0.1-1.1,0.1c-0.8,0.6-1.5,1.3-2.2,2
			c-1.2,1.4-3,2.4-4,4c-0.3,0.4-0.8,0.8-1.2,1.1c-0.2,0.1-0.5,0.2-0.7,0.1c-0.1-0.1-0.2-0.5-0.1-0.7c0.8-1,1.6-2,2.5-3
			c1.4-1.5,3.1-2.8,4.2-4.5c1.2-2,2.5-3.9,3.9-5.7c1.2-1.5,2.2-3.1,3-4.8c1-2.1,1.7-4.4,2.6-6.7c0.3-0.7,0.6-1.3,0.9-1.9
			c0.1-0.2,0.2-0.5,0.1-0.7c-0.5-1.2-0.1-2.2,0.3-3.3c0.2-0.5,0.1-1.2,0.2-1.8c0.1-1.5,0.1-3.1,0.2-4.6c0-1.7,0.1-3.4,0.1-5
			C141.5,94.6,141.1,93.7,141.2,92.7z"/>
		<g id="XMLID_108_">
			<linearGradient id="XMLID_58_" gradientUnits="userSpaceOnUse" x1="8.6864" y1="98.1894" x2="162.1246" y2="98.1894">
				<stop  offset="0" style="stop-color:#02D7F5"/>
				<stop  offset="1" style="stop-color:#FF0DD4"/>
			</linearGradient>
			<path id="XMLID_117_" class="st2" d="M161.7,93c-0.6-2.5-0.5-5.1-0.9-7.6c-0.2-1.6-0.8-3.1-1.1-4.7c-0.4-1.8-0.8-3.6-1.3-5.4
				c-0.5-1.8-1.2-3.6-1.9-5.4c-0.5-1.3-0.9-2.7-2-3.7c-0.5-0.4-0.7-1.1-1.1-1.6c-2.5-4-4.3-8.5-7.5-12.1c-3.2-3.6-6.2-7.5-9.9-10.6
				c-1.1-0.9-2.1-2-3.3-2.9c-2.2-1.5-4.5-2.9-6.7-4.3c-3.4-2.2-7-4.1-11-5.2c-1.3-0.3-2.6-0.4-3.7-1.2c-0.2-0.2-0.6-0.1-0.9-0.1
				c-0.4-0.1-0.8-0.1-1.2-0.2c-1.8-0.5-3.5-1.2-5.3-1.6c-1.8-0.4-3.7-0.7-5.5-1c-3-0.4-5.9-0.8-8.9-1.1c-5.6-0.6-11.3-0.7-16.9,0.6
				c-1.2,0.3-2.4,0.3-3.5,0.5c-0.7,0.1-1.3,0.3-2,0.4c-2,0.5-4,1.1-6,1.6c-1.5,0.4-3.1,0.7-4.6,1.1c-0.1,0-0.2,0.1-0.3,0.1
				c-1.4,0.6-2.9,1.2-4.3,1.9c-1.9,0.9-3.8,1.9-5.6,3c-1.6,1-3,2.2-4.5,3.3c-1.9,1.4-3.8,2.7-5.7,4.1c-5.3,3.9-9.8,8.7-13.8,13.9
				c-2.4,3.1-4.2,6.7-6.2,10.1c-0.5,0.8-0.7,1.8-1.1,2.7c-0.6,1.5-1.3,2.9-1.8,4.4c-0.5,1.3-0.6,2.8-1.3,4c-0.5,1.1-0.7,2.1-0.7,3.2
				c0,0.6-0.1,1.3-0.2,1.9c-0.6,3-1.2,5.9-1.7,8.9c-0.3,1.8-0.7,3.5-0.7,5.3c0,2.8-0.3,5.5,0.4,8.3c0.8,3.1,1.2,6.3,1.9,9.4
				c0.3,1.4,0.9,2.7,1.3,4.1c0.4,1.4,0.8,2.8,1.2,4.2c0.1,0.2,0.5,0.3,0.8,0.5c0.3,0.2,0.7,0.4,0.8,0.7c0.4,1.7,1,3.3,2,4.8
				c0.1,0.1,0.1,0.3,0.1,0.5c0,1.6,1.4,2.4,2,3.6c0,0.1,0.2,0.1,0.5,0.2c0-0.3,0-0.5-0.1-0.6c-1-2.1-2-4.2-2.5-6.5
				c-0.1-0.6-0.6-1.2-0.8-1.9c-0.5-1.7-0.9-3.3-1.3-5c-0.6-2.3-1.3-4.7-1.6-7c-0.2-1.4,0.3-3,0.5-4.5c0.1-0.9,0.3-1.7,0.3-2.6
				c0.1-3.7,0.1-7.3,0.1-11c0-0.4,0.1-0.8,0.2-1.2c0.2,0,0.3,0,0.5,0c0.1,0.5,0.2,0.9,0.2,1.4c0,4,0,8.1,0.1,12.1
				c0,0.6,0.2,1.1,0.3,1.7c0.2,0.9,0.5,1.7,0.5,2.6c0,2.1,0.9,3.9,2,5.6c0.6,0.9,1.1,1.8,1.5,2.7c1.1,2.5,2,5,3.2,7.4
				c1,2,2.2,4,3.6,5.9c1.8,2.5,3.9,4.7,5.8,7.1c0.4,0.5,0.8,1.1,1,1.7c0.4,1.5,1.1,2.8,2,4c0.9,1.4,1.8,2.9,2.9,4.1
				c2.1,2.3,4.4,4.5,6.6,6.8c3,3,5.9,5.9,9.8,7.8c1.6,0.8,3,1.8,4.6,2.6c4.3,1.9,8.5,4.2,13.3,5c0.2,0,0.4,0.3,0.7,0.3
				c0.6,0.2,1.2,0.5,1.8,0.6c1.5,0.2,3,0.3,4.5,0.5c0.9,0.1,1.9,0.4,2.8,0.5c1.2,0.2,2.5,0.3,3.7,0.4c1,0.1,1.9,0.5,2.9,0.4
				c3.6-0.2,7.2-0.6,10.8-0.9c0.3,0,0.6-0.2,0.9-0.2c0.9-0.2,1.9-0.7,2.8-0.6c2.2,0.2,4.1-0.8,6.1-1.3c2.8-0.8,5.5-2,8.2-3.2
				c4.5-2,9.1-4,12.9-7.2c3.6-3,7.8-5.2,10.7-9.1c2.3-3,5-5.6,7.2-8.7c2.1-2.9,3.8-6.2,5.7-9.3c0.5-0.8,1.1-1.6,1.3-2.5
				c0.4-2.3,2.2-4.1,2.1-6.6c0-0.1,0.1-0.3,0.1-0.4c0.7-2.4,1.3-4.7,2-7.1c0.1-0.3,0.2-0.7,0.3-1c0.2-0.9,0.6-1.9,0.7-2.8
				c0.3-1.8,0.5-3.7,0.7-5.6c0.2-1.9,0.5-3.8,0.5-5.8C162.1,97.8,162.3,95.4,161.7,93z M46.4,144.6c-1.7-0.9-3.2-1.9-4.2-3.7
				c-0.1-0.3,0-0.7,0-1c0.3,0,0.7-0.1,1,0c0.9,0.4,1.8,0.8,1.9,2c0,0.4,0.5,0.9,0.7,1.3c0.2,0.4,0.5,0.7,0.8,1.1
				C46.5,144.5,46.4,144.6,46.4,144.6z M68.9,161.1c-0.9-0.3-1.6-0.5-2.3-0.8c-2.1-0.9-4.2-1.8-6.3-2.9c-1.2-0.6-2.4-1.5-3.5-2.2
				c-1.1-0.7-2.2-1.5-3.3-2.2c-1.2-0.8-2.4-1.5-3.5-2.4c-0.4-0.3-0.6-1.4-0.4-1.8c0.4-0.8,1.1-0.2,1.6,0.2c0.7,0.6,1.5,1.3,2.1,2
				c1.3,1.5,3.1,2.3,4.9,3.2c2.3,1.2,4.7,2.3,7,3.5c1.3,0.7,2.7,1.3,4,2c0.3,0.1,0.5,0.5,0.7,0.7C69.5,160.7,69.2,160.9,68.9,161.1z
				 M138.6,128.1c-0.2-1.1,0.6-1.8,1.1-2.8C140.3,126.8,139.9,127.5,138.6,128.1z M141.5,100.6c0,1.5-0.1,3.1-0.2,4.6
				c0,0.6,0,1.3-0.2,1.8c-0.4,1.1-0.8,2.1-0.3,3.3c0.1,0.2,0,0.5-0.1,0.7c-0.3,0.7-0.6,1.3-0.9,1.9c-0.9,2.2-1.6,4.5-2.6,6.7
				c-0.8,1.7-1.8,3.4-3,4.8c-1.4,1.8-2.7,3.7-3.9,5.7c-1,1.7-2.8,3-4.2,4.5c-0.9,1-1.7,2-2.5,3c-0.1,0.1,0,0.5,0.1,0.7
				c0.1,0.1,0.5,0.1,0.7-0.1c0.4-0.3,0.9-0.6,1.2-1.1c1.1-1.6,2.8-2.6,4-4c0.6-0.7,1.4-1.4,2.2-2c0.3-0.2,0.8-0.1,1.1-0.1
				c0,0.4,0.2,1,0,1.2c-1.7,1.8-3.4,3.4-5.2,5.1c-0.2,0.1-0.4,0.2-0.5,0.4c-0.1,0.3-0.1,0.6-0.2,1c0.3,0,0.7,0.1,0.9,0
				c0.4-0.2,0.8-0.6,1.2-0.9c1.5-1.6,3.5-2.6,4.5-4.7c0.4-1,1.4-1.7,2.1-2.5c0.3-0.3,0.7-0.4,1-0.7c0.1,0.1,0.2,0.2,0.4,0.3
				c-0.3,0.5-0.6,1.1-0.9,1.6c-0.8,1.2-1.4,2.4-2.7,3.3c-0.7,0.5-1.2,1.3-1.7,2c-1.2,1.6-2.4,3.2-3.7,4.7c-0.4,0.4-1,0.6-1.5,1
				c-1.8,1.3-3.4,2.7-5.2,3.8c-1.9,1.2-4,2.2-6.1,3.2c-1.4,0.7-2.8,1.5-4.3,2c-1.6,0.5-3.3,0.8-4.9,1.2c-0.6,0.2-1.2,0.4-1.8,0.5
				c-0.8,0.2-1.6,0.3-2.4,0.5c-0.9,0.2-1.9,0.4-2.7,0.8c-1.8,0.9-3.4,1.8-5.5,1.5c-0.8-0.1-1.7,0.1-2.6,0.1c-0.4,0-0.8,0-1.1-0.1
				c-0.6-0.2-1-0.2-1.4,0.4c-0.1,0.2-0.7,0.3-1,0.3c-0.6,0-1.2-0.3-1.8-0.3c-3.5,0.1-6.8-0.2-10.1-1.4c-0.4-0.2-0.9-0.2-1.4-0.2
				c-1.2,0-2.3,0-3.2-0.9c-0.1-0.1-0.4-0.2-0.6-0.2c-2.5,0.3-4.1-1.8-6.4-2.2c-0.1,0-0.2,0-0.2-0.1c-1.1-1.7-3.2-1.8-4.7-2.9
				c-1.2-0.9-2.2-2-3.4-3c-1.9-1.6-3.8-3.1-5.6-4.7c-0.7-0.7-1.4-1.4-2-2.2c-0.7-0.9-1.3-1.9-2-2.9c-0.1-0.2-0.4-0.3-0.5-0.5
				c-0.6-0.5-1.1-1-1.7-1.4c-0.3-0.2-0.6-0.2-0.9-0.3c0,0.3-0.1,0.7,0.1,0.9c0.7,0.8,1.5,1.6,2.3,2.4c0,0,0.1,0,0.1,0.1
				c0.6,1.2,1.3,2.4,2.4,3.3c0.5,0.4,0.7,1.1,1,1.8c0.2,0.3,0.4,0.7,0.4,1c0,0.3-0.3,0.7-0.4,1c-0.3-0.2-0.6-0.3-0.8-0.5
				c-0.9-1.1-1.9-2.1-2.8-3.3c-0.8-1-1.4-2-2.1-3c-0.2-0.2-0.3-0.5-0.6-0.6c-0.3-0.2-0.6-0.2-1-0.2c0,0.3-0.1,0.6-0.1,0.9
				c0,0.4,0,0.8,0,1.2c-0.4-0.2-0.9-0.4-1.2-0.7c-0.9-0.8-1.7-1.7-2.6-2.5c-0.7-0.6-1.3-1.2-0.8-2.3c0.4-0.8-0.1-1.5-0.8-1.9
				c-1.7-0.9-2.3-2.3-2.5-4.1c-0.1-0.7-0.4-1.3-0.6-1.9c-0.1-0.3-0.3-0.5-0.3-0.8c-0.2-1.9-1.1-3.5-1.8-5.2
				c-0.2-0.5-0.2-1.1-0.2-1.6c0-1.1,0-2.2,0-3.2c0-0.4,0-0.8-0.1-1.1c-1-1.2-0.6-2.4-0.2-3.6c0.2-0.7,0.2-1.4-0.9-1.6
				c-0.3,0-0.7-0.8-0.7-1.2c-0.1-0.7,0.2-1.5,0.1-2.3c0-0.3-0.3-0.6-0.5-1c-0.2,0.2-0.5,0.4-0.7,0.7c-0.4,0.5-0.8,1-1.3,1.6
				c-0.2-0.6-0.4-1.3-0.5-1.9c-0.3-2.3-0.8-4.6,0-7c0.1-0.4,0.2-0.9,0-1.3c-0.7-1.1-0.2-1.8,0.6-2.6c1.1-1.1,1.5-2.5,1.6-4
				c0.1-1.3,0.4-2.6,0.8-3.8c0.7-2.5,1.4-5,2.2-7.4c1.5-4.3,3.2-8.6,6-12.3c1.3-1.7,2.5-3.5,3.8-5.3c0,0,0.1,0,0.2,0
				c0.9,1.1,0.9,1.1,1.9-0.1c2-2.3,3.9-4.6,5.9-6.9c0.6-0.7,1.2-0.9,2-0.4c0.6,0.4,1.2,0.2,1.4-0.7c0.4-1.4,2.7-3,4.2-3
				c0.3,0,0.6-0.1,0.9-0.1c-0.1-0.3-0.2-0.5-0.3-0.8c-0.1-0.3-0.1-0.6-0.2-1c0.3,0.1,0.4,0.1,0.5,0.2c1,1.4,1.6,1.3,2.7,0
				c0.4-0.5,1.1-0.7,1.7-1c1-0.4,2-0.7,3-1.1c1.4-0.6,2.8-1.3,4.3-1.8c0.9-0.3,2-0.4,3-0.4c0.9,0,1.6-0.1,2.2-0.9
				c0.2-0.2,0.6-0.3,0.9-0.3c1.6-0.1,3.5,0.4,4.8-0.2c1.4-0.6,2.3-1.1,3.6-0.1c0.2,0.2,0.9-0.1,1.2-0.3c0.6-0.4,1.2-0.4,1.9-0.2
				c0.5,0.2,1.1,0.1,1.6-0.2c0.7-0.3,1-0.2,1.3,0.4c0.5,1,0.7,1,1.4,0.2c0.6-0.7,1.2-0.9,2-0.3c0.8,0.5,1.6,0.7,2.6,0.5
				c0.5-0.1,1.1,0,1.7,0.1c0.4,0,0.8,0.2,1.1,0.1c0.9-0.2,1.3,0.2,1.3,1c0,1.2,0.7,1.3,1.5,1.5c1.8,0.4,3.6,0.7,5.3,1.3
				c2.1,0.7,4.2,1.7,6.2,2.6c2.9,1.2,5.7,2.6,8.1,4.6c0.6,0.5,1.1,1.1,1.7,1.6c0.4,0.3,0.8,0.5,1.2,0.8c0.2,0.2,0.5,0.3,0.7,0.5
				c1.6,1.8,3.3,3.6,4.8,5.6c1.7,2.4,3.5,4.7,4.6,7.5c0,0.1,0.1,0.1,0.1,0.2c-0.2,1.9,1.4,2.6,2.4,3.7c0.3,0.3,0.6,0.8,0.6,1.2
				c-0.3,2.4,0.6,4.4,1.4,6.5c0.5,1.2,1,2.3,1.5,3.4c0.1,0.3,0,0.8-0.2,1c-0.7,0.7-0.5,1.2,0,2c0.4,0.6,0.5,1.5,0.6,2.3
				c0.1,0.2,0,0.5,0.1,0.6c1,0.8,0.7,1.7,0.7,2.7c0,1,0.4,1.9,0.4,2.9C141.6,97.3,141.6,98.9,141.5,100.6z"/>
			<linearGradient id="XMLID_86_" gradientUnits="userSpaceOnUse" x1="37.5792" y1="132.2744" x2="41.3583" y2="132.2744">
				<stop  offset="0" style="stop-color:#02D7F5"/>
				<stop  offset="1" style="stop-color:#FF0DD4"/>
			</linearGradient>
			<path id="XMLID_112_" class="st3" d="M38.4,129.2c-0.1-0.2-0.5-0.3-0.7-0.5c0,0.3-0.2,0.7-0.1,1c0.9,2,1.9,3.9,2.8,5.9
				c0.1,0.2,0.4,0.4,0.5,0.4c0.2-0.1,0.3-0.4,0.4-0.4c-0.4-1.1-0.7-2-1.1-2.9C39.7,131.4,39.1,130.3,38.4,129.2z"/>
			<linearGradient id="XMLID_125_" gradientUnits="userSpaceOnUse" x1="28.3646" y1="100.5287" x2="29.5106" y2="100.5287">
				<stop  offset="0" style="stop-color:#02D7F5"/>
				<stop  offset="1" style="stop-color:#FF0DD4"/>
			</linearGradient>
			<path id="XMLID_111_" class="st4" d="M28.8,102.4c0.1,0.1,0.7-0.1,0.7-0.2c0-1.1-0.1-2.3-0.2-3.6
				C28.3,99.4,28.1,101.8,28.8,102.4z"/>
			<linearGradient id="XMLID_126_" gradientUnits="userSpaceOnUse" x1="121.7706" y1="142.4366" x2="124.2283" y2="142.4366">
				<stop  offset="0" style="stop-color:#02D7F5"/>
				<stop  offset="1" style="stop-color:#FF0DD4"/>
			</linearGradient>
			<path id="XMLID_110_" class="st5" d="M121.8,142.9c-0.1,0.1,0.1,0.5,0.2,0.7c0.1,0,0.2,0.1,0.4,0.1c0.6-0.7,1.2-1.4,1.9-2
				c-0.2-0.2-0.6-0.5-0.7-0.4C122.9,141.7,122.3,142.3,121.8,142.9z"/>
			<linearGradient id="XMLID_127_" gradientUnits="userSpaceOnUse" x1="117.8779" y1="144.9438" x2="119.471" y2="144.9438">
				<stop  offset="0" style="stop-color:#02D7F5"/>
				<stop  offset="1" style="stop-color:#FF0DD4"/>
			</linearGradient>
			<path id="XMLID_109_" class="st6" d="M117.9,144.9c0.2,0.2,0.4,0.5,0.6,0.5c0.2,0,0.5-0.2,1-0.5c-0.5-0.2-0.7-0.5-0.9-0.4
				C118.3,144.5,118.1,144.7,117.9,144.9z"/>
		</g>
	</g>
	<g id="XMLID_1_">
		<g>
			<path id="XMLID_460_" class="st0" d="M235.5,65.3v65.2h-6.6c-1.4,0-2.3-0.7-2.7-2l-0.9-4.3c-1.8,2.1-3.9,3.8-6.2,5
				c-2.4,1.3-5.1,1.9-8.2,1.9c-2.5,0-4.7-0.5-6.8-1.5c-2-1-3.8-2.5-5.3-4.5c-1.5-1.9-2.6-4.3-3.4-7.2c-0.8-2.9-1.2-6.1-1.2-9.8
				c0-3.3,0.5-6.4,1.4-9.3c0.9-2.9,2.2-5.3,3.9-7.5c1.7-2.1,3.7-3.7,6.1-4.9c2.4-1.2,5-1.8,8-1.8c2.5,0,4.7,0.4,6.4,1.2
				c1.8,0.8,3.4,1.9,4.8,3.2V65.3H235.5z M224.6,96.9c-1.2-1.5-2.6-2.5-4-3.2c-1.4-0.6-3-0.9-4.7-0.9c-1.6,0-3.1,0.3-4.4,0.9
				c-1.3,0.6-2.4,1.5-3.4,2.8c-0.9,1.2-1.7,2.8-2.1,4.7c-0.5,1.9-0.7,4.2-0.7,6.8c0,2.6,0.2,4.9,0.6,6.7c0.4,1.8,1,3.3,1.8,4.5
				c0.8,1.2,1.8,2,2.9,2.5c1.1,0.5,2.4,0.8,3.8,0.8c2.3,0,4.2-0.5,5.7-1.4c1.6-0.9,3.1-2.3,4.5-4V96.9z"/>
			<path id="XMLID_457_" class="st0" d="M246.9,91.7c5.2-4.7,11.4-7.1,18.7-7.1c2.6,0,5,0.4,7.1,1.3c2.1,0.9,3.8,2.1,5.3,3.6
				c1.4,1.5,2.5,3.4,3.3,5.5c0.7,2.1,1.1,4.5,1.1,7v28.4h-4.9c-1,0-1.8-0.2-2.4-0.5c-0.6-0.3-1-0.9-1.3-1.9l-1-3.2
				c-1.1,1-2.3,1.9-3.3,2.7c-1.1,0.8-2.2,1.4-3.4,2c-1.2,0.5-2.4,0.9-3.7,1.2c-1.3,0.3-2.8,0.4-4.4,0.4c-1.9,0-3.7-0.3-5.3-0.8
				c-1.6-0.5-3-1.3-4.2-2.3c-1.2-1-2.1-2.3-2.7-3.8c-0.6-1.5-1-3.3-1-5.3c0-1.1,0.2-2.3,0.6-3.4c0.4-1.1,1-2.2,1.9-3.2
				c0.9-1,2-2,3.4-2.9c1.4-0.9,3.1-1.7,5.1-2.4c2-0.7,4.3-1.2,7-1.6c2.7-0.4,5.7-0.7,9.1-0.8V102c0-3-0.6-5.2-1.9-6.7
				c-1.3-1.4-3.1-2.2-5.6-2.2c-1.8,0-3.2,0.2-4.4,0.6c-1.2,0.4-2.2,0.9-3,1.4c-0.9,0.5-1.7,1-2.4,1.4c-0.7,0.4-1.5,0.6-2.4,0.6
				c-0.8,0-1.4-0.2-1.9-0.6c-0.5-0.4-0.9-0.9-1.3-1.4L246.9,91.7z M271.7,111.2c-3.1,0.1-5.8,0.4-7.9,0.8c-2.1,0.4-3.8,0.9-5.1,1.5
				c-1.3,0.6-2.2,1.3-2.8,2.1c-0.6,0.8-0.8,1.7-0.8,2.7c0,1.9,0.6,3.3,1.7,4.1c1.1,0.8,2.6,1.2,4.4,1.2c2.2,0,4.1-0.4,5.8-1.2
				c1.6-0.8,3.2-2,4.8-3.7V111.2z"/>
			<path id="XMLID_455_" class="st0" d="M309.2,131.1c-3.9,0-6.9-1.1-9-3.3c-2.1-2.2-3.1-5.3-3.1-9.1V93.5h-4.6
				c-0.6,0-1.1-0.2-1.5-0.6c-0.4-0.4-0.6-0.9-0.6-1.7V87l7.2-1.2l2.3-12.3c0.1-0.6,0.4-1,0.8-1.4c0.4-0.3,0.9-0.5,1.6-0.5h5.6v14.2
				h12v7.7h-12v24.4c0,1.4,0.3,2.5,1,3.3c0.7,0.8,1.6,1.2,2.8,1.2c0.7,0,1.2-0.1,1.7-0.2c0.5-0.2,0.8-0.3,1.2-0.5
				c0.3-0.2,0.6-0.3,0.9-0.5c0.3-0.2,0.5-0.2,0.8-0.2c0.3,0,0.6,0.1,0.8,0.2c0.2,0.2,0.4,0.4,0.7,0.7l3.2,5.3
				c-1.6,1.3-3.4,2.3-5.4,3C313.5,130.8,311.4,131.1,309.2,131.1z"/>
			<path id="XMLID_452_" class="st0" d="M327.5,91.7c5.2-4.7,11.4-7.1,18.7-7.1c2.6,0,5,0.4,7.1,1.3c2.1,0.9,3.8,2.1,5.3,3.6
				c1.4,1.5,2.5,3.4,3.3,5.5c0.7,2.1,1.1,4.5,1.1,7v28.4H358c-1,0-1.8-0.2-2.4-0.5c-0.6-0.3-1-0.9-1.3-1.9l-1-3.2
				c-1.1,1-2.3,1.9-3.3,2.7c-1.1,0.8-2.2,1.4-3.4,2c-1.2,0.5-2.4,0.9-3.7,1.2c-1.3,0.3-2.8,0.4-4.4,0.4c-1.9,0-3.7-0.3-5.3-0.8
				c-1.6-0.5-3-1.3-4.2-2.3c-1.2-1-2.1-2.3-2.7-3.8c-0.6-1.5-1-3.3-1-5.3c0-1.1,0.2-2.3,0.6-3.4c0.4-1.1,1-2.2,1.9-3.2
				c0.9-1,2-2,3.4-2.9c1.4-0.9,3.1-1.7,5.1-2.4c2-0.7,4.3-1.2,7-1.6c2.7-0.4,5.7-0.7,9.1-0.8V102c0-3-0.6-5.2-1.9-6.7
				c-1.3-1.4-3.1-2.2-5.6-2.2c-1.8,0-3.2,0.2-4.4,0.6c-1.2,0.4-2.2,0.9-3,1.4c-0.9,0.5-1.7,1-2.4,1.4c-0.7,0.4-1.5,0.6-2.4,0.6
				c-0.8,0-1.4-0.2-1.9-0.6c-0.5-0.4-0.9-0.9-1.3-1.4L327.5,91.7z M352.3,111.2c-3.1,0.1-5.8,0.4-7.9,0.8c-2.1,0.4-3.8,0.9-5.1,1.5
				c-1.3,0.6-2.2,1.3-2.8,2.1c-0.6,0.8-0.8,1.7-0.8,2.7c0,1.9,0.6,3.3,1.7,4.1c1.1,0.8,2.6,1.2,4.4,1.2c2.2,0,4.1-0.4,5.8-1.2
				c1.6-0.8,3.2-2,4.8-3.7V111.2z"/>
			<path id="XMLID_449_" class="st0" d="M394.7,84.7c3.3,0,6.4,0.5,9.1,1.6c2.7,1.1,5.1,2.6,7,4.6c1.9,2,3.4,4.4,4.5,7.3
				c1.1,2.9,1.6,6.1,1.6,9.6c0,3.6-0.5,6.8-1.6,9.6c-1.1,2.9-2.6,5.3-4.5,7.3c-1.9,2-4.3,3.6-7,4.6c-2.7,1.1-5.8,1.6-9.1,1.6
				c-3.4,0-6.4-0.5-9.2-1.6c-2.7-1.1-5.1-2.6-7-4.6c-1.9-2-3.4-4.5-4.5-7.3c-1.1-2.9-1.6-6.1-1.6-9.6c0-3.5,0.5-6.7,1.6-9.6
				c1.1-2.9,2.6-5.3,4.5-7.3c1.9-2,4.3-3.5,7-4.6C388.3,85.3,391.3,84.7,394.7,84.7z M394.7,122.7c3.7,0,6.5-1.3,8.3-3.8
				c1.8-2.5,2.7-6.2,2.7-11c0-4.9-0.9-8.6-2.7-11.1c-1.8-2.5-4.6-3.8-8.3-3.8c-3.8,0-6.6,1.3-8.4,3.8c-1.8,2.6-2.7,6.2-2.7,11.1
				s0.9,8.5,2.7,11C388.1,121.5,390.9,122.7,394.7,122.7z"/>
			<path id="XMLID_447_" class="st0" d="M437.1,93.2c1.4-2.7,3.1-4.8,5-6.3c1.9-1.5,4.2-2.3,6.8-2.3c2.1,0,3.7,0.5,5,1.4l-0.7,8.1
				c-0.1,0.5-0.4,0.9-0.6,1.1c-0.3,0.2-0.7,0.3-1.1,0.3c-0.4,0-1.1-0.1-2-0.2c-0.9-0.1-1.7-0.2-2.5-0.2c-1.2,0-2.3,0.2-3.2,0.5
				c-0.9,0.4-1.8,0.9-2.5,1.5c-0.7,0.7-1.4,1.5-2,2.4c-0.6,0.9-1.1,2-1.6,3.2v27.7h-10.8v-45h6.4c1.1,0,1.9,0.2,2.3,0.6
				c0.4,0.4,0.7,1.1,0.9,2.1L437.1,93.2z"/>
			<path id="XMLID_444_" class="st0" d="M472.2,91c1.8-1.9,3.8-3.4,6-4.5c2.2-1.1,4.7-1.7,7.6-1.7c2.6,0,4.9,0.5,7,1.5
				c2.1,1,3.9,2.5,5.3,4.4c1.5,1.9,2.6,4.2,3.4,6.9c0.8,2.7,1.2,5.8,1.2,9.2c0,3.7-0.5,7-1.4,10c-0.9,3-2.2,5.5-3.9,7.7
				c-1.7,2.1-3.7,3.8-6.1,4.9c-2.4,1.2-5,1.8-7.9,1.8c-1.4,0-2.7-0.1-3.8-0.4c-1.1-0.3-2.2-0.7-3.2-1.2c-1-0.5-1.8-1.1-2.7-1.8
				c-0.8-0.7-1.6-1.5-2.3-2.4l-0.5,3c-0.2,0.8-0.5,1.3-0.9,1.6c-0.4,0.3-1,0.5-1.7,0.5h-7.1V65.3h10.8V91z M472.2,118.8
				c1.2,1.5,2.6,2.5,4,3.2s3,0.9,4.6,0.9c1.7,0,3.2-0.3,4.5-0.9c1.3-0.6,2.5-1.5,3.4-2.8c0.9-1.3,1.7-2.9,2.1-4.9
				c0.5-2,0.7-4.3,0.7-7.1c0-4.9-0.8-8.5-2.5-10.7c-1.6-2.2-4-3.3-7.1-3.3c-2.1,0-3.9,0.5-5.4,1.4c-1.5,1-3,2.3-4.4,4V118.8z"/>
		</g>
	</g>
</g>
</svg>
