<?xml version="1.0" encoding="UTF-8"?>
<svg width="815px" height="284px" viewBox="0 0 815 284" version="1.1" xmlns="http://www.w3.org/2000/svg" xmlns:xlink="http://www.w3.org/1999/xlink">
    <title>Logo-new</title>
    <defs>
        <linearGradient x1="0.097891622%" y1="49.9959599%" x2="100.029908%" y2="49.9959599%" id="linearGradient-1">
            <stop stop-color="#FFFFFF" offset="0%"></stop>
            <stop stop-color="#FFFFFF" offset="100%"></stop>
        </linearGradient>
        <linearGradient x1="0.193133047%" y1="48.9643836%" x2="101.563841%" y2="48.9643836%" id="linearGradient-2">
            <stop stop-color="#02D7F5" offset="0%"></stop>
            <stop stop-color="#FF0DD4" offset="100%"></stop>
        </linearGradient>
        <linearGradient x1="-1.88314654%" y1="50.39383%" x2="100.951173%" y2="50.39383%" id="linearGradient-3">
            <stop stop-color="#02D7F5" offset="0%"></stop>
            <stop stop-color="#FF0DD4" offset="100%"></stop>
        </linearGradient>
        <linearGradient x1="-0.0849044534%" y1="47.7904324%" x2="97.1629289%" y2="47.7904324%" id="linearGradient-4">
            <stop stop-color="#02D7F5" offset="0%"></stop>
            <stop stop-color="#FF0DD4" offset="100%"></stop>
        </linearGradient>
        <linearGradient x1="-1.38125%" y1="50.3731491%" x2="98.1875%" y2="50.3731491%" id="linearGradient-5">
            <stop stop-color="#02D7F5" offset="0%"></stop>
            <stop stop-color="#FF0DD4" offset="100%"></stop>
        </linearGradient>
    </defs>
    <g id="Logo-new" stroke="none" stroke-width="1" fill="none" fill-rule="evenodd">
        <g id="DO-White-SVG" transform="translate(53.000000, 67.000000)">
            <g id="Dataorb-logo-(2)" transform="translate(221.750243, 23.844783)" fill="#FFFFFF" fill-rule="nonzero">
                <g id="Group">
                    <path d="M80.3255132,48.561194 C80.3255132,55.2895522 79.1759531,61.4328358 77.0205279,67.1373134 C74.8651027,72.841791 71.7038123,77.6686567 67.6803519,81.7641791 C63.6568915,85.8597015 58.914956,88.9313433 53.3108505,91.2716418 C47.7067449,93.4656716 41.3841643,94.6358209 34.4868036,94.6358209 L-1.29896094e-14,94.6358209 L-1.29896094e-14,2.63283582 L34.4868036,2.63283582 C41.3841643,2.63283582 47.5630499,3.80298508 53.3108505,5.99701493 C58.914956,8.33731344 63.8005865,11.4089552 67.6803519,15.5044776 C71.7038123,19.6 74.7214077,24.4268657 77.0205279,29.9850746 C79.3196481,35.5432836 80.3255132,41.8328358 80.3255132,48.561194 Z M62.9384165,48.561194 C62.9384165,43.441791 62.2199414,39.0537313 60.9266862,34.9582089 C59.6334311,31.0089552 57.7653959,27.4985074 55.1788857,24.719403 C52.7360704,21.9402985 49.7184751,19.7462686 46.1260997,18.2835821 C42.5337244,16.8208955 38.653959,16.0895522 34.1994135,16.0895522 L16.6686217,16.0895522 L16.6686217,80.8865671 L34.1994135,80.8865671 C38.653959,80.8865671 42.5337244,80.1552239 46.1260997,78.6925373 C49.7184751,77.2298507 52.5923754,75.0358209 55.1788857,72.2567164 C57.7653959,69.4776119 59.4897361,66.1134328 60.9266862,62.0179104 C62.3636364,58.2149254 62.9384165,53.680597 62.9384165,48.561194 Z" id="Shape"></path>
                    <path d="M93.6891496,38.4686567 C101.017595,31.5940298 109.926686,28.2298507 120.272727,28.2298507 C124.008798,28.2298507 127.313783,28.8149254 130.331378,30.1313433 C133.348974,31.4477612 135.791789,33.0567164 137.803519,35.3970149 C139.815249,37.7373134 141.395895,40.2238806 142.40176,43.441791 C143.407625,46.5134328 143.982405,49.8776119 143.982405,53.680597 L143.982405,94.9283582 L136.941349,94.9283582 C135.504399,94.9283582 134.354839,94.6358209 133.636364,94.1970149 C132.774194,93.7582089 132.199414,92.880597 131.768329,91.5641791 L130.331378,86.8835821 C128.750733,88.3462686 127.170088,89.6626866 125.589443,90.8328358 C124.008798,92.0029851 122.428153,92.880597 120.847507,93.6119403 C119.266862,94.3432836 117.398827,94.9283582 115.530792,95.3671642 C113.662757,95.8059701 111.507332,95.9522388 109.208211,95.9522388 C106.478006,95.9522388 104.035191,95.5134328 101.736071,94.7820895 C99.4369502,94.0507463 97.42522,92.880597 95.8445748,91.4179104 C94.1202346,89.9552239 92.8269795,88.0537313 91.9648094,85.8597015 C91.1026393,83.6656716 90.5278593,81.0328358 90.5278593,78.1074627 C90.5278593,76.4985074 90.8152493,74.7432836 91.3900294,73.1343283 C91.9648094,71.5253731 92.8269795,69.9164179 93.9765396,68.4537313 C95.2697948,66.9910448 96.8504399,65.5283582 98.7184751,64.2119403 C100.730205,62.8955224 103.029326,61.7253731 105.903226,60.8477612 C108.777126,59.8238806 112.082112,59.0925373 115.818182,58.5074627 C119.554252,57.922388 124.008798,57.4835821 128.750733,57.3373134 L128.750733,53.3880597 C128.750733,49 127.888563,45.7820895 126.020528,43.7343283 C124.152493,41.6865671 121.565983,40.5164179 118.117302,40.5164179 C115.674487,40.5164179 113.519062,40.8089552 111.938417,41.3940298 C110.357771,41.9791045 108.777126,42.7104477 107.627566,43.441791 C106.334311,44.1731343 105.184751,44.9044776 104.178886,45.4895522 C103.173021,46.0746268 102.023461,46.3671642 100.730205,46.3671642 C99.5806452,46.3671642 98.7184751,46.0746268 98,45.4895522 C97.281525,44.9044776 96.7067449,44.319403 96.1319648,43.441791 L93.6891496,38.4686567 Z M129.038123,66.6985074 C124.583578,66.8447761 120.847507,67.2835821 117.829912,67.8686567 C114.812317,68.4537313 112.369502,69.1850746 110.501466,70.0626866 C108.633431,70.9402985 107.340176,71.9641791 106.621701,73.1343283 C105.759531,74.3044776 105.472141,75.6208955 105.472141,77.0835821 C105.472141,79.8626866 106.334311,81.7641791 107.914956,82.9343283 C109.495601,84.1044776 111.651027,84.6895522 114.237537,84.6895522 C117.398827,84.6895522 120.129032,84.1044776 122.428153,82.9343283 C124.727273,81.7641791 127.026393,80.0089552 129.181818,77.6686567 L129.181818,66.6985074 L129.038123,66.6985074 Z" id="Shape"></path>
                    <path d="M182.492669,95.6597015 C176.888563,95.6597015 172.577713,94.0507463 169.703812,90.8328358 C166.686217,87.6149254 165.249267,83.2268657 165.249267,77.522388 L165.249267,41.1014925 L158.639296,41.1014925 C157.777126,41.1014925 157.058651,40.8089552 156.483871,40.2238806 C155.909091,39.638806 155.621701,38.9074627 155.621701,37.7373134 L155.621701,31.4477612 L165.967742,29.6925373 L169.272727,11.8477612 C169.416422,10.9701492 169.847507,10.3850746 170.422288,9.94626862 C170.997068,9.50746272 171.715543,9.21492538 172.721408,9.21492538 L180.768329,9.21492538 L180.768329,29.838806 L197.868035,29.838806 L197.868035,41.1014925 L180.768329,41.1014925 L180.768329,76.4985074 C180.768329,78.5462686 181.199414,80.1552239 182.205279,81.3253731 C183.211144,82.4955224 184.504399,83.080597 186.228739,83.080597 C187.234604,83.080597 187.953079,82.9343283 188.671554,82.7880597 C189.246334,82.4955224 189.821115,82.3492537 190.395895,82.0567164 C190.82698,81.7641791 191.258065,81.6179104 191.68915,81.3253731 C192.120235,81.0328358 192.407625,81.0328358 192.83871,81.0328358 C193.269795,81.0328358 193.70088,81.1791045 193.98827,81.3253731 C194.27566,81.6179104 194.56305,81.9104477 194.994135,82.3492537 L199.592375,89.9552239 C197.293255,91.8567164 194.706745,93.319403 191.832845,94.3432836 C188.527859,95.0746268 185.510264,95.6597015 182.492669,95.6597015 Z" id="Path"></path>
                    <path d="M208.645161,38.4686567 C215.973607,31.5940298 224.882698,28.2298507 235.228739,28.2298507 C238.96481,28.2298507 242.269795,28.8149254 245.28739,30.1313433 C248.304985,31.4477612 250.747801,33.0567164 252.759531,35.3970149 C254.771261,37.7373134 256.351906,40.2238806 257.357771,43.441791 C258.363636,46.5134328 258.938417,49.8776119 258.938417,53.680597 L258.938417,94.9283582 L251.897361,94.9283582 C250.460411,94.9283582 249.310851,94.6358209 248.592375,94.1970149 C247.730205,93.7582089 247.155425,92.880597 246.72434,91.5641791 L245.28739,86.8835821 C243.706745,88.3462686 242.1261,89.6626866 240.545455,90.8328358 C238.96481,92.0029851 237.384164,92.880597 235.803519,93.6119403 C234.222874,94.3432836 232.354839,94.9283582 230.486804,95.3671642 C228.618768,95.8059701 226.463343,95.9522388 224.164223,95.9522388 C221.434018,95.9522388 218.991202,95.5134328 216.692082,94.7820895 C214.392962,94.0507463 212.381232,92.880597 210.800587,91.4179104 C209.076246,89.9552239 207.782991,88.0537313 206.920821,85.8597015 C206.058651,83.6656716 205.483871,81.0328358 205.483871,78.1074627 C205.483871,76.4985074 205.771261,74.7432836 206.346041,73.1343283 C206.920821,71.5253731 207.782991,69.9164179 208.932551,68.4537313 C210.225807,66.9910448 211.806452,65.5283582 213.674487,64.2119403 C215.686217,62.8955224 217.985337,61.7253731 220.859238,60.8477612 C223.733138,59.8238806 227.038123,59.0925373 230.774194,58.5074627 C234.510264,57.922388 238.96481,57.4835821 243.706745,57.3373134 L243.706745,53.3880597 C243.706745,49 242.844575,45.7820895 240.97654,43.7343283 C239.108505,41.6865671 236.521994,40.5164179 233.073314,40.5164179 C230.630499,40.5164179 228.475073,40.8089552 226.894428,41.3940298 C225.313783,41.9791045 223.733138,42.7104477 222.583578,43.441791 C221.290323,44.1731343 220.140763,44.9044776 219.134897,45.4895522 C218.129032,46.0746268 216.979472,46.3671642 215.686217,46.3671642 C214.536657,46.3671642 213.674487,46.0746268 212.956012,45.4895522 C212.237537,44.9044776 211.662757,44.319403 211.087977,43.441791 L208.645161,38.4686567 Z M243.994135,66.6985074 C239.53959,66.8447761 235.803519,67.2835821 232.785924,67.8686567 C229.768329,68.4537313 227.325513,69.1850746 225.457478,70.0626866 C223.589443,70.9402985 222.296188,71.9641791 221.577713,73.1343283 C220.715543,74.3044776 220.428153,75.6208955 220.428153,77.0835821 C220.428153,79.8626866 221.290323,81.7641791 222.870968,82.9343283 C224.451613,84.1044776 226.607038,84.6895522 229.193549,84.6895522 C232.354839,84.6895522 235.085044,84.1044776 237.384164,82.9343283 C239.683285,81.7641791 241.982405,80.0089552 244.13783,77.6686567 L244.13783,66.6985074 L243.994135,66.6985074 Z" id="Shape"></path>
                    <path d="M364.697947,48.561194 C364.697947,55.2895522 363.548387,61.5791045 361.392962,67.2835821 C359.237537,72.9880597 356.076246,77.961194 352.052786,82.2029851 C348.029326,86.4447761 343.28739,89.6626866 337.683285,92.0029851 C332.079179,94.3432836 325.756598,95.5134328 319.002933,95.5134328 C312.105572,95.5134328 305.926686,94.3432836 300.322581,92.0029851 C294.718475,89.6626866 289.832845,86.4447761 285.809384,82.2029851 C281.785924,77.961194 278.624634,72.9880597 276.469208,67.2835821 C274.313783,61.5791045 273.164223,55.2895522 273.164223,48.561194 C273.164223,41.8328358 274.313783,35.5432836 276.469208,29.838806 C278.624634,24.1343283 281.785924,19.161194 285.809384,14.919403 C289.832845,10.6776119 294.718475,7.4597015 300.322581,5.11940299 C305.926686,2.77910448 312.249267,1.60895523 319.002933,1.60895523 C323.601173,1.60895523 327.912024,2.19402985 331.935484,3.21791045 C335.958944,4.24179105 339.695015,5.85074627 343,7.75223881 C346.304985,9.65373132 349.466276,12.1402985 352.052786,14.919403 C354.782991,17.6985074 357.082112,20.9164179 358.950147,24.4268657 C360.818182,27.9373134 362.255132,31.7402985 363.260997,35.6895522 C364.123167,39.7850746 364.697947,44.0268657 364.697947,48.561194 Z M347.454546,48.561194 C347.454546,43.441791 346.736071,39.0537313 345.442815,34.9582089 C344.14956,31.0089552 342.281525,27.4985074 339.695015,24.719403 C337.2522,21.9402985 334.234604,19.7462686 330.785924,18.2835821 C327.193549,16.8208955 323.313783,16.0895522 318.859238,16.0895522 C314.404692,16.0895522 310.524927,16.8208955 306.932551,18.2835821 C303.340176,19.7462686 300.466276,21.9402985 297.879766,24.719403 C295.43695,27.4985074 293.42522,30.8626866 292.131965,34.9582089 C290.83871,38.9074627 290.120235,43.441791 290.120235,48.561194 C290.120235,53.680597 290.83871,58.0686567 292.131965,62.1641791 C293.42522,66.1134328 295.43695,69.6238806 297.879766,72.4029851 C300.322581,75.1820895 303.340176,77.3761194 306.932551,78.838806 C310.524927,80.3014925 314.404692,81.0328358 318.859238,81.0328358 C323.313783,81.0328358 327.193549,80.3014925 330.785924,78.838806 C334.378299,77.3761194 337.2522,75.1820895 339.695015,72.4029851 C342.13783,69.6238806 344.005865,66.2597015 345.442815,62.1641791 C346.736071,58.2149254 347.454546,53.680597 347.454546,48.561194 Z" id="Shape"></path>
                    <path d="M394.155425,40.6626866 C396.167156,36.7134328 398.466276,33.641791 401.340176,31.4477612 C404.214076,29.2537313 407.375367,28.0835821 411.111437,28.0835821 C414.129032,28.0835821 416.428153,28.8149254 418.296188,29.9850746 L417.290323,41.6865671 C417.146628,42.4179104 416.715543,43.0029851 416.428153,43.2955224 C415.997068,43.5880597 415.565983,43.7343283 414.847507,43.7343283 C414.272727,43.7343283 413.266862,43.5880597 412.117302,43.441791 C410.967742,43.2955224 409.674487,43.1492537 408.524927,43.1492537 C406.800587,43.1492537 405.363636,43.441791 403.926686,43.880597 C402.489736,44.319403 401.340176,45.0507463 400.334311,46.0746268 C399.328446,47.0985074 398.322581,48.122388 397.460411,49.5850746 C396.598241,50.9014925 395.879766,52.5104477 395.16129,54.2656716 L395.16129,94.4895522 L379.498534,94.4895522 L379.498534,29.2537313 L388.55132,29.2537313 C390.131965,29.2537313 391.281525,29.5462686 391.856305,30.1313433 C392.431085,30.7164179 392.86217,31.7402985 393.14956,33.2029851 L394.155425,40.6626866 Z" id="Path"></path>
                    <path d="M444.16129,37.2985074 C446.747801,34.519403 449.621701,32.3253731 452.782991,30.7164179 C455.944282,29.1074627 459.536657,28.2298507 463.560117,28.2298507 C467.296188,28.2298507 470.601173,28.961194 473.618768,30.4238806 C476.636364,31.8865671 479.079179,34.080597 481.234604,36.8597015 C483.390029,39.638806 484.970675,43.0029851 486.120235,46.9522388 C487.269795,50.9014925 487.844575,55.2895522 487.844575,60.2626866 C487.844575,65.5283582 487.1261,70.3552239 485.97654,74.7432836 C484.683285,79.1313433 482.815249,82.7880597 480.516129,85.8597015 C478.073314,88.9313433 475.199414,91.2716418 471.894428,93.0268657 C468.589443,94.7820895 464.709678,95.5134328 460.686217,95.5134328 C458.674487,95.5134328 456.806452,95.3671642 455.225807,94.9283582 C453.645161,94.4895522 452.064516,93.9044776 450.771261,93.1731343 C449.334311,92.441791 448.184751,91.5641791 447.035191,90.5402985 C445.885631,89.5164179 444.736071,88.3462686 443.730205,87.0298507 L443.01173,91.4179104 C442.72434,92.5880597 442.293255,93.319403 441.718475,93.7582089 C441.143695,94.1970149 440.281525,94.4895522 439.27566,94.4895522 L429.073314,94.4895522 L429.073314,2.44249065e-15 L444.16129,2.44249065e-15 L444.16129,37.2985074 Z M444.16129,77.6686567 C445.885631,79.8626866 447.753666,81.3253731 449.909091,82.2029851 C451.920821,83.080597 454.219941,83.519403 456.375367,83.519403 C458.818182,83.519403 460.829912,83.080597 462.841642,82.2029851 C464.709678,81.3253731 466.290323,80.0089552 467.727273,78.1074627 C469.020528,76.2059701 470.026393,73.8656716 470.744868,71.0865671 C471.463343,68.3074627 471.750733,64.7970149 471.750733,60.8477612 C471.750733,53.680597 470.601173,48.561194 468.302053,45.3432836 C466.002933,42.1253731 462.554252,40.5164179 458.243402,40.5164179 C455.225807,40.5164179 452.639296,41.2477612 450.483871,42.5641791 C448.328446,43.880597 446.173021,45.9283582 444.16129,48.4149254 L444.16129,77.6686567 L444.16129,77.6686567 Z" id="Shape"></path>
                </g>
            </g>
            <g id="XMLID_80_">
                <path d="M131.257744,106.984407 C132.574518,105.933715 132.878389,104.707909 132.371938,102.081181 C131.865486,103.832333 131.156454,104.883024 131.257744,106.984407 Z" id="XMLID_83_"></path>
                <path d="M136.324585,71.2799465 C136.324585,70.2655569 136.629027,69.2511672 135.61422,68.5410945 C135.51274,68.4396555 135.61422,68.1353386 135.51274,67.9324607 C135.309779,67.120949 135.309779,66.3094373 134.903856,65.5993645 C134.396453,64.7878528 134.193492,64.280658 134.903856,63.5705852 C135.106817,63.3677073 135.208298,62.8605125 135.106817,62.5561956 C134.599414,61.338928 134.092011,60.2230994 133.584608,59.1072708 C132.772763,56.9770525 131.859437,54.8468342 132.163879,52.5137381 C132.163879,52.1079822 131.859437,51.6007874 131.554995,51.2964705 C130.438709,50.1806419 128.916499,49.4705691 129.11946,47.5432288 C129.11946,47.4417898 129.01798,47.4417898 129.01798,47.3403509 C127.901693,44.5000598 126.075042,42.1669637 124.349871,39.7324285 C122.929142,37.7036492 121.102491,35.9791868 119.478801,34.0518465 C119.27584,33.8489685 118.971398,33.7475296 118.768437,33.5446517 C118.362514,33.2403348 117.855111,33.0374568 117.550669,32.7331399 C116.941785,32.2259451 116.434382,31.6173113 115.825498,31.1101165 C113.389963,29.0813372 110.447025,27.6611917 107.605568,26.4439241 C105.474475,25.5309734 103.444862,24.5165838 101.313769,23.806511 C99.588598,23.1978773 97.761947,22.8935604 95.9352957,22.4878045 C95.0219701,22.2849266 94.3116057,22.1834876 94.4130863,20.96622 C94.4130863,20.2561473 94.0071638,19.7489525 93.0938382,19.9518304 C92.7893963,20.0532693 92.2819932,19.8503914 91.9775513,19.8503914 C91.3686675,19.8503914 90.7597838,19.6475135 90.2523807,19.7489525 C89.2375744,19.9518304 88.4257294,19.8503914 87.6138844,19.2417576 C86.8020394,18.7345628 86.1931556,18.8360018 85.5842719,19.5460745 C84.8739075,20.4590252 84.6709462,20.3575862 84.1635431,19.3431966 C83.8591012,18.7345628 83.5546593,18.5316849 82.8442949,18.9374407 C82.4383724,19.1403187 81.7280081,19.2417576 81.2206049,19.1403187 C80.5102406,18.8360018 79.9013568,18.9374407 79.292473,19.3431966 C78.9880312,19.5460745 78.2776668,19.8503914 78.0747055,19.6475135 C76.7554574,18.6331238 75.7406511,19.1403187 74.421403,19.7489525 C73.0006742,20.3575862 71.174023,19.9518304 69.5503329,19.9518304 C69.2458911,19.9518304 68.7384879,20.0532693 68.6370073,20.2561473 C68.0281235,21.067659 67.3177592,21.169098 66.4044335,21.169098 C65.3896273,21.169098 64.374821,21.2705369 63.3600148,21.5748538 C61.8378054,22.0820486 60.4170766,22.7921214 58.9963478,23.4007552 C57.9815416,23.806511 56.9667353,24.1108279 55.9519291,24.5165838 C55.3430453,24.7194617 54.6326809,25.0237786 54.2267584,25.5309734 C53.1104715,26.84968 52.5015878,26.84968 51.4867815,25.5309734 C51.3853009,25.4295345 51.2838203,25.4295345 50.9793784,25.3280955 C51.080859,25.7338514 51.080859,26.0381683 51.1823396,26.3424852 C51.2838203,26.6468021 51.3853009,26.84968 51.4867815,27.1539969 C51.1823396,27.2554358 50.8778977,27.3568748 50.5734559,27.2554358 C49.0512465,27.2554358 46.6157115,28.8784593 46.3112696,30.2986048 C46.1083083,31.2115555 45.4994246,31.4144334 44.8905408,31.0086775 C43.9772152,30.4000437 43.3683314,30.7043606 42.8609283,31.4144334 C40.8313158,33.7475296 38.9031839,36.0806258 36.8735714,38.413722 C35.8587651,39.6309895 35.8587651,39.6309895 34.9454395,38.5151609 C34.9454395,38.5151609 34.8439588,38.5151609 34.7424782,38.5151609 C33.4232301,40.3410623 32.2054626,42.1669637 30.8862144,43.8914261 C28.0447569,47.6446678 26.3195862,52.0065432 24.7973769,56.3684187 C23.9855318,58.8029539 23.2751675,61.338928 22.5648031,63.8749021 C22.2603612,65.0921697 21.9559193,66.4108762 21.7529581,67.7295828 C21.5499968,69.2511672 21.1440743,70.6713127 20.1292681,71.7871414 C19.4189037,72.5986531 18.9115005,73.3087258 19.5203843,74.4245544 C19.7233456,74.7288713 19.7233456,75.3375051 19.5203843,75.743261 C18.7085393,78.0763572 19.2159424,80.4094534 19.5203843,82.8439885 C19.6218649,83.4526223 19.8248262,84.162695 20.0277874,84.7713288 C20.4337099,84.264134 20.8396324,83.6555002 21.3470356,83.1483054 C21.5499968,82.8439885 21.8544387,82.6411106 22.0574,82.4382326 C22.2603612,82.7425495 22.5648031,83.0468664 22.5648031,83.4526223 C22.5648031,84.162695 22.3618418,84.9742068 22.4633225,85.7857185 C22.4633225,86.1914743 22.869245,86.9015471 23.1736868,87.0029861 C24.2899737,87.205864 24.2899737,87.9159367 24.0870125,88.6260095 C23.68109,89.944716 23.3766481,91.0605447 24.2899737,92.2778122 C24.492935,92.4806902 24.3914544,92.987885 24.3914544,93.3936408 C24.3914544,94.5094695 24.3914544,95.6252981 24.3914544,96.6396877 C24.3914544,97.1468825 24.3914544,97.7555163 24.5944156,98.2627111 C25.30478,99.9871733 26.2181056,101.610197 26.4210669,103.537537 C26.4210669,103.841854 26.6240281,104.044732 26.7255088,104.349049 C26.92847,104.957683 27.2329119,105.667755 27.3343925,106.276389 C27.5373538,108.10229 28.1462375,109.623875 29.8714082,110.435387 C30.5817725,110.841142 31.0891757,111.551215 30.6832532,112.362727 C30.17585,113.478556 30.7847338,114.087189 31.4950982,114.695823 C32.4084238,115.507335 33.2202688,116.420286 34.1335945,117.231797 C34.4380363,117.536114 34.9454395,117.637553 35.351362,117.94187 C35.351362,117.536114 35.351362,117.130358 35.351362,116.724602 C35.351362,116.420286 35.351362,116.115969 35.4528426,115.811652 C35.7572845,115.913091 36.163207,115.913091 36.4676489,116.01453 C36.6706101,116.115969 36.8735714,116.420286 37.0765326,116.623163 C37.786897,117.637553 38.4972614,118.753382 39.2076258,119.666332 C40.1209514,120.782161 41.034277,121.89799 42.0490833,123.013818 C42.2520445,123.216696 42.657967,123.419574 42.8609283,123.521013 C42.9624089,123.216696 43.2668508,122.81094 43.2668508,122.506623 C43.2668508,122.202307 43.0638895,121.796551 42.8609283,121.492234 C42.5564864,120.8836 42.3535252,120.072088 41.846122,119.666332 C40.7298351,118.753382 40.0194708,117.536114 39.410587,116.318847 C39.410587,116.318847 39.3091064,116.318847 39.3091064,116.217408 C38.4972614,115.405896 37.6854164,114.594384 36.975052,113.782872 C36.7720907,113.579995 36.8735714,113.174239 36.8735714,112.869922 C37.1780132,112.971361 37.5839357,112.971361 37.786897,113.174239 C38.3957807,113.579995 38.9031839,114.087189 39.5120676,114.594384 C39.7150289,114.797262 39.9179901,114.898701 40.0194708,115.101579 C40.7298351,116.115969 41.3387189,117.130358 42.0490833,118.043309 C42.657967,118.854821 43.3683314,119.666332 44.0786958,120.274966 C45.9053471,121.89799 47.9349596,123.419574 49.7616109,125.042598 C50.9793784,126.056987 51.9941846,127.172816 53.2119521,128.085766 C54.6326809,129.201595 56.8652547,129.303034 57.9815416,131.027496 C57.9815416,131.128935 58.0830222,131.128935 58.1845028,131.128935 C60.5185572,131.433252 62.1422472,133.66491 64.6792629,133.360593 C64.8822241,133.360593 65.186666,133.462032 65.2881466,133.563471 C66.2014723,134.476421 67.4192398,134.476421 68.5355267,134.476421 C69.0429298,134.476421 69.5503329,134.476421 69.9562554,134.679299 C73.3051161,135.896567 76.6539768,136.200884 80.2057987,136.099445 C80.8146824,136.099445 81.4235662,136.403762 82.0324499,136.403762 C82.3368918,136.403762 82.9457756,136.302323 83.0472562,136.099445 C83.4531787,135.490811 83.8591012,135.490811 84.467985,135.693689 C84.8739075,135.795128 85.27983,135.795128 85.5842719,135.795128 C86.4975975,135.795128 87.3094425,135.490811 88.2227681,135.693689 C90.3538613,135.998006 92.0790319,135.085055 93.8042026,134.172104 C94.6160476,133.766348 95.6308538,133.66491 96.5441795,133.360593 C97.3560245,133.157715 98.1678695,133.056276 98.9797145,132.853398 C99.588598,132.751959 100.197482,132.447642 100.806366,132.346203 C102.430056,131.940447 104.155226,131.63613 105.778916,131.128935 C107.301126,130.621741 108.721855,129.810229 110.142583,129.100156 C112.172196,128.085766 114.40477,127.071377 116.332902,125.854109 C118.159553,124.738281 119.884723,123.216696 121.609894,121.999429 C122.117297,121.593673 122.827662,121.390795 123.132103,120.985039 C124.451352,119.463454 125.669119,117.738992 126.886887,116.217408 C127.39429,115.507335 127.901693,114.594384 128.612057,114.188628 C129.931305,113.377117 130.64167,112.05841 131.352034,110.841142 C131.656476,110.333948 131.960918,109.725314 132.26536,109.218119 C132.163879,109.11668 132.062399,109.015241 131.859437,108.913802 C131.554995,109.11668 131.047592,109.319558 130.844631,109.623875 C130.032786,110.435387 129.11946,111.246898 128.713538,112.159849 C127.800212,114.290067 125.669119,115.304457 124.14691,116.92748 C123.842468,117.333236 123.436545,117.637553 122.929142,117.840431 C122.726181,117.94187 122.320258,117.840431 122.015817,117.840431 C122.117297,117.536114 122.117297,117.130358 122.218778,116.826041 C122.320258,116.623163 122.52322,116.521724 122.726181,116.420286 C124.451352,114.695823 126.278003,112.971361 128.003174,111.246898 C128.206135,111.04402 128.003174,110.435387 128.003174,110.029631 C127.597251,110.029631 127.089848,109.928192 126.886887,110.13107 C126.075042,110.739704 125.364677,111.449776 124.654313,112.159849 C123.436545,113.579995 121.609894,114.594384 120.595088,116.217408 C120.290646,116.623163 119.783243,117.028919 119.37732,117.333236 C119.174359,117.434675 118.869917,117.536114 118.666956,117.434675 C118.565475,117.333236 118.463995,116.92748 118.565475,116.724602 C119.37732,115.710213 120.189165,114.695823 121.102491,113.681433 C122.52322,112.159849 124.24839,110.841142 125.364677,109.11668 C126.582445,107.087901 127.901693,105.16056 129.322422,103.334659 C130.540189,101.813075 131.554995,100.190051 132.36684,98.4655891 C133.381647,96.3353708 134.092011,94.0022746 135.005337,91.6691784 C135.309779,90.9591057 135.61422,90.3504719 135.918662,89.7418381 C136.020143,89.5389602 136.121624,89.2346433 136.020143,89.0317654 C135.51274,87.8144978 135.918662,86.8001081 136.324585,85.6842795 C136.527546,85.1770847 136.426065,84.4670119 136.527546,83.8583782 C136.629027,82.3367937 136.629027,80.7137702 136.730507,79.1921858 C136.730507,77.4677234 136.831988,75.743261 136.831988,74.1202375 C136.629027,73.2072869 136.223104,72.2943362 136.324585,71.2799465 Z" id="XMLID_124_"></path>
                <g id="XMLID_108_" fill-rule="nonzero">
                    <path d="M155.140214,70.0467726 C154.532472,67.5134393 154.633762,64.8787726 154.228601,62.3454393 C154.02602,60.724106 153.418278,59.204106 153.114407,57.5827726 C152.709246,55.7587726 152.304085,53.9347726 151.797633,52.1107726 C151.291182,50.2867726 150.582149,48.4627726 149.873117,46.6387726 C149.366665,45.3214393 148.961504,43.9027726 147.847311,42.8894393 C147.340859,42.484106 147.138278,41.7747726 146.733117,41.268106 C144.200859,37.2147726 142.377633,32.6547726 139.136343,29.0067726 C135.895053,25.3587726 132.856343,21.4067726 129.108601,18.2654393 C127.994407,17.3534393 126.981504,16.2387726 125.76602,15.3267726 C123.537633,13.8067726 121.207956,12.388106 118.979569,10.9694393 C115.535698,8.74010599 111.889246,6.81477265 107.837633,5.70010599 C106.520859,5.39610599 105.204085,5.29477265 104.089891,4.48410599 C103.887311,4.28143932 103.482149,4.38277265 103.178278,4.38277265 C102.773117,4.28143932 102.367956,4.28143932 101.962794,4.18010599 C100.139569,3.67343932 98.4176332,2.96410599 96.5944074,2.55877265 C94.7711815,2.15343932 92.8466654,1.84943932 91.0234396,1.54543932 C87.9847299,1.14010599 85.0473106,0.734772649 82.0086009,0.430772649 C76.3363428,-0.177227348 70.5627945,-0.278560681 64.8905364,1.03877265 C63.6750525,1.34277265 62.4595686,1.34277265 61.3453751,1.54543932 C60.6363428,1.64677265 60.0286009,1.84943932 59.3195686,1.95077265 C57.2937622,2.45743932 55.2679557,3.06543932 53.2421493,3.57210599 C51.7227945,3.97743932 50.1021493,4.28143932 48.5827945,4.68677265 C48.4815041,4.68677265 48.3802138,4.78810599 48.2789235,4.78810599 C46.860859,5.39610599 45.3415041,6.00410599 43.9234396,6.71343932 C41.9989235,7.62543932 40.0744074,8.63877265 38.2511815,9.75343932 C36.6305364,10.7667726 35.2124719,11.9827726 33.693117,13.0974393 C31.7686009,14.516106 29.8440848,15.8334393 27.9195686,17.252106 C22.5511815,21.204106 17.993117,26.068106 13.9415041,31.3374393 C11.5105364,34.4787726 9.68731057,38.1267726 7.6615041,41.572106 C7.15505249,42.3827726 6.95247184,43.396106 6.54731055,44.308106 C5.93956862,45.828106 5.23053636,47.2467726 4.72408474,48.7667726 C4.21763313,50.084106 4.11634281,51.604106 3.40731055,52.820106 C2.90085894,53.9347726 2.69827829,54.948106 2.69827829,56.0627726 C2.69827829,56.6707726 2.59698797,57.380106 2.49569765,57.988106 C1.88795571,61.028106 1.28021378,63.9667726 0.773762165,67.0067726 C0.469891205,68.8307726 0.0647299096,70.5534393 0.0647299096,72.3774393 C0.0647299096,75.2147726 -0.239141057,77.9507726 0.469891205,80.788106 C1.28021378,83.9294393 1.68537507,87.172106 2.39440732,90.3134393 C2.69827829,91.732106 3.30602023,93.0494393 3.71118152,94.468106 C4.11634281,95.8867726 4.5215041,97.3054393 4.92666539,98.724106 C5.02795571,98.9267726 5.433117,99.028106 5.73698797,99.2307723 C6.04085894,99.4334393 6.44602023,99.6361063 6.54731055,99.9401063 C6.95247184,101.662772 7.56021378,103.284106 8.573117,104.804106 C8.67440732,104.905439 8.67440732,105.108106 8.67440732,105.310772 C8.67440732,106.932106 10.0924719,107.742772 10.7002138,108.958772 C10.7002138,109.060106 10.9027945,109.060106 11.2066654,109.161439 C11.2066654,108.857439 11.2066654,108.654772 11.1053751,108.553439 C10.0924719,106.425439 9.07956862,104.297439 8.573117,101.966772 C8.47182668,101.358772 7.96537507,100.750772 7.76279442,100.041439 C7.25634281,98.3187726 6.85118152,96.6974393 6.44602023,94.9747726 C5.83827829,92.644106 5.12924603,90.212106 4.82537507,87.8814393 C4.62279442,86.4627726 5.12924603,84.8414393 5.33182668,83.3214393 C5.433117,82.4094393 5.63569765,81.5987726 5.63569765,80.6867726 C5.73698797,76.9374393 5.73698797,73.2894393 5.73698797,69.540106 C5.73698797,69.1347726 5.83827829,68.7294393 5.93956862,68.324106 C6.14214926,68.324106 6.24343958,68.324106 6.44602023,68.324106 C6.54731055,68.8307726 6.64860087,69.236106 6.64860087,69.7427726 C6.64860087,73.796106 6.64860087,77.9507726 6.7498912,82.004106 C6.7498912,82.612106 6.95247184,83.1187726 7.05376216,83.7267726 C7.25634281,84.6387726 7.56021378,85.4494393 7.56021378,86.3614393 C7.56021378,88.4894393 8.47182668,90.3134393 9.58602027,92.036106 C10.1937622,92.948106 10.7002138,93.860106 11.1053751,94.772106 C12.2195686,97.3054393 13.1311815,99.8387723 14.3466654,102.270772 C15.3595686,104.297439 16.5750525,106.324106 17.993117,108.249439 C19.8163428,110.782772 21.9434396,113.012106 23.8679557,115.444106 C24.273117,115.950772 24.6782783,116.558772 24.880859,117.166772 C25.2860203,118.686772 25.9950525,120.004106 26.9066654,121.220106 C27.8182783,122.638772 28.7298912,124.158772 29.8440848,125.374772 C31.9711815,127.705439 34.300859,129.934772 36.5292461,132.265439 C39.5679557,135.305439 42.5053751,138.244106 46.4556977,140.169439 C48.0763428,140.980106 49.4944074,141.993439 51.1150525,142.804106 C55.4705364,144.729439 59.7247299,147.060106 64.5866654,147.870772 C64.7892461,147.870772 64.9918267,148.174772 65.2956977,148.174772 C65.9034396,148.377439 66.5111815,148.681439 67.1189235,148.782772 C68.6382783,148.985439 70.1576332,149.086772 71.676988,149.289439 C72.5886009,149.390772 73.6015041,149.694772 74.513117,149.796106 C75.7286009,149.998772 77.0453751,150.100106 78.260859,150.201439 C79.2737622,150.302772 80.1853751,150.708106 81.1982783,150.606772 C84.8447299,150.404106 88.4911815,149.998772 92.1376332,149.694772 C92.4415041,149.694772 92.7453751,149.492106 93.0492461,149.492106 C93.960859,149.289439 94.9737622,148.782772 95.8853751,148.884106 C98.1137622,149.086772 100.038278,148.073439 102.064085,147.566772 C104.900214,146.756106 107.635053,145.540106 110.369891,144.324106 C114.927956,142.297439 119.587311,140.270772 123.436343,137.028106 C127.082794,133.988106 131.336988,131.758772 134.274407,127.806772 C136.604085,124.766772 139.338923,122.132106 141.567311,118.990772 C143.694407,116.052106 145.416343,112.708106 147.340859,109.566772 C147.847311,108.756106 148.455053,107.945439 148.657633,107.033439 C149.062794,104.702772 150.88602,102.878772 150.78473,100.345439 C150.78473,100.244106 150.88602,100.041439 150.88602,99.9401063 C151.595053,97.508106 152.202794,95.1774393 152.911827,92.7454393 C153.013117,92.4414393 153.114407,92.036106 153.215698,91.732106 C153.418278,90.820106 153.82344,89.8067726 153.92473,88.8947726 C154.228601,87.0707726 154.431182,85.1454393 154.633762,83.220106 C154.836343,81.2947726 155.140214,79.3694393 155.140214,77.3427726 C155.545375,74.9107726 155.747956,72.4787726 155.140214,70.0467726 Z M38.3524719,122.334772 C36.6305364,121.422772 35.1111815,120.409439 34.0982783,118.585439 C33.996988,118.281439 34.0982783,117.876106 34.0982783,117.572106 C34.4021493,117.572106 34.8073106,117.470772 35.1111815,117.572106 C36.0227945,117.977439 36.9344074,118.382772 37.0356977,119.598772 C37.0356977,120.004106 37.5421493,120.510772 37.7447299,120.916106 C37.9473106,121.321439 38.2511815,121.625439 38.5550525,122.030772 C38.4537622,122.233439 38.3524719,122.334772 38.3524719,122.334772 Z M61.1427945,139.054772 C60.2311815,138.750772 59.5221493,138.548106 58.813117,138.244106 C56.6860203,137.332106 54.5589235,136.420106 52.4318267,135.305439 C51.2163428,134.697439 50.000859,133.785439 48.8866654,133.076106 C47.7724719,132.366772 46.6582783,131.556106 45.5440848,130.846772 C44.3286009,130.036106 43.113117,129.326772 41.9989235,128.414772 C41.5937622,128.110772 41.3911815,126.996106 41.5937622,126.590772 C41.9989235,125.780106 42.7079557,126.388106 43.2144074,126.793439 C43.9234396,127.401439 44.7337622,128.110772 45.3415041,128.820106 C46.6582783,130.340106 48.4815041,131.150772 50.3047299,132.062772 C52.6344074,133.278772 55.0653751,134.393439 57.3950525,135.609439 C58.7118267,136.318772 60.1298912,136.926772 61.4466654,137.636106 C61.7505364,137.737439 61.953117,138.142772 62.1556977,138.345439 C61.7505364,138.649439 61.4466654,138.852106 61.1427945,139.054772 Z M131.742149,105.614772 C131.539569,104.500106 132.349891,103.790772 132.856343,102.777439 C133.464085,104.297439 133.058923,105.006772 131.742149,105.614772 Z M134.679569,77.748106 C134.679569,79.268106 134.578278,80.8894393 134.476988,82.4094393 C134.476988,83.0174393 134.476988,83.7267726 134.274407,84.2334393 C133.869246,85.348106 133.464085,86.3614393 133.970536,87.5774393 C134.071827,87.780106 133.970536,88.084106 133.869246,88.2867726 C133.565375,88.996106 133.261504,89.604106 132.957633,90.212106 C132.04602,92.4414393 131.336988,94.772106 130.324085,97.0014393 C129.513762,98.724106 128.500859,100.446772 127.285375,101.865439 C125.867311,103.689439 124.550536,105.614772 123.335053,107.641439 C122.322149,109.364106 120.498923,110.681439 119.080859,112.201439 C118.169246,113.214772 117.358923,114.228106 116.548601,115.241439 C116.447311,115.342772 116.548601,115.748106 116.649891,115.950772 C116.751182,116.052106 117.156343,116.052106 117.358923,115.849439 C117.764085,115.545439 118.270536,115.241439 118.574407,114.734772 C119.688601,113.113439 121.410536,112.100106 122.62602,110.681439 C123.233762,109.972106 124.044085,109.262772 124.854407,108.654772 C125.158278,108.452106 125.66473,108.553439 125.968601,108.553439 C125.968601,108.958772 126.171182,109.566772 125.968601,109.769439 C124.246665,111.593439 122.52473,113.214772 120.701504,114.937439 C120.498923,115.038772 120.296343,115.140106 120.195053,115.342772 C120.093762,115.646772 120.093762,115.950772 119.992472,116.356106 C120.296343,116.356106 120.701504,116.457439 120.904085,116.356106 C121.309246,116.153439 121.714407,115.748106 122.119569,115.444106 C123.638923,113.822772 125.66473,112.809439 126.677633,110.681439 C127.082794,109.668106 128.095698,108.958772 128.80473,108.148106 C129.108601,107.844106 129.513762,107.742772 129.817633,107.438772 C129.918923,107.540106 130.020214,107.641439 130.222794,107.742772 C129.918923,108.249439 129.615053,108.857439 129.311182,109.364106 C128.500859,110.580106 127.893117,111.796106 126.576343,112.708106 C125.867311,113.214772 125.360859,114.025439 124.854407,114.734772 C123.638923,116.356106 122.42344,117.977439 121.106665,119.497439 C120.701504,119.902772 120.093762,120.105439 119.587311,120.510772 C117.764085,121.828106 116.14344,123.246772 114.320214,124.361439 C112.395698,125.577439 110.268601,126.590772 108.141504,127.604106 C106.72344,128.313439 105.305375,129.124106 103.78602,129.630772 C102.165375,130.137439 100.44344,130.441439 98.8227945,130.846772 C98.2150525,131.049439 97.6073106,131.252106 96.9995686,131.353439 C96.1892461,131.556106 95.3789235,131.657439 94.5686009,131.860106 C93.656988,132.062772 92.6440848,132.265439 91.8337622,132.670772 C90.0105364,133.582772 88.3898912,134.494772 86.2627945,134.190772 C85.4524719,134.089439 84.540859,134.292106 83.6292461,134.292106 C83.2240848,134.292106 82.8189235,134.292106 82.5150525,134.190772 C81.9073106,133.988106 81.5021493,133.988106 81.096988,134.596106 C80.9956977,134.798772 80.3879557,134.900106 80.0840848,134.900106 C79.4763428,134.900106 78.8686009,134.596106 78.260859,134.596106 C74.7156977,134.697439 71.373117,134.393439 68.0305364,133.177439 C67.6253751,132.974772 67.1189235,132.974772 66.6124719,132.974772 C65.396988,132.974772 64.2827945,132.974772 63.3711815,132.062772 C63.2698912,131.961439 62.9660203,131.860106 62.7634396,131.860106 C60.2311815,132.164106 58.6105364,130.036106 56.280859,129.630772 C56.1795686,129.630772 56.0782783,129.630772 56.0782783,129.529439 C54.9640848,127.806772 52.836988,127.705439 51.3176332,126.590772 C50.1021493,125.678772 49.0892461,124.564106 47.8737622,123.550772 C45.9492461,121.929439 44.0247299,120.409439 42.2015041,118.788106 C41.4924719,118.078772 40.7834396,117.369439 40.1756977,116.558772 C39.4666654,115.646772 38.8589235,114.633439 38.1498912,113.620106 C38.0486009,113.417439 37.7447299,113.316106 37.6434396,113.113439 C37.0356977,112.606772 36.5292461,112.100106 35.9215041,111.694772 C35.6176332,111.492106 35.3137622,111.492106 35.0098912,111.390772 C35.0098912,111.694772 34.9086009,112.100106 35.1111815,112.302772 C35.8202138,113.113439 36.6305364,113.924106 37.440859,114.734772 C37.440859,114.734772 37.5421493,114.734772 37.5421493,114.836106 C38.1498912,116.052106 38.8589235,117.268106 39.973117,118.180106 C40.4795686,118.585439 40.6821493,119.294772 40.9860203,120.004106 C41.1886009,120.308106 41.3911815,120.713439 41.3911815,121.017439 C41.3911815,121.321439 41.0873106,121.726772 40.9860203,122.030772 C40.6821493,121.828106 40.3782783,121.726772 40.1756977,121.524106 C39.2640848,120.409439 38.2511815,119.396106 37.3395686,118.180106 C36.5292461,117.166772 35.9215041,116.153439 35.2124719,115.140106 C35.0098912,114.937439 34.9086009,114.633439 34.6047299,114.532106 C34.300859,114.329439 33.996988,114.329439 33.5918267,114.329439 C33.5918267,114.633439 33.4905364,114.937439 33.4905364,115.241439 C33.4905364,115.646772 33.4905364,116.052106 33.4905364,116.457439 C33.0853751,116.254772 32.5789235,116.052106 32.2750525,115.748106 C31.3634396,114.937439 30.553117,114.025439 29.6415041,113.214772 C28.9324719,112.606772 28.3247299,111.998772 28.8311815,110.884106 C29.2363428,110.073439 28.7298912,109.364106 28.020859,108.958772 C26.2989235,108.046772 25.6911815,106.628106 25.4886009,104.804106 C25.3873106,104.094772 25.0834396,103.486772 24.880859,102.878772 C24.7795686,102.574772 24.576988,102.372106 24.576988,102.068106 C24.3744074,100.142772 23.4627945,98.5214393 22.7537622,96.7987726 C22.5511815,96.292106 22.5511815,95.684106 22.5511815,95.1774393 C22.5511815,94.0627726 22.5511815,92.948106 22.5511815,91.9347726 C22.5511815,91.5294393 22.5511815,91.124106 22.4498912,90.820106 C21.436988,89.604106 21.8421493,88.388106 22.2473106,87.172106 C22.4498912,86.4627726 22.4498912,85.7534393 21.3356977,85.5507726 C21.0318267,85.5507726 20.6266654,84.740106 20.6266654,84.3347726 C20.5253751,83.6254393 20.8292461,82.8147726 20.7279557,82.004106 C20.7279557,81.700106 20.4240848,81.396106 20.2215041,80.9907726 C20.0189235,81.1934393 19.7150525,81.396106 19.5124719,81.700106 C19.1073106,82.2067726 18.7021493,82.7134393 18.1956977,83.3214393 C17.993117,82.7134393 17.7905364,82.004106 17.6892461,81.396106 C17.3853751,79.0654393 16.8789235,76.7347726 17.6892461,74.3027726 C17.7905364,73.8974393 17.8918267,73.3907726 17.6892461,72.9854393 C16.9802138,71.8707726 17.4866654,71.1614393 18.296988,70.3507726 C19.4111815,69.236106 19.8163428,67.8174393 19.9176332,66.2974393 C20.0189235,64.980106 20.3227945,63.6627726 20.7279557,62.4467726 C21.436988,59.9134393 22.1460203,57.380106 22.9563428,54.948106 C24.4756977,50.5907726 26.1976332,46.2334393 29.0337622,42.484106 C30.3505364,40.7614393 31.5660203,38.9374393 32.8827945,37.1134393 C32.8827945,37.1134393 32.9840848,37.1134393 33.0853751,37.1134393 C33.996988,38.228106 33.996988,38.228106 35.0098912,37.012106 C37.0356977,34.6814393 38.9602138,32.3507726 40.9860203,30.020106 C41.5937622,29.3107726 42.2015041,29.108106 43.0118267,29.6147726 C43.6195686,30.020106 44.2273106,29.8174393 44.4298912,28.9054393 C44.8350525,27.4867726 47.1647299,25.8654393 48.6840848,25.8654393 C48.9879557,25.8654393 49.2918267,25.764106 49.5956977,25.764106 C49.4944074,25.460106 49.393117,25.2574393 49.2918267,24.9534393 C49.1905364,24.6494393 49.1905364,24.3454393 49.0892461,23.940106 C49.393117,24.0414393 49.4944074,24.0414393 49.5956977,24.1427726 C50.6086009,25.5614393 51.2163428,25.460106 52.3305364,24.1427726 C52.7356977,23.636106 53.4447299,23.4334393 54.0524719,23.1294393 C55.0653751,22.724106 56.0782783,22.420106 57.0911815,22.0147726 C58.5092461,21.4067726 59.9273106,20.6974393 61.4466654,20.1907726 C62.3582783,19.8867726 63.4724719,19.7854393 64.4853751,19.7854393 C65.396988,19.7854393 66.1060203,19.684106 66.7137622,18.8734393 C66.9163428,18.6707726 67.3215041,18.5694393 67.6253751,18.5694393 C69.2460203,18.468106 71.1705364,18.9747726 72.4873106,18.3667726 C73.9053751,17.7587726 74.816988,17.252106 76.1337622,18.2654393 C76.3363428,18.468106 77.0453751,18.164106 77.3492461,17.9614393 C77.956988,17.556106 78.5647299,17.556106 79.2737622,17.7587726 C79.7802138,17.9614393 80.3879557,17.860106 80.8944074,17.556106 C81.6034396,17.252106 81.9073106,17.3534393 82.2111815,17.9614393 C82.7176332,18.9747726 82.9202138,18.9747726 83.6292461,18.164106 C84.236988,17.4547726 84.8447299,17.252106 85.6550525,17.860106 C86.4653751,18.3667726 87.2756977,18.5694393 88.2886009,18.3667726 C88.7950525,18.2654393 89.4027945,18.3667726 90.0105364,18.468106 C90.4156977,18.468106 90.820859,18.6707726 91.1247299,18.5694393 C92.0363428,18.3667726 92.4415041,18.772106 92.4415041,19.5827726 C92.4415041,20.7987726 93.1505364,20.900106 93.960859,21.1027726 C95.7840848,21.508106 97.6073106,21.812106 99.3292461,22.420106 C101.456343,23.1294393 103.58344,24.1427726 105.609246,25.0547726 C108.546665,26.2707726 111.382794,27.6894393 113.813762,29.716106 C114.421504,30.2227726 114.927956,30.8307726 115.535698,31.3374393 C115.940859,31.6414393 116.34602,31.844106 116.751182,32.148106 C116.953762,32.3507726 117.257633,32.452106 117.460214,32.6547726 C119.080859,34.4787726 120.802794,36.3027726 122.322149,38.3294393 C124.044085,40.7614393 125.867311,43.092106 126.981504,45.9294393 C126.981504,46.0307726 127.082794,46.0307726 127.082794,46.132106 C126.880214,48.0574393 128.500859,48.7667726 129.513762,49.8814393 C129.817633,50.1854393 130.121504,50.692106 130.121504,51.0974393 C129.817633,53.5294393 130.729246,55.556106 131.539569,57.684106 C132.04602,58.900106 132.552472,60.0147726 133.058923,61.1294393 C133.160214,61.4334393 133.058923,61.940106 132.856343,62.1427726 C132.147311,62.852106 132.349891,63.3587726 132.856343,64.1694393 C133.261504,64.7774393 133.362794,65.6894393 133.464085,66.500106 C133.565375,66.7027726 133.464085,67.0067726 133.565375,67.108106 C134.578278,67.9187726 134.274407,68.8307726 134.274407,69.844106 C134.274407,70.8574393 134.679569,71.7694393 134.679569,72.7827726 C134.780859,74.404106 134.780859,76.0254393 134.679569,77.748106 Z" id="XMLID_117_" fill="url(#linearGradient-1)"></path>
                    <path d="M30.2492461,106.729439 C30.1479557,106.526772 29.7427945,106.425439 29.5402138,106.222772 C29.5402138,106.526772 29.3376332,106.932106 29.4389235,107.236106 C30.3505364,109.262772 31.3634396,111.188106 32.2750525,113.214772 C32.3763428,113.417439 32.6802138,113.620106 32.7815041,113.620106 C32.9840848,113.518772 33.0853751,113.214772 33.1866654,113.214772 C32.7815041,112.100106 32.4776332,111.188106 32.0724719,110.276106 C31.5660203,108.958772 30.9582783,107.844106 30.2492461,106.729439 Z" id="XMLID_112_" fill="url(#linearGradient-2)"></path>
                    <path d="M20.5253751,79.572106 C20.6266654,79.6734393 21.2344074,79.4707726 21.2344074,79.3694393 C21.2344074,78.2547726 21.133117,77.0387726 21.0318267,75.7214393 C20.0189235,76.532106 19.8163428,78.964106 20.5253751,79.572106 Z" id="XMLID_111_" fill="url(#linearGradient-3)"></path>
                    <path d="M114.725375,120.612106 C114.624085,120.713439 114.826665,121.118772 114.927956,121.321439 C115.029246,121.321439 115.130536,121.422772 115.333117,121.422772 C115.940859,120.713439 116.548601,120.004106 117.257633,119.396106 C117.055053,119.193439 116.649891,118.889439 116.548601,118.990772 C115.839569,119.396106 115.231827,120.004106 114.725375,120.612106 Z" id="XMLID_110_" fill="url(#linearGradient-4)"></path>
                    <path d="M110.775053,122.638772 C110.977633,122.841439 111.180214,123.145439 111.382794,123.145439 C111.585375,123.145439 111.889246,122.942772 112.395698,122.638772 C111.889246,122.436106 111.686665,122.132106 111.484085,122.233439 C111.180214,122.233439 110.977633,122.436106 110.775053,122.638772 Z" id="XMLID_109_" fill="url(#linearGradient-5)"></path>
                </g>
            </g>
        </g>
    </g>
</svg>