<svg width="100" height="100" viewBox="0 0 100 100" fill="none" xmlns="http://www.w3.org/2000/svg">
<path d="M2.86865 56.0739C2.86865 51.2059 3.82486 46.8885 5.73728 43.1216C7.70765 39.3547 10.3735 36.4571 13.7347 34.4288C17.0959 32.4004 20.8338 31.3863 24.9484 31.3863C28.0778 31.3863 31.0624 32.0817 33.902 33.4726C36.7417 34.8055 39.0018 36.602 40.6824 38.8621V16H53.0262V80.3268H40.6824V73.1987C39.1756 75.5748 37.0604 77.4872 34.3366 78.936C31.6129 80.3848 28.4545 81.1092 24.8615 81.1092C20.8048 81.1092 17.0959 80.0661 13.7347 77.9798C10.3735 75.8935 7.70765 72.9669 5.73728 69.2C3.82486 65.3752 2.86865 60.9998 2.86865 56.0739ZM40.7693 56.2477C40.7693 53.2922 40.1898 50.7713 39.0308 48.685C37.8717 46.5408 36.307 44.9181 34.3366 43.817C32.3663 42.658 30.251 42.0784 27.9909 42.0784C25.7308 42.0784 23.6445 42.629 21.7321 43.7301C19.8196 44.8312 18.2549 46.4538 17.0379 48.5981C15.8789 50.6843 15.2994 53.1763 15.2994 56.0739C15.2994 58.9715 15.8789 61.5214 17.0379 63.7236C18.2549 65.8678 19.8196 67.5194 21.7321 68.6785C23.7024 69.8375 25.7887 70.417 27.9909 70.417C30.251 70.417 32.3663 69.8665 34.3366 68.7654C36.307 67.6064 37.8717 65.9837 39.0308 63.8974C40.1898 61.7532 40.7693 59.2033 40.7693 56.2477Z" fill="#231F20"/>
<path fill-rule="evenodd" clip-rule="evenodd" d="M75.2255 80.523C88.9081 80.523 100 69.4311 100 55.7485C100 42.0659 88.9081 30.9739 75.2255 30.9739C67.749 30.9739 61.0459 34.2858 56.5034 39.5226V71.9743C61.0459 77.2111 67.749 80.523 75.2255 80.523Z" fill="#231F20"/>
</svg>
