<svg width="144" height="32" viewBox="0 0 144 32" fill="#FFFFFF" xmlns="http://www.w3.org/2000/svg">
<path d="M0.917969 17.9438C0.917969 16.386 1.22396 15.0044 1.83593 13.799C2.46645 12.5936 3.3195 11.6664 4.3951 11.0173C5.47069 10.3683 6.66682 10.0437 7.98349 10.0437C8.9849 10.0437 9.93995 10.2663 10.8486 10.7113C11.7573 11.1379 12.4806 11.7127 13.0184 12.436V5.12012H16.9684V25.7047H13.0184V23.4237C12.5362 24.184 11.8593 24.796 10.9877 25.2596C10.1161 25.7232 9.10544 25.9551 7.95567 25.9551C6.65755 25.9551 5.47069 25.6213 4.3951 24.9536C3.3195 24.286 2.46645 23.3495 1.83593 22.1441C1.22396 20.9202 0.917969 19.5201 0.917969 17.9438ZM13.0462 17.9994C13.0462 17.0536 12.8607 16.2469 12.4898 15.5793C12.119 14.8932 11.6182 14.3739 10.9877 14.0216C10.3572 13.6507 9.68033 13.4652 8.95709 13.4652C8.23384 13.4652 7.56623 13.6414 6.95426 13.9937C6.34229 14.3461 5.84158 14.8653 5.45214 15.5515C5.08125 16.2191 4.8958 17.0165 4.8958 17.9438C4.8958 18.871 5.08125 19.687 5.45214 20.3917C5.84158 21.0778 6.34229 21.6063 6.95426 21.9772C7.58478 22.3481 8.25239 22.5336 8.95709 22.5336C9.68033 22.5336 10.3572 22.3574 10.9877 22.005C11.6182 21.6341 12.119 21.1149 12.4898 20.4473C12.8607 19.7611 13.0462 18.9452 13.0462 17.9994Z" fill="#FFFFFF"/>
<path fill-rule="evenodd" clip-rule="evenodd" d="M24.0722 25.7678C28.4506 25.7678 32 22.2184 32 17.84C32 13.4615 28.4506 9.91211 24.0722 9.91211C21.6796 9.91211 19.5346 10.9719 18.0811 12.6477V23.0322C19.5346 24.708 21.6796 25.7678 24.0722 25.7678Z" fill="#FFFFFF"/>
<path d="M39.3471 17.4828C39.3471 16.0663 39.6372 14.8119 40.2175 13.7196C40.8148 12.6273 41.617 11.7825 42.6239 11.1852C43.6479 10.5708 44.7828 10.2636 46.0287 10.2636C46.9503 10.2636 47.8548 10.4684 48.7423 10.878C49.6468 11.2705 50.3636 11.7996 50.8927 12.4652V5.65561H53.8367V24.5996H50.8927V22.4748C50.4148 23.1575 49.7492 23.7207 48.8959 24.1644C48.0596 24.6081 47.0954 24.83 46.0031 24.83C44.7743 24.83 43.6479 24.5228 42.6239 23.9084C41.617 23.2769 40.8148 22.4065 40.2175 21.2972C39.6372 20.1708 39.3471 18.8993 39.3471 17.4828ZM50.8927 17.534C50.8927 16.5612 50.6879 15.7164 50.2783 14.9996C49.8858 14.2828 49.3652 13.7367 48.7167 13.3612C48.0682 12.9857 47.3684 12.798 46.6175 12.798C45.8666 12.798 45.1668 12.9857 44.5183 13.3612C43.8698 13.7196 43.3407 14.2572 42.9311 14.974C42.5386 15.6737 42.3423 16.51 42.3423 17.4828C42.3423 18.4556 42.5386 19.3089 42.9311 20.0428C43.3407 20.7767 43.8698 21.3399 44.5183 21.7324C45.1839 22.1079 45.8836 22.2956 46.6175 22.2956C47.3684 22.2956 48.0682 22.1079 48.7167 21.7324C49.3652 21.3569 49.8858 20.8108 50.2783 20.094C50.6879 19.3601 50.8927 18.5068 50.8927 17.534ZM56.6971 17.4828C56.6971 16.0663 56.9872 14.8119 57.5675 13.7196C58.1648 12.6273 58.967 11.7825 59.9739 11.1852C60.9979 10.5708 62.1243 10.2636 63.3531 10.2636C64.4624 10.2636 65.4267 10.4855 66.2459 10.9292C67.0822 11.3559 67.7478 11.8935 68.2427 12.542V10.494H71.1867V24.5996H68.2427V22.5004C67.7478 23.166 67.0736 23.7207 66.2203 24.1644C65.367 24.6081 64.3942 24.83 63.3019 24.83C62.0902 24.83 60.9808 24.5228 59.9739 23.9084C58.967 23.2769 58.1648 22.4065 57.5675 21.2972C56.9872 20.1708 56.6971 18.8993 56.6971 17.4828ZM68.2427 17.534C68.2427 16.5612 68.0379 15.7164 67.6283 14.9996C67.2358 14.2828 66.7152 13.7367 66.0667 13.3612C65.4182 12.9857 64.7184 12.798 63.9675 12.798C63.2166 12.798 62.5168 12.9857 61.8683 13.3612C61.2198 13.7196 60.6907 14.2572 60.2811 14.974C59.8886 15.6737 59.6923 16.51 59.6923 17.4828C59.6923 18.4556 59.8886 19.3089 60.2811 20.0428C60.6907 20.7767 61.2198 21.3399 61.8683 21.7324C62.5339 22.1079 63.2336 22.2956 63.9675 22.2956C64.7184 22.2956 65.4182 22.1079 66.0667 21.7324C66.7152 21.3569 67.2358 20.8108 67.6283 20.094C68.0379 19.3601 68.2427 18.5068 68.2427 17.534ZM78.4247 12.8748V20.6828C78.4247 21.2119 78.5442 21.5959 78.7831 21.8348C79.0391 22.0567 79.4658 22.1676 80.0631 22.1676H81.8551V24.5996H79.5511C78.237 24.5996 77.23 24.2924 76.5303 23.678C75.8306 23.0636 75.4807 22.0652 75.4807 20.6828V12.8748H73.8167V10.494H75.4807V6.98681H78.4247V10.494H81.8551V12.8748H78.4247ZM83.5721 17.4828C83.5721 16.0663 83.8622 14.8119 84.4425 13.7196C85.0398 12.6273 85.842 11.7825 86.8489 11.1852C87.8729 10.5708 88.9993 10.2636 90.2281 10.2636C91.3374 10.2636 92.3017 10.4855 93.1209 10.9292C93.9572 11.3559 94.6228 11.8935 95.1177 12.542V10.494H98.0617V24.5996H95.1177V22.5004C94.6228 23.166 93.9486 23.7207 93.0953 24.1644C92.242 24.6081 91.2692 24.83 90.1769 24.83C88.9652 24.83 87.8558 24.5228 86.8489 23.9084C85.842 23.2769 85.0398 22.4065 84.4425 21.2972C83.8622 20.1708 83.5721 18.8993 83.5721 17.4828ZM95.1177 17.534C95.1177 16.5612 94.9129 15.7164 94.5033 14.9996C94.1108 14.2828 93.5902 13.7367 92.9417 13.3612C92.2932 12.9857 91.5934 12.798 90.8425 12.798C90.0916 12.798 89.3918 12.9857 88.7433 13.3612C88.0948 13.7196 87.5657 14.2572 87.1561 14.974C86.7636 15.6737 86.5673 16.51 86.5673 17.4828C86.5673 18.4556 86.7636 19.3089 87.1561 20.0428C87.5657 20.7767 88.0948 21.3399 88.7433 21.7324C89.4089 22.1079 90.1086 22.2956 90.8425 22.2956C91.5934 22.2956 92.2932 22.1079 92.9417 21.7324C93.5902 21.3569 94.1108 20.8108 94.5033 20.094C94.9129 19.3601 95.1177 18.5068 95.1177 17.534ZM108.013 24.83C106.682 24.83 105.479 24.5313 104.404 23.934C103.329 23.3196 102.484 22.4663 101.869 21.374C101.255 20.2647 100.948 18.9847 100.948 17.534C100.948 16.1004 101.263 14.8289 101.895 13.7196C102.526 12.6103 103.388 11.7569 104.481 11.1596C105.573 10.5623 106.793 10.2636 108.141 10.2636C109.49 10.2636 110.71 10.5623 111.802 11.1596C112.894 11.7569 113.756 12.6103 114.388 13.7196C115.019 14.8289 115.335 16.1004 115.335 17.534C115.335 18.9676 115.011 20.2391 114.362 21.3484C113.714 22.4577 112.826 23.3196 111.7 23.934C110.59 24.5313 109.362 24.83 108.013 24.83ZM108.013 22.2956C108.764 22.2956 109.464 22.1164 110.113 21.758C110.778 21.3996 111.316 20.862 111.725 20.1452C112.135 19.4284 112.34 18.558 112.34 17.534C112.34 16.51 112.143 15.6481 111.751 14.9484C111.358 14.2316 110.838 13.694 110.189 13.3356C109.541 12.9772 108.841 12.798 108.09 12.798C107.339 12.798 106.639 12.9772 105.991 13.3356C105.359 13.694 104.856 14.2316 104.481 14.9484C104.105 15.6481 103.917 16.51 103.917 17.534C103.917 19.0529 104.301 20.2305 105.069 21.0668C105.854 21.886 106.836 22.2956 108.013 22.2956ZM121.138 12.542C121.565 11.8252 122.128 11.2705 122.828 10.878C123.545 10.4684 124.39 10.2636 125.362 10.2636V13.2844H124.62C123.476 13.2844 122.606 13.5745 122.009 14.1548C121.428 14.7351 121.138 15.742 121.138 17.1756V24.5996H118.22V10.494H121.138V12.542ZM130.963 12.5932C131.458 11.9105 132.132 11.3559 132.986 10.9292C133.856 10.4855 134.82 10.2636 135.879 10.2636C137.124 10.2636 138.251 10.5623 139.258 11.1596C140.265 11.7569 141.058 12.6103 141.639 13.7196C142.219 14.8119 142.509 16.0663 142.509 17.4828C142.509 18.8993 142.219 20.1708 141.639 21.2972C141.058 22.4065 140.256 23.2769 139.232 23.9084C138.225 24.5228 137.107 24.83 135.879 24.83C134.786 24.83 133.813 24.6167 132.96 24.19C132.124 23.7633 131.458 23.2172 130.963 22.5516V24.5996H128.045V5.65561H130.963V12.5932ZM139.539 17.4828C139.539 16.51 139.335 15.6737 138.925 14.974C138.532 14.2572 138.003 13.7196 137.338 13.3612C136.689 12.9857 135.989 12.798 135.239 12.798C134.505 12.798 133.805 12.9857 133.139 13.3612C132.491 13.7367 131.962 14.2828 131.552 14.9996C131.16 15.7164 130.963 16.5612 130.963 17.534C130.963 18.5068 131.16 19.3601 131.552 20.094C131.962 20.8108 132.491 21.3569 133.139 21.7324C133.805 22.1079 134.505 22.2956 135.239 22.2956C135.989 22.2956 136.689 22.1079 137.338 21.7324C138.003 21.3399 138.532 20.7767 138.925 20.0428C139.335 19.3089 139.539 18.4556 139.539 17.4828Z" fill="#FFFFFF"/>
</svg>
