<?xml version="1.0" encoding="UTF-8"?>
<svg width="1123px" height="883px" viewBox="0 0 1123 883" version="1.1" xmlns="http://www.w3.org/2000/svg" xmlns:xlink="http://www.w3.org/1999/xlink">
    <title>Signup image-new</title>
    <defs>
        <linearGradient x1="49.9847708%" y1="99.9903132%" x2="49.9847708%" y2="0.00514707522%" id="linearGradient-1">
            <stop stop-color="#808080" stop-opacity="0.25" offset="0%"></stop>
            <stop stop-color="#808080" stop-opacity="0.12" offset="54%"></stop>
            <stop stop-color="#808080" stop-opacity="0.1" offset="100%"></stop>
        </linearGradient>
    </defs>
    <g id="Signup-image-new" stroke="none" stroke-width="1" fill="none" fill-rule="evenodd">
        <g id="undraw_press_play_bx2d" transform="translate(43.000000, 36.000000)" fill-rule="nonzero">
            <path d="M330.70735,32.2288367 C362.426506,3.94875888 412.231146,-1.79385992 457.553059,0.433080224 C599.928582,7.51598707 728.443721,76.272764 839.605039,154.05071 C879.846528,182.207069 919.469711,212.549129 945.593187,251.324693 C998.767601,330.267659 983.000769,439.614544 909.051235,504.639134 C883.89644,526.764197 853.403593,543.723996 822.086337,558.766152 C766.438694,585.499743 706.349546,606.954662 643.168861,613.068438 C598.104576,617.419219 552.483815,613.88292 507.697768,607.800075 C382.531793,590.829966 259.705081,553.250351 156.746637,489.040243 C111.589606,460.863265 69.0191596,425.840507 50.4081148,380.250094 C31.79707,334.65968 43.7097875,276.944815 89.8664152,249.932856 C108.94119,238.777535 131.746419,233.73599 154.067306,229.003742 C186.930331,222.034244 220.318916,215.167845 249.966743,201.012342 C280.593557,186.382582 316.867575,158.092194 310.766945,125.750013 C304.212889,90.9850028 299.06033,60.4367452 330.70735,32.2288367 Z" id="Path" fill="#F5DF00"></path>
            <circle id="Oval" fill="#F5DF00" opacity="0.1" cx="180" cy="134" r="32"></circle>
            <circle id="Oval" fill="#F5DF00" opacity="0.1" cx="112" cy="56" r="20"></circle>
            <circle id="Oval" fill="#F5DF00" opacity="0.1" cx="953" cy="117" r="12"></circle>
            <ellipse id="Oval" fill="#F5DF00" opacity="0.1" cx="711.5" cy="812.5" rx="86.5" ry="8.5"></ellipse>
            <polygon id="Path" fill="#5F5D7E" points="220 502 219.617241 522.527066 216.555172 688.914628 190.341379 749.971074 100 751 100 511.455826 194.282759 504.026983"></polygon>
            <polygon id="Path" fill="#000000" opacity="0.1" points="220 502 219.617241 522.527066 216.555172 688.914628 190.341379 749.971074 100 751 100 511.455826 194.282759 504.026983"></polygon>
            <polygon id="Path" fill="#5F5D7E" points="220 502 219.612836 522.612241 216.515521 689.690207 190 751 196.979421 523.004855 196.958493 522.860207 193.986746 504.035394"></polygon>
            <polygon id="Path" fill="#000000" opacity="0.1" points="194.282759 503.04049 220 501 219.617241 521.663842 197.22069 521.912429 100 523 100 510.518832"></polygon>
            <polygon id="Path" fill="#5F5D7E" points="1029 511.751256 1029 750 1008.20409 750 925 688.932484 925 505.030021 999.335399 498 1003.89761 500.110036 1008.20409 502.10685"></polygon>
            <rect id="Rectangle" fill="#000000" opacity="0.1" x="1009" y="500" width="22" height="251"></rect>
            <polygon id="Path" fill="#000000" opacity="0.1" points="1029 500.113402 1029 513.835052 1008.20409 514.072165 925 515 925 505.041237 999.335399 498 1003.89761 500.113402 1008.20409 502.113402 1008.20409 500.113402"></polygon>
            <polygon id="Path" fill="#5F5D7E" points="1029 492.387755 1029 511.632653 0 523 0 498.510204 96.8228228 479.122449 939.387387 473"></polygon>
            <polygon id="Path" fill="#000000" opacity="0.1" points="1029 492 1029 511.488667 0 523 0 498.2"></polygon>
            <rect id="Rectangle" fill="#474157" x="375" y="200" width="361" height="281" rx="22.82"></rect>
            <rect id="Rectangle" fill="#EDEDF4" x="407" y="226" width="303" height="229"></rect>
            <circle id="Oval" fill="#E6E8EC" cx="394" cy="340" r="5"></circle>
            <circle id="Oval" fill="#E6E8EC" cx="721" cy="341" r="8"></circle>
            <path d="M590.920048,341.541892 L552.246179,318.035255 C550.611676,317.130135 548.620751,317.15522 547.009571,318.101233 C545.398392,319.047247 544.406382,320.77361 544.40035,322.64198 L544.40035,368.359613 C544.406382,370.227983 545.398392,371.954346 547.009571,372.90036 C548.620751,373.846373 550.611676,373.871458 552.246179,372.966338 L590.920048,350.775908 C592.588957,349.838353 593.621995,348.073128 593.621995,346.1589 C593.621995,344.244673 592.588957,342.479447 590.920048,341.541892 L590.920048,341.541892 Z M620,345.500797 C620,323.457926 606.721695,303.585539 586.356739,295.150098 C565.991782,286.714657 542.550703,291.377377 526.96404,306.96404 C511.377377,322.550703 506.714657,345.991782 515.150098,366.356739 C523.585539,386.721695 543.457926,400 565.500797,400 C595.599875,400 620,375.599875 620,345.500797 Z M521.551815,345.500797 C521.551815,321.228445 541.228445,301.551816 565.500797,301.551816 C589.773148,301.551816 609.449777,321.228445 609.449777,345.500797 C609.449777,369.773148 589.773148,389.449778 565.500797,389.449778 C553.843966,389.452505 542.663786,384.823056 534.421162,376.580432 C526.178537,368.337807 521.549088,357.157627 521.551815,345.500797 L521.551815,345.500797 Z" id="Shape" fill="#F5DF00"></path>
            <path d="M827.845615,524.370987 C827.639648,523.110619 827.247684,521.887925 826.68258,520.74301 C827.464798,518.073562 827.969123,516.434789 827.969123,516.434789 C827.969123,516.434789 827.969123,516.043132 827.845615,515.404114 C826.576748,507.593658 819.740425,501.923234 811.84102,502.129019 C805.665613,502.242393 793.952925,502.654663 780.963987,504.118222 C781.705036,498.913313 782.590178,492.688036 783.516488,486.277237 L785.214725,486.462758 C785.605834,486.462758 786.017528,486.462758 786.429222,486.524599 L786.974716,486.524599 C788.328564,486.609479 789.667146,486.199285 790.741714,485.370243 C791.27653,484.849314 791.51475,484.094475 791.376006,483.360382 C791.237261,482.626288 790.740055,482.010835 790.052127,481.721653 C793.13604,482.029144 796.166722,480.757809 798.111033,478.341039 C799.90165,475.831907 799.90165,472.460477 798.111033,469.951344 C795.939348,466.859319 791.33867,464.797969 791.091654,461.159686 C790.957853,459.098336 792.337027,457.243121 793.417724,455.418826 C798.770972,446.058344 797.225349,434.270705 789.640433,426.611459 C788.191877,425.172572 786.666364,423.813516 785.070632,422.540292 C782.806317,414.212438 780.439078,406.770964 779.739198,406.533909 C778.833472,406.235013 777.279328,404.27673 775.79723,402.59673 C775.932836,401.179624 775.908668,399.751733 775.725184,398.340042 C774.634195,391.125317 767.491309,385.971942 763.559633,379.60237 C759.627958,373.232798 758.917786,365.430588 759.926436,358.133409 C760.935085,350.836229 763.477294,343.776105 765.546056,336.654141 C767.089907,331.366778 768.37645,325.749599 766.647336,320.503463 C765.422547,316.762112 762.75683,313.525793 760.008774,310.485301 C753.411382,303.177815 745.805339,296.334133 736.418722,291.93315 C729.894004,288.853149 722.747556,287.322395 715.535555,287.460021 L715.463509,287.460021 L714.331351,287.521861 L713.528548,287.573395 L712.725745,287.655849 L711.871481,287.738303 L711.871481,287.738303 C710.996631,287.851677 710.132075,287.985665 709.267518,288.16088 C702.998204,286.765123 696.597534,286.046415 690.175219,286.017076 L689.341539,286.017076 C687.43664,285.904283 685.540414,286.352132 683.886597,287.305419 C681.601697,288.902966 681.313511,291.768242 680.623924,294.262476 C679.385308,298.436704 676.773742,302.068955 673.213436,304.569226 C670.753566,306.341988 667.861417,307.661252 665.514763,309.516467 C663.168108,311.371682 661.336071,314.154504 661.963904,316.8961 C662.488813,319.194505 664.629621,320.905426 667.110076,321.946408 C666.811598,322.317451 666.502828,322.678187 666.214642,323.059537 C666.698382,323.255365 667.243876,323.43058 667.686447,323.574874 C670.77415,324.492175 674.098578,324.605549 677.22745,325.440396 C678.088778,325.671184 678.934477,325.956921 679.759367,326.295856 C676.976237,331.538151 675.52351,337.38551 675.529213,343.322608 C675.553213,356.752973 682.90472,369.096437 694.693558,375.500283 C694.693558,375.850713 694.693558,376.190835 694.693558,376.530958 C695.012621,387.291206 694.199526,400.380779 688.703414,402.59673 C683.207302,404.812681 677.947914,407.317222 674.705826,408.935382 L673.676592,409.481639 C672.822327,409.089983 671.968062,408.677713 671.134383,408.244829 C671.134383,408.244829 666.760136,407.729492 667.52177,411.068879 C667.52177,411.068879 654.296107,409.007529 647.040005,414.665935 C639.783902,420.324341 627.87566,432.135877 625.539298,435.217595 C623.202936,438.299314 605.139872,445.039928 605.139872,445.039928 C605.139872,445.039928 610.831538,437.07281 608.371668,427.312318 C608.371668,427.312318 605.654489,415.542009 606.951324,410.821517 C608.24816,406.101025 611.613756,388.579549 611.613756,388.579549 C611.613756,388.579549 612.087204,370.089239 602.010999,361.606783 C591.934794,353.124328 584.925708,346.146658 588.816214,354.392058 C590.516578,358.171901 592.420015,361.856801 594.518173,365.430588 C594.518173,365.430588 570.423795,371.161141 578.976733,380.107401 C587.529671,389.05366 589.855741,389.063967 589.855741,389.063967 C589.855741,389.063967 587.004761,411.151333 586.479852,415.263726 C585.954942,419.37612 581.33368,450.708641 581.33368,450.708641 C581.33368,450.708641 581.076371,465.612202 583.670042,467.920914 C583.670042,467.920914 585.368279,477.516499 596.103194,477.19699 C596.103194,477.19699 616.564374,476.681652 622.266332,474.37294 C627.968291,472.064228 647.647253,459.727048 649.726307,460.500054 C649.877059,460.560837 650.013698,460.652056 650.127708,460.76803 C650.238212,460.863215 650.341426,460.966573 650.436478,461.077232 C648.37801,465.643122 643.499438,481.144475 645.578492,488.761164 C645.578492,488.761164 643.767039,510.333192 654.646047,517.269635 C654.646047,517.269635 670.444795,543.984733 664.485528,558.362649 C664.01208,559.527312 663.590094,560.599214 663.198985,561.640196 C654.152015,554.126575 640.349981,547.210746 619.27126,543.386941 C617.12016,542.995285 614.979353,542.521174 612.85913,542.005837 C606.868986,540.552585 590.390943,539.223014 582.548176,565.309399 C580.719178,571.373305 578.392023,577.275178 575.590552,582.954556 C572.502848,589.210754 569.075498,598.177626 569.003451,607.072352 C568.828481,619.54352 575.261197,631.901314 598.604233,636.436284 C598.861542,645.71236 599.921653,656.761196 603.091695,664.707701 C609.56558,680.889299 619.92997,707.089058 619.92997,707.089058 C619.92997,707.089058 632.363122,733.804156 633.14534,744.585017 C633.649665,751.645141 634.390714,760.900603 633.876097,767.259868 C633.876097,767.651524 633.814343,768.022567 633.773173,768.39361 C632.706566,769.546526 631.542649,770.605173 630.294361,771.557782 C628.482908,772.588458 622.523641,779.009563 622.523641,780.545269 C622.536291,782.016959 622.667082,783.485248 622.91475,784.935945 C620.094648,787.399258 618.550796,790.08932 618.550796,792.769075 C618.550796,806.703802 658.042521,818 706.756186,818 C755.469851,818 794.951283,806.662575 794.951283,792.769075 C794.951283,780.050545 762.015782,769.537659 719.220214,767.806125 C728.143677,764.23999 736.068782,760.498639 739.35204,757.499375 C740.056653,756.949635 740.594742,756.214526 740.906184,755.376184 L732.620847,736.112868 C732.620847,736.112868 731.972429,736.257162 731.015241,736.535444 L730.43887,735.669677 C726.75421,730.052498 719.662785,718.859367 719.662785,715.818876 C719.662785,714.69544 717.789579,707.511635 715.0724,697.668689 L715.0724,666.078498 C742.100096,670.201199 776.929388,664.594326 776.929388,664.594326 L777.083773,664.511872 L777.763068,664.511872 L777.763068,664.140829 C782.446085,661.543528 805.87146,647.80463 812.818792,629.582295 C814.877261,624.264012 812.314467,616.647323 807.219757,608.50499 C810.780908,599.651492 819.57057,576.780813 818.695721,567.659338 C818.695721,567.174921 818.633967,566.628663 818.633967,566.092712 C818.716905,565.16066 818.751259,564.224911 818.73689,563.289276 C819.766125,549.890501 828,525.411968 828,525.411968 C828,525.411968 827.948538,524.989392 827.845615,524.370987 Z M652.875764,464.839196 C654.748971,468.137356 656.755978,472.352817 657.548488,474.063738 L657.548488,474.063738 C657.548488,474.063738 654.810725,469.01343 652.927226,464.839196 L652.875764,464.839196 Z M654.831309,753.531276 L654.635755,753.603423 L654.635755,752.572748 C654.523965,749.884738 654.589292,747.192271 654.831309,744.512869 C654.85984,743.068579 654.557022,741.636993 653.946168,740.328329 C650.774001,732.347652 648.653101,723.987302 647.636961,715.45814 C646.607726,706.470653 645.753462,696.668934 646.288664,694.1747 C647.091467,690.350896 647.750177,661.388927 646.751819,647.114078 L662.684368,650.700827 L681.210587,688.526601 C681.210587,688.526601 693.129122,706.996298 696.824074,721.570043 L696.824074,736.164401 C695.743562,740.512242 693.854549,744.617243 691.255915,748.264526 C688.796045,751.634834 686.397929,755.046368 684.174783,758.571277 C683.495488,759.663792 682.744147,760.787228 681.992806,761.838517 C681.745789,761.838517 669.569946,762.549683 667.501185,764.837781 C666.224934,766.249806 664.001788,768.476064 663.631264,770.712629 L663.106354,770.795083 C660.71853,763.673118 654.882771,753.531276 654.882771,753.531276 L654.831309,753.531276 Z" id="Shape" fill="url(#linearGradient-1)"></path>
            <path d="M734,740.254264 L729.895964,753.557859 L712.453809,768.652322 L686.803582,776 C686.803582,776 674.747975,769.419837 678.852012,768.140645 C679.990882,767.782472 681.345214,766.482813 682.720066,764.784046 C681.283653,770.003149 692.703134,763.279717 692.703134,763.279717 C692.703134,763.279717 722.200895,742.300971 725.278923,739.998426 C727.297385,738.663172 729.513047,737.651439 731.845381,737 C733.127892,738.995539 734,740.254264 734,740.254264 Z" id="Path" fill="#000000" opacity="0.1"></path>
            <path d="M734,740.939323 L729.840979,754.360131 L712.165138,769.587585 L686.171254,777 C686.171254,777 673.954128,770.361862 678.11315,769.0714 C679.267278,768.710071 680.639755,767.398961 682.033028,765.685227 C683.287672,764.09544 684.44726,762.433909 685.50581,760.709205 C687.730887,757.157853 690.143119,753.730385 692.607339,750.385507 C696.202915,745.30368 698.458568,739.408232 699.168196,733.237845 C700.987768,719.04276 682.53211,690.394498 682.53211,690.394498 L649,622 L695.788991,627.678034 C695.788991,627.678034 721.003058,713.622819 721.003058,717.752298 C721.003058,720.849407 728.114985,732.050619 731.816514,737.697682 C733.116208,739.669508 734,740.939323 734,740.939323 Z" id="Path" fill="#FDC2CC"></path>
            <ellipse id="Oval" fill="#5F5D7E" cx="708" cy="795" rx="88" ry="25"></ellipse>
            <path d="M742,756.72809 C741.686231,757.5834 741.150645,758.336089 740.450227,758.906071 C734.065162,764.871846 710.188324,773.741595 695.434484,778.56051 C691.567293,779.935139 687.624061,781.076956 683.625212,781.980045 C680.009075,782.243086 672.518505,779.875716 667.352595,776.64557 C662.186684,773.415424 666.836004,768.827985 668.923031,766.460614 C671.010059,764.093244 683.38758,763.388293 683.38758,763.388293 C677.446784,773.45751 692.159296,764.619326 692.159296,764.619326 C692.159296,764.619326 721.863281,743.049948 724.962827,740.682577 C728.062374,738.315206 733.744875,737 733.744875,737 L742,756.72809 Z" id="Path" fill="#F5DF00"></path>
            <path d="M742,756.72809 C741.686231,757.5834 741.150645,758.336089 740.450227,758.906071 C734.065162,764.871846 710.188324,773.741595 695.434484,778.56051 C691.567293,779.935139 687.624061,781.076956 683.625212,781.980045 C680.009075,782.243086 672.518505,779.875716 667.352595,776.64557 C662.186684,773.415424 666.836004,768.827985 668.923031,766.460614 C671.010059,764.093244 683.38758,763.388293 683.38758,763.388293 C677.446784,773.45751 692.159296,764.619326 692.159296,764.619326 C692.159296,764.619326 721.863281,743.049948 724.962827,740.682577 C728.062374,738.315206 733.744875,737 733.744875,737 L742,756.72809 Z" id="Path" fill="#000000" opacity="0.3"></path>
            <path d="M740,759 C733.617168,764.463597 709.74868,772.586724 695,777 C708.3647,766.438972 730.776911,760.917559 740,759 Z" id="Path" fill="#000000" opacity="0.1"></path>
            <ellipse id="Oval" fill="#000000" opacity="0.1" cx="707" cy="786" rx="18" ry="5"></ellipse>
            <rect id="Rectangle" fill="#5F5D7E" x="699" y="654" width="18" height="133"></rect>
            <path d="M717,660.601027 L717,676 C713.4,674.891274 705.181714,670.220252 699,666.54503 L699,654 L702.754286,654 L717,660.601027 Z" id="Path" fill="#000000" opacity="0.1"></path>
            <path d="M674,595.494347 C674,595.494347 733.380895,580.106402 748.159317,568.588728 C762.93774,557.071054 820.972339,611.265178 813.305647,631.713448 C805.638955,652.161719 777.72644,666.970157 777.72644,666.970157 C777.72644,666.970157 700.535388,679.615798 687.391019,653.237943 C674.24665,626.860089 674,595.494347 674,595.494347 Z" id="Path" fill="#474157"></path>
            <path d="M674,595.494347 C674,595.494347 733.380895,580.106402 748.159317,568.588728 C762.93774,557.071054 820.972339,611.265178 813.305647,631.713448 C805.638955,652.161719 777.72644,666.970157 777.72644,666.970157 C777.72644,666.970157 700.535388,679.615798 687.391019,653.237943 C674.24665,626.860089 674,595.494347 674,595.494347 Z" id="Path" fill="#000000" opacity="0.1"></path>
            <path d="M670,589.494347 C670,589.494347 729.380895,574.106402 744.159317,562.588728 C758.93774,551.071054 816.972339,605.265178 809.305647,625.713448 C801.638955,646.161719 773.72644,660.970157 773.72644,660.970157 C773.72644,660.970157 696.535388,673.615798 683.391019,647.237943 C670.24665,620.860089 670,589.494347 670,589.494347 Z" id="Path" fill="#474157"></path>
            <path d="M613.15661,447.067912 L606.740259,444.726402 C606.740259,444.726402 612.386648,436.732262 609.953568,426.932994 C609.953568,426.932994 607.253567,415.111981 608.536837,410.325812 C609.820108,405.539643 613.15661,387.993795 613.15661,387.993795 C613.15661,387.993795 613.628853,369.42676 603.639879,360.916869 C593.650904,352.406978 586.721245,345.44434 590.571056,353.696355 C592.252276,357.492421 594.137174,361.194073 596.217444,364.785001 C596.217444,364.785001 572.34862,370.530467 580.818203,379.525164 C589.287786,388.519861 591.597672,388.509546 591.597672,388.509546 C591.597672,388.509546 588.774478,410.686838 588.26117,414.812846 C587.747861,418.938854 583.128089,450.399663 583.128089,450.399663 C583.128089,450.399663 582.871435,465.356441 585.437975,467.67732 C586.617688,473.456352 591.905457,477.441053 597.757368,476.960838 C599.584745,476.929893 621.369539,452.741172 613.15661,447.067912 Z" id="Path" fill="#FDC2CC"></path>
            <path d="M768,399.806386 L768,414.297414 L753.112299,419.193311 L727.751872,438.010946 L721.026738,443 L690.994652,430.837887 L672,410.653955 C672,410.653955 672.924064,410.146769 674.525775,409.30836 L675.552513,408.759771 C678.766203,407.134706 683.828021,404.619477 689.423743,402.373368 C695.019465,400.127259 695.676578,386.961125 695.358289,376.113555 L695.358289,375.078482 C695.101604,367.470692 694.331551,361.249901 694.331551,361.249901 C694.331551,361.249901 697.463102,360.649558 702.021818,359.96641 C714.660963,358.072225 738.245134,355.515594 736.171123,363.320048 C735.565575,365.973125 735.565575,368.730192 736.171123,371.38327 C736.232727,371.67309 736.294332,371.973261 736.366203,372.263082 C738.501818,381.671899 745.114011,391.525798 745.114011,391.525798 L765.64877,398.978327 L766.223743,399.185342 L768,399.806386 Z" id="Path" fill="#FDC2CC"></path>
            <path d="M769.497772,405.586152 L769.497772,401.208993 C771.101338,400.930336 772.740281,400.930336 774.343847,401.208993 C776.129243,401.723953 779.516394,407.131031 781.046734,407.645991 C782.577073,408.160951 791.94275,443.435702 790.922524,446.525462 C789.902298,449.615221 780.261159,519.371685 780.261159,519.371685 L760.825849,541 L757,481.522135 L769.497772,446.247383 L769.497772,405.586152 Z" id="Path" fill="#FDC2CC"></path>
            <path d="M666,567 C666,567 647.90453,571 650.201542,576.866667 C652.498555,582.733333 662.62204,583 662.62204,583 L666,567 Z" id="Path" fill="#FDC2CC"></path>
            <path d="M692,453.01288 L678.387978,482.943773 L662.20765,495 L659.382514,476.370509 C659.382514,476.370509 653.917158,464.05219 651.56459,461.965938 C651.450791,461.847974 651.314407,461.755189 651.163934,461.693363 C649.10929,460.907087 629.590164,473.487498 623.939891,475.846325 C618.289617,478.205152 598,478.729336 598,478.729336 L606.989071,445.96785 C606.989071,445.96785 624.967213,439.15346 627.278689,436.008358 C629.590164,432.863255 641.404372,420.807028 648.595628,415.041007 C655.786885,409.274985 668.905792,411.37172 668.905792,411.37172 L669.111257,411.45559 L672.480874,412.944272 L682.240437,437.318817 L692,453.01288 Z" id="Path" fill="#FDC2CC"></path>
            <path d="M655.997713,746.50487 C655.75533,749.205687 655.68994,751.919623 655.801968,754.629079 C655.874085,757.52022 655.997713,759.976135 655.997713,759.976135 L650.073857,772.411149 C650.073857,772.411149 629.7267,779.146781 633.074966,776.297091 C634.239133,775.312652 634.836669,772.753112 635.135438,769.36457 C635.640253,762.960538 634.908786,753.623915 634.40397,746.50487 C633.631293,735.624233 621.268464,708.681703 621.268464,708.681703 C621.268464,708.681703 610.966105,682.257299 604.527131,665.936343 C598.088158,649.615388 600.406188,620.08223 600.406188,620.08223 C600.406188,620.08223 601.436424,597.80283 606.072485,591.067198 C610.708546,584.331565 628.737673,582 628.737673,582 L637.195909,610.217119 C637.195909,610.217119 644.150001,636.641523 646.725591,640.527465 C649.30118,644.413407 648.528503,690.785646 647.498268,695.707839 C646.972847,698.225929 647.85885,708.142853 648.847876,717.178963 C649.857263,725.773791 651.962511,734.202156 655.11171,742.25624 C655.726535,743.585545 656.02966,745.039109 655.997713,746.50487 L655.997713,746.50487 Z" id="Path" fill="#FDC2CC"></path>
            <path d="M656,758.497417 L650.151134,771.282109 C650.151134,771.282109 630.061553,778.20715 633.367433,775.277325 C634.516862,774.265203 635.106835,771.633688 635.401821,768.149859 C636.124029,767.393432 636.897096,766.562427 637.690508,765.710114 C642.802849,760.159045 648.99513,755.824354 655.847421,753 L655.847421,753 C655.877937,755.972441 656,758.497417 656,758.497417 Z" id="Path" fill="#000000" opacity="0.1"></path>
            <path d="M664.952608,778.372658 C664.958261,778.421815 664.958261,778.471497 664.952608,778.520653 C663.935152,783.541917 647.147126,790.413119 647.147126,790.413119 C647.147126,790.413119 636.463837,792.263058 630.359101,793.84872 C629.892005,793.979576 629.406738,794.026061 628.924488,793.986144 C624.213666,793.616156 624,784.197323 624,782.749085 C624,781.300848 629.850373,774.556498 631.630921,773.49939 C633.644142,771.764555 635.534702,769.881572 637.287977,767.865005 C642.509655,762.247316 648.831507,757.860088 655.826027,755 L655.826027,755 C655.826027,755 665.766573,773.161116 664.952608,778.372658 Z" id="Path" fill="#F5DF00"></path>
            <path d="M664.952608,778.381125 C664.958261,778.430256 664.958261,778.47991 664.952608,778.52904 C663.935152,783.547583 647.147126,790.415062 647.147126,790.415062 C647.147126,790.415062 636.463837,792.263999 630.359101,793.848802 C629.892005,793.979587 629.406738,794.026047 628.924488,793.986151 C624.213666,793.616364 624,784.202635 624,782.755181 C624,781.307728 629.850373,774.567033 631.630921,773.510498 C633.676594,771.754454 635.594625,769.843977 637.369373,767.794642 C642.480637,762.263798 648.678161,757.939792 655.541139,755.116219 L655.826027,755 C655.826027,755 665.766573,773.172407 664.952608,778.381125 Z" id="Path" fill="#000000" opacity="0.3"></path>
            <path d="M666.995528,778.17892 C667.001491,778.228686 667.001491,778.278983 666.995528,778.32875 C665.922512,783.412263 648.217733,790.368651 648.217733,790.368651 C648.217733,790.368651 636.951055,792.241524 630.512954,793.846844 C630.020351,793.979323 629.508585,794.026384 629,793.985972 C634.837212,789.994076 648.990305,780.415666 650.900275,780.201623 C652.810245,779.98758 662.220603,777.290643 666.995528,778.17892 Z" id="Path" fill="#000000" opacity="0.1"></path>
            <path d="M737,373.268191 C730.661538,378.908352 724.835897,378.099449 715.984615,378.099449 C709.584615,378.099449 701.266667,380.526159 696.025641,377.412435 C695.810256,368.758278 695,361.478148 695,361.478148 C695,361.478148 739.615385,352.336432 736.794872,363.694321 C736.149955,366.857032 736.220319,370.141108 737,373.268191 Z" id="Path" fill="#000000" opacity="0.1"></path>
            <path d="M750.98965,342.997046 C750.98965,363.433213 734.424371,380 713.990063,380 C713.037906,380 712.085749,380 711.154291,379.896495 L711.154291,379.896495 C691.150107,378.352998 676.021096,361.145675 677.049459,341.106592 C678.077821,321.067509 694.888787,305.499574 714.945867,306.012309 C735.002948,306.525043 750.996674,322.931589 751,342.997046 L750.98965,342.997046 Z" id="Path" fill="#FDC2CC"></path>
            <path d="M683.345528,437.080135 L693,452.317156 L679.534553,481.318284 L663.528455,493 L660.73374,474.89842 C660.73374,474.89842 655.327236,462.962754 653,460.941309 C653.670732,459.305869 654.128049,458.554176 654.128049,459.153499 C654.128049,461.693002 660.378049,473.120767 660.378049,473.120767 C679.686992,466.518059 673.691057,440.869074 673.691057,440.869074 C673.691057,440.869074 671.292683,418.013544 670.357724,412 L673.691057,413.442438 L683.345528,437.080135 Z" id="Path" fill="#000000" opacity="0.1"></path>
            <path d="M768,401.637845 L768,416.520907 L753.112299,421.549256 L727.751872,440.875974 L721.026738,446 L690.994652,433.508859 L672,412.77888 C672,412.77888 672.924064,412.257973 674.525775,411.396882 L675.552513,410.833451 C688.766631,417.052445 703.069091,419.338058 713.285134,420.156627 C717.98332,420.568962 722.701693,420.679025 727.413048,420.48618 C766.090267,414.107725 767.240214,404.433735 766.27508,401 L768,401.637845 Z" id="Path" fill="#000000" opacity="0.1"></path>
            <path d="M779.880712,634.020634 C770.18311,638.775715 760.225937,642.981979 750.056299,646.61953 C732.315916,653.047538 693.23565,644.562568 688.350617,643.276966 C683.465584,641.991365 645.927961,627.078386 631.529968,621.421739 C617.131976,615.765091 613.532478,620.393257 610.190087,619.879017 C606.847695,619.364776 604.533732,612.936768 604.019518,611.136926 C603.505304,609.337083 613.275371,593.652744 618.674618,585.682013 C624.073865,577.711283 640.271607,579.254005 642.58557,578.739765 C644.899533,578.225524 661.097274,578.739765 661.097274,578.739765 C661.097274,578.739765 660.068846,573.597358 665.982307,559.19862 C671.895769,544.799882 656.212241,518.059368 656.212241,518.059368 C645.413747,511.117119 647.213496,489.519012 647.213496,489.519012 C644.642426,480.00556 652.86985,458.150333 652.86985,460.721536 C652.86985,463.292739 659.194682,474.863154 659.194682,474.863154 C678.734815,468.178025 672.66709,442.208872 672.66709,442.208872 C672.66709,442.208872 669.838913,415.211238 669.08816,411.868674 C668.337408,408.52611 672.66709,409.040351 672.66709,409.040351 C673.503545,409.472313 674.346855,409.883705 675.197023,410.274528 C688.731136,416.651112 703.540499,418.97548 714.051034,419.777695 C718.756954,420.176613 723.483094,420.283094 728.202204,420.096525 C775.170512,412.516617 766.850529,400.431962 766.542001,400 L768.825111,400.8125 C785.794174,413.154276 780.652033,454.036407 780.652033,454.036407 L774.296348,484.551447 L769.575863,507.280884 C769.575863,507.280884 786.287819,608.586292 787.830461,613.728698 C789.373103,618.871105 779.880712,634.020634 779.880712,634.020634 Z" id="Path" fill="#F5DF00"></path>
            <path d="M654.918882,588 C653.931067,588.791593 642.818142,613.330968 650.96762,620.191438 C659.117098,627.051908 654.918882,588 654.918882,588 Z" id="Path" fill="#000000" opacity="0.1"></path>
            <path d="M663,592 C663.262069,592.754601 687.634483,629.981595 701,633 L663,592 Z" id="Path" fill="#000000" opacity="0.1"></path>
            <path d="M722,290.175 L717,290.965 C718.378063,290.586897 719.78788,290.276234 721.22043,290.035 L722,290.175 Z" id="Path" fill="#000000" opacity="0.1"></path>
            <path d="M779.17357,453.54651 L771.985435,484 C768.318097,482.326891 764.947057,480.068637 762.004196,477.313584 C759.714262,475.136134 757.660509,472.640283 754.713374,471.212615 C750.9242,469.374108 746.3546,469.620612 742.051988,469.466547 C736.677307,469.265865 731.352871,468.35409 726.217554,466.755005 C724.725866,466.380661 723.327511,465.702312 722.110048,464.762433 C719.666082,462.605524 719.830382,459.123658 720.056295,456.083445 C720.502905,450.173963 720.554364,444.241242 720.210327,438.3249 C720.148714,437.215633 720.066564,436.106366 719.974145,434.997099 C719.563394,430.03621 718.228455,424.284454 713.155686,422.158359 C710.54742,421.13126 707.435984,421.213428 704.940674,419.970638 C704.580137,419.789324 704.236484,419.576213 703.913798,419.333836 C700.217043,416.745546 699.878174,411.558696 700.021936,407.193524 C700.241003,401.195265 700.449802,395.193582 700.648331,389.188476 C700.835314,386.226831 700.770043,383.254644 700.453224,380.304068 L700.453224,380.304068 C700.205948,378.344666 699.665953,376.433501 698.851297,374.63448 C696.622975,369.86874 691.981494,365.893866 691.149724,360.86108 C691.103801,360.627067 691.072931,360.390348 691.057305,360.152382 C690.626017,355.653688 693.460196,351.463123 694.456266,347.036326 C696.448406,338.131376 689.753172,328.373934 679.905427,325.816457 C676.824798,325.015319 673.518256,324.861255 670.447896,323.947136 C669.956911,323.800493 669.473662,323.629091 669,323.433587 C676.434585,313.511809 689.178121,307 703.64681,307 C726.57696,307 745.173692,323.433587 745.173692,343.718795 C745.173692,355.222306 739.187003,365.483027 729.832158,372.220797 C729.893771,372.508385 729.965652,372.806244 730.047803,373.093832 C732.460962,382.430163 739.946891,392.208147 739.946891,392.208147 L763.195373,399.603261 L765.783102,400.424941 C784.98569,412.73986 779.17357,453.54651 779.17357,453.54651 Z" id="Path" fill="#000000" opacity="0.1"></path>
            <path d="M790.82,483.548713 C790.6,483.548713 790.39,483.498713 790.18,483.458713 C790.397488,483.435635 790.617312,483.466547 790.82,483.548713 L790.82,483.548713 Z" id="Path" fill="#000000" opacity="0.1"></path>
            <path d="M710.86141,288.308658 C704.400562,286.803839 697.791891,286.029457 691.159049,286 C689.000877,286 686.687811,286.11388 684.963339,287.304444 C682.681252,288.909117 682.392119,291.80788 681.71059,294.31324 C680.477682,298.496861 677.877219,302.143221 674.327368,304.665968 C671.880062,306.45699 668.999057,307.771787 666.655013,309.655983 C664.310969,311.54018 662.524539,314.335416 663.113131,317.089242 C663.701724,319.843067 666.789253,321.965377 669.887109,322.845358 C672.984964,323.72534 676.279017,323.880631 679.397525,324.729555 C689.300336,327.307384 696.022683,337.152828 694.019403,346.107938 C692.986784,350.569964 690.167736,354.793877 690.601436,359.328371 C691.107419,364.742848 696.094966,368.914997 698.43901,373.93607 C700.57653,378.511976 700.431963,383.646929 700.266745,388.595533 L699.636847,406.754218 C699.471628,411.537178 699.884676,417.293295 704.593416,419.633011 C707.113005,420.875338 710.252165,420.740753 712.854364,421.838142 C717.955499,423.970804 719.297903,429.778684 719.710951,434.768699 C720.301214,441.839984 720.328838,448.947167 719.79356,456.022849 C719.556058,459.128668 719.390839,462.596832 721.858797,464.770904 C723.080513,465.722392 724.48759,466.406578 725.989271,466.779334 C731.153304,468.391144 736.507513,469.310175 741.912248,469.512454 C746.249246,469.678097 750.834072,469.429632 754.644434,471.272418 C757.608049,472.711447 759.673286,475.237512 761.976025,477.421938 C768.578408,483.478513 776.994933,487.173393 785.912122,487.929957 C787.822466,488.0956 789.990965,488.054189 791.323043,486.822215 C792.65512,485.59024 791.87033,482.929589 789.970312,483.08488 C793.25724,483.638531 796.585259,482.362549 798.66496,479.751302 C800.445013,477.214319 800.445013,473.830106 798.66496,471.293123 C796.506787,468.187305 791.921961,466.116759 791.674133,462.431188 C791.539892,460.360642 792.913275,458.486799 793.987198,456.644013 C799.305697,447.219034 797.773779,435.40476 790.228467,427.656375 C785.385486,422.635302 778.126178,418.825498 776.432684,412.386102 C775.30713,408.079367 777.01095,403.555225 776.360401,399.176021 C775.327782,391.929111 768.171736,386.752747 764.23746,380.292645 C760.303183,373.832543 759.611329,366.016234 760.612969,358.665797 C761.614609,351.31536 764.15485,344.171978 766.220087,337.028596 C767.758689,331.696941 769.028809,326.033999 767.314663,320.743755 C766.085847,316.985714 763.442343,313.724605 760.695578,310.649845 C754.117799,303.289056 746.548705,296.394139 737.193182,292.014935 C727.837658,287.635731 716.43755,285.937884 706.50376,289.178287" id="Path" fill="#474157"></path>
            <path d="M710.86141,288.308658 C704.400562,286.803839 697.791891,286.029457 691.159049,286 C689.000877,286 686.687811,286.11388 684.963339,287.304444 C682.681252,288.909117 682.392119,291.80788 681.71059,294.31324 C680.477682,298.496861 677.877219,302.143221 674.327368,304.665968 C671.880062,306.45699 668.999057,307.771787 666.655013,309.655983 C664.310969,311.54018 662.524539,314.335416 663.113131,317.089242 C663.701724,319.843067 666.789253,321.965377 669.887109,322.845358 C672.984964,323.72534 676.279017,323.880631 679.397525,324.729555 C689.300336,327.307384 696.022683,337.152828 694.019403,346.107938 C692.986784,350.569964 690.167736,354.793877 690.601436,359.328371 C691.107419,364.742848 696.094966,368.914997 698.43901,373.93607 C700.57653,378.511976 700.431963,383.646929 700.266745,388.595533 L699.636847,406.754218 C699.471628,411.537178 699.884676,417.293295 704.593416,419.633011 C707.113005,420.875338 710.252165,420.740753 712.854364,421.838142 C717.955499,423.970804 719.297903,429.778684 719.710951,434.768699 C720.301214,441.839984 720.328838,448.947167 719.79356,456.022849 C719.556058,459.128668 719.390839,462.596832 721.858797,464.770904 C723.080513,465.722392 724.48759,466.406578 725.989271,466.779334 C731.153304,468.391144 736.507513,469.310175 741.912248,469.512454 C746.249246,469.678097 750.834072,469.429632 754.644434,471.272418 C757.608049,472.711447 759.673286,475.237512 761.976025,477.421938 C768.578408,483.478513 776.994933,487.173393 785.912122,487.929957 C787.822466,488.0956 789.990965,488.054189 791.323043,486.822215 C792.65512,485.59024 791.87033,482.929589 789.970312,483.08488 C793.25724,483.638531 796.585259,482.362549 798.66496,479.751302 C800.445013,477.214319 800.445013,473.830106 798.66496,471.293123 C796.506787,468.187305 791.921961,466.116759 791.674133,462.431188 C791.539892,460.360642 792.913275,458.486799 793.987198,456.644013 C799.305697,447.219034 797.773779,435.40476 790.228467,427.656375 C785.385486,422.635302 778.126178,418.825498 776.432684,412.386102 C775.30713,408.079367 777.01095,403.555225 776.360401,399.176021 C775.327782,391.929111 768.171736,386.752747 764.23746,380.292645 C760.303183,373.832543 759.611329,366.016234 760.612969,358.665797 C761.614609,351.31536 764.15485,344.171978 766.220087,337.028596 C767.758689,331.696941 769.028809,326.033999 767.314663,320.743755 C766.085847,316.985714 763.442343,313.724605 760.695578,310.649845 C754.117799,303.289056 746.548705,296.394139 737.193182,292.014935 C727.837658,287.635731 716.43755,285.937884 706.50376,289.178287" id="Path" fill="#000000" opacity="0.1"></path>
            <path d="M656,519.380879 C656,519.380879 665.21773,522.901443 674.97768,513.152188 C684.737629,503.402933 656,519.380879 656,519.380879 Z" id="Path" fill="#000000" opacity="0.1"></path>
            <g id="Group" opacity="0.1" transform="translate(662.000000, 287.000000)" fill="#000000">
                <path d="M51.7633413,2.08146058 C53.46237,1.74349768 55.1832242,1.52656359 56.912943,1.43229218 C54.5079504,1.28525062 52.0945179,1.3611386 49.7035006,1.65898591 L51.7633413,2.08146058 Z" id="Path"></path>
                <path d="M103.403548,190.463947 C101.096526,188.289749 99.0469845,185.775509 96.0808139,184.343217 C92.290707,182.509059 87.7075615,182.756361 83.381896,182.591493 C77.9908814,182.394043 72.6501522,181.479228 67.5005242,179.871168 C66.0027668,179.500157 64.5993667,178.819174 63.3808428,177.872141 C60.9296324,175.708247 61.1047189,172.225407 61.3210021,169.165041 C61.8548816,162.122485 61.82733,155.048575 61.2386085,148.010395 C60.8163412,143.043742 59.4877439,137.263052 54.3896382,135.140374 C51.7839397,134.048122 48.663281,134.182078 46.1502754,132.945566 C41.4538386,130.616804 41.0006737,124.887635 41.1963585,120.127067 C41.4092087,114.102509 41.6186259,108.081386 41.8246099,102.063698 C41.9996964,97.1279576 42.133586,92.0170445 40.0016509,87.4625615 C37.6637317,82.4649952 32.6892164,78.3226826 32.1845555,72.9232502 C31.7622881,68.4202884 34.6048683,64.205846 35.603891,59.7647098 C37.6019365,50.8309161 30.8868558,41.0521731 21.0099197,38.4864122 C17.9201587,37.6826799 14.6038151,37.5178118 11.5243533,36.6110369 C8.44489145,35.704262 5.45812244,33.7464525 4.81957182,30.9436937 C4.18102121,28.1409349 6.00398022,25.4206102 8.34189941,23.5349305 C10.6798186,21.6492509 13.5532964,20.3509141 16.0045068,18.5682771 C19.5452613,16.059712 22.1362638,12.4290752 23.3581381,8.26401676 C24.0481847,5.77038577 24.3880584,2.89549715 26.6023872,1.28803254 C27.8718939,0.500528148 29.3314957,0.0731178761 30.8250606,0.0515213015 C29.9084315,0.0515213015 28.9918024,0 28.0854725,0 C25.932939,0 23.6259174,0.113346863 21.9059504,1.28803254 C19.6298264,2.89549715 19.3414487,5.77038577 18.6617013,8.26401676 C17.4320147,12.4280509 14.8383465,16.0573399 11.2977708,18.5682771 C8.85685959,20.3509141 5.98338181,21.6595552 3.64546262,23.5349305 C1.30754343,25.4103059 -0.474218769,28.1924562 0.11283583,30.9436937 C0.699890428,33.6949312 3.74845466,35.6939577 6.8279165,36.6110369 C9.90737834,37.528116 13.2031235,37.6414629 16.3134829,38.4864122 C26.190419,41.0521731 32.8952005,50.8515246 30.897155,59.7647098 C29.8672347,64.205846 27.0555521,68.4202884 27.4881187,72.9232502 C27.9927797,78.3226826 32.9672949,82.4649952 35.3052141,87.4625615 C37.4371493,92.0170445 37.3032596,97.1279576 37.1281731,102.063698 C36.9153229,108.081386 36.7059058,114.102509 36.4999217,120.127067 C36.3351345,124.887635 36.7471026,130.616804 41.4435394,132.945566 C43.9565451,134.182078 47.0875029,134.048122 49.6829022,135.140374 C54.7707087,137.263052 56.1096052,143.043742 56.5215733,148.010395 C57.1102948,155.048575 57.1378464,162.122485 56.6039669,169.165041 C56.3670853,172.256319 56.202298,175.708247 58.6638076,177.872141 C59.8823315,178.819174 61.2857317,179.500157 62.783489,179.871168 C67.9328585,181.480302 73.2737326,182.395142 78.6648608,182.591493 C82.9905263,182.756361 87.5633726,182.509059 91.3637787,184.343217 C94.3196501,185.775509 96.3794908,188.289749 98.6865124,190.463947 C105.26634,196.49405 113.658331,200.172105 122.549767,200.922772 C123.699742,201.059605 124.864082,201.014399 126,200.788816 C117.56873,199.814915 109.660373,196.201395 103.403548,190.463947 L103.403548,190.463947 Z" id="Path"></path>
            </g>
            <path d="M607,447 C607,447 598.938819,454.490125 600.117767,457.551484 C601.296715,460.612843 607,447 607,447 Z" id="Path" fill="#000000" opacity="0.1"></path>
            <path d="M613.776043,541.654068 C607.808086,540.195545 591.352246,538.850806 583.522535,565.114579 C581.699646,571.215059 579.378428,577.155357 576.582328,582.875468 C569.073252,598.298582 559.371443,630.013717 602.036647,636.996011 L704.433137,660.270327 C704.433137,660.270327 759.25146,666.994019 762.871538,664.407984 C766.491616,661.821949 765.974462,656.132671 765.974462,656.132671 C765.974462,656.132671 705.467445,656.132671 693.572903,637.513218 C681.678361,618.893765 681.161207,593.550621 681.161207,593.550621 C681.161207,593.550621 682.650611,554.418738 620.137037,543.050527 C618.068421,542.65745 615.896374,542.171275 613.776043,541.654068 Z" id="Path" fill="#474157"></path>
            <path d="M613.776043,543.653949 C607.808086,542.195424 591.352246,540.850685 583.522535,567.124827 C581.699646,573.225312 579.378428,579.165616 576.582328,584.885733 C569.073252,600.298517 559.371443,632.013683 602.036647,638.995984 L704.433137,662.270323 C704.433137,662.270323 759.25146,668.994021 762.871538,666.407983 C766.491616,663.821945 765.974462,658.132663 765.974462,658.132663 C765.974462,658.132663 705.467445,658.132663 693.572903,639.513192 C681.678361,620.893721 681.161207,595.550552 681.161207,595.550552 C681.161207,595.550552 682.650611,556.418631 620.137037,545.05041 C618.068421,544.657332 615.896374,544.150469 613.776043,543.653949 Z" id="Path" fill="#000000" opacity="0.1"></path>
            <path d="M829.875892,517.241313 C828.649674,509.486138 821.818838,503.827323 813.896974,504.004026 C799.169479,504.270411 753.838996,506.217071 732.781988,519.843689 C732.781988,519.843689 716.751359,530.089267 712.097305,530.089267 C707.443251,530.089267 644.354967,583.366272 737.953159,631.008209 C737.953159,631.008209 788.113516,645.147107 807.763965,611.951434 C807.763965,611.951434 821.726127,576.296823 820.691892,563.950902 C819.657658,551.604981 830,518.306853 830,518.306853 C830,518.306853 829.979315,517.907275 829.875892,517.241313 Z" id="Path" fill="#474157"></path>
            <path d="M829.875892,525.224997 C828.696865,518.053378 821.808865,512.869321 813.896974,513.002509 C799.169479,513.248393 753.838996,515.051543 732.781988,527.622367 C732.781988,527.622367 716.751359,537.078659 712.097305,537.078659 C707.443251,537.078659 644.354967,586.255477 737.953159,630.237993 C737.953159,630.237993 788.113516,643.29034 807.763965,612.647036 C807.763965,612.647036 821.726127,579.729303 820.691892,568.336674 C819.657658,556.944044 830,526.208533 830,526.208533 C830,526.208533 829.979315,525.839707 829.875892,525.224997 Z" id="Path" fill="#000000" opacity="0.1"></path>
            <rect id="Rectangle" fill="#5F5D7E" x="763" y="631" width="17" height="36"></rect>
            <ellipse id="Oval" fill="#000000" opacity="0.1" cx="174.5" cy="485" rx="46.5" ry="3"></ellipse>
            <path d="M213.422223,369.779721 C212.447107,371.152123 211.666837,372.659867 211.104813,374.257737 C210.962516,374.654391 210.820219,375.092798 210.677922,375.520767 C210.421512,375.39593 210.152134,375.30138 209.87496,375.238934 C208.689779,374.934253 207.464965,374.825028 206.246385,374.915347 C206.246385,374.435187 206.307369,373.871521 206.317533,373.391361 C206.469995,367.890395 205.839822,360.218271 200.727291,363.464571 C195.828207,366.596051 199.324649,371.815183 202.485677,375.165866 L203.298803,375.98005 C200.412205,378.067703 199.863345,383.005002 199.385633,388.13019 C198.907922,393.255378 194.669502,398.871165 191.854053,402.054835 C191.569458,402.378421 191.315357,402.670693 191.061255,402.942088 C188.761639,401.050523 185.782039,400.263672 182.879173,400.781367 C182.767368,400.332522 182.635235,399.8628 182.503102,399.361763 C180.226349,390.927645 175.500054,376.303637 169.472756,373.099089 L170.265554,372.055263 C172.826901,368.610636 175.713499,363.506324 171.454751,362.191103 C167.196003,360.875882 166.809768,366.627365 167.043542,370.92793 C167.043542,371.47072 167.124855,371.971757 167.165511,372.451917 C165.445901,372.537385 163.836128,373.345112 162.713645,374.685706 L162.05298,373.892398 C158.597194,369.717092 152.264975,363.067917 150.343964,368.088723 C148.555087,372.765065 154.135165,378.829697 158.058498,382.347392 L158.302436,382.566595 C155.66994,393.558088 167.135019,402.534995 173.355433,406.41803 L174.158395,406.919066 C165.620571,417.252948 160.345416,436.615929 160.345416,436.615929 L184.251323,441 C184.251323,441 200.107283,426.960534 198.074467,413.766568 L198.237093,413.766568 C214.082888,410.509829 217.680971,393.161434 215.2111,382.858867 L215.495694,382.744046 C218.380591,381.527957 220.90906,379.564264 222.834158,377.044753 C227.265695,370.708727 217.955401,363.568954 213.422223,369.779721 Z" id="Path" fill="#F5DF00"></path>
            <path d="M213.422223,369.779721 C212.447107,371.152123 211.666837,372.659867 211.104813,374.257737 C210.962516,374.654391 210.820219,375.092798 210.677922,375.520767 C210.421512,375.39593 210.152134,375.30138 209.87496,375.238934 C208.689779,374.934253 207.464965,374.825028 206.246385,374.915347 C206.246385,374.435187 206.307369,373.871521 206.317533,373.391361 C206.469995,367.890395 205.839822,360.218271 200.727291,363.464571 C195.828207,366.596051 199.324649,371.815183 202.485677,375.165866 L203.298803,375.98005 C200.412205,378.067703 199.863345,383.005002 199.385633,388.13019 C198.907922,393.255378 194.669502,398.871165 191.854053,402.054835 C191.569458,402.378421 191.315357,402.670693 191.061255,402.942088 C188.761639,401.050523 185.782039,400.263672 182.879173,400.781367 C182.767368,400.332522 182.635235,399.8628 182.503102,399.361763 C180.226349,390.927645 175.500054,376.303637 169.472756,373.099089 L170.265554,372.055263 C172.826901,368.610636 175.713499,363.506324 171.454751,362.191103 C167.196003,360.875882 166.809768,366.627365 167.043542,370.92793 C167.043542,371.47072 167.124855,371.971757 167.165511,372.451917 C165.445901,372.537385 163.836128,373.345112 162.713645,374.685706 L162.05298,373.892398 C158.597194,369.717092 152.264975,363.067917 150.343964,368.088723 C148.555087,372.765065 154.135165,378.829697 158.058498,382.347392 L158.302436,382.566595 C155.66994,393.558088 167.135019,402.534995 173.355433,406.41803 L174.158395,406.919066 C165.620571,417.252948 160.345416,436.615929 160.345416,436.615929 L184.251323,441 C184.251323,441 200.107283,426.960534 198.074467,413.766568 L198.237093,413.766568 C214.082888,410.509829 217.680971,393.161434 215.2111,382.858867 L215.495694,382.744046 C218.380591,381.527957 220.90906,379.564264 222.834158,377.044753 C227.265695,370.708727 217.955401,363.568954 213.422223,369.779721 Z" id="Path" fill="#000000" opacity="0.1"></path>
            <path d="M166,377.023691 L163.108108,385 C163.108108,385 161.481419,383.929887 159.429452,382.245449 C155.325517,378.906298 149.488574,373.149484 151.359798,368.710495 C153.369237,363.944526 159.992945,370.236397 163.60781,374.219598 C165.032492,375.795042 166,377.023691 166,377.023691 Z" id="Path" fill="#F5DF00"></path>
            <path d="M171.472962,372.794149 C170.570143,373.910387 169.604999,374.980517 168.581625,376 C168.328762,374.574302 168.152324,373.137475 168.052985,371.695 C167.804848,367.501951 168.279545,361.934965 172.735225,363.176596 C177.190905,364.418228 174.148528,369.435639 171.472962,372.794149 Z" id="Path" fill="#F5DF00"></path>
            <path d="M207.982648,373.926543 C207.901759,376.751052 207.63887,379 207.63887,379 C206.41436,377.996545 205.255674,376.906886 204.170754,375.738492 C201.026193,372.295789 197.547966,366.987845 202.421529,363.790288 C207.497314,360.475487 208.124204,368.309501 207.982648,373.926543 Z" id="Path" fill="#F5DF00"></path>
            <path d="M225.773656,377.494503 C223.744109,379.978141 221.080426,381.911197 218.043325,383.104465 C217.202652,383.455634 216.339602,383.754753 215.45943,384 L212,379.316454 C212.36628,377.769567 212.844364,376.249279 213.430752,374.766723 C214.021152,373.191012 214.840817,371.704178 215.865165,370.350808 C220.669929,364.236464 230.428938,371.277224 225.773656,377.494503 Z" id="Path" fill="#F5DF00"></path>
            <path d="M163.786408,375 C165.116505,376.607537 166,377.861213 166,377.861213 L163.359223,386 C163.359223,386 161.873786,384.908088 160,383.189338 C160.418289,380.583573 161.452593,378.127129 163.009709,376.04136 C163.242718,375.667279 163.524272,375.313419 163.786408,375 Z" id="Path" fill="#000000" opacity="0.1"></path>
            <path d="M172,373.276596 C171.472032,374.57304 170.907617,375.815932 170.309148,377 C170.161274,375.344137 170.058093,373.675348 170,372 C170.721583,372.022524 171.421167,372.469067 172,373.276596 L172,373.276596 Z" id="Path" fill="#000000" opacity="0.1"></path>
            <path d="M185,405.879241 L178.338485,409 C178.338485,409 176.887365,408.251018 174.793468,406.857079 C167.791086,402.248758 153.718148,390.670743 163.155294,377.022625 C172.592441,363.374506 180.461599,387.86206 183.558619,399.824969 C184.542264,403.413842 185,405.879241 185,405.879241 Z" id="Path" fill="#F5DF00"></path>
            <path d="M205,375.785714 C206.315569,374.704333 208.105752,374.064982 210,374 C209.893899,376.783613 209.549072,379 209.549072,379 C207.942902,378.011073 206.423073,376.937191 205,375.785714 Z" id="Path" fill="#000000" opacity="0.1"></path>
            <path d="M218,383.22408 C217.165354,383.528344 216.308491,383.78751 215.434629,384 L212,379.942029 C212.363654,378.601758 212.838311,377.284533 213.420495,376 C215.657244,377.105909 217.289753,379.80825 218,383.22408 Z" id="Path" fill="#000000" opacity="0.1"></path>
            <path d="M200.67167,414.159297 L199.528402,414.364216 C176.732644,417.940069 192.012662,405.265773 192.012662,405.265773 C192.012662,405.265773 193.006807,404.292403 194.428435,402.694028 C197.182219,399.569 201.317864,394.087393 201.795054,389.025871 C202.510839,381.413097 203.33598,374.271638 212.054637,376.372067 C220.653996,378.431512 222.294336,409.702289 200.67167,414.159297 Z" id="Path" fill="#F5DF00"></path>
            <rect id="Rectangle" fill="#474157" x="154" y="472" width="46" height="11"></rect>
            <rect id="Rectangle" fill="#474157" x="148" y="434" width="58" height="41"></rect>
            <rect id="Rectangle" fill="#000000" opacity="0.1" x="154" y="472" width="46" height="11"></rect>
            <rect id="Rectangle" fill="#000000" opacity="0.1" x="148" y="434" width="58" height="41"></rect>
            <rect id="Rectangle" fill="#474157" x="157" y="472" width="46" height="11"></rect>
            <path d="M183.446565,400 C184.496183,403.123723 185,405.275823 185,405.275823 L177.820611,408 C177.820611,408 176.256679,407.346198 174,406.129398 C176.812977,403.014756 179.982824,400.681044 183.446565,400 Z" id="Path" fill="#000000" opacity="0.1"></path>
            <path d="M200,414.111883 L198.745653,414.32836 C173.735075,418.105882 190.499689,404.716785 190.499689,404.716785 C190.499689,404.716785 191.590425,403.68852 193.150177,402 C197.818528,405.74505 199.79276,409.890583 200,414.111883 Z" id="Path" fill="#000000" opacity="0.1"></path>
            <path d="M161,436.661279 C161,436.661279 174.420135,389.141951 193.243859,403.810961 C212.067584,418.479971 185.582677,441 185.582677,441 L161,436.661279 Z" id="Path" fill="#F5DF00"></path>
            <circle id="Oval" fill="#000000" opacity="0.1" cx="168" cy="385" r="1"></circle>
            <circle id="Oval" fill="#000000" opacity="0.1" cx="168" cy="392" r="1"></circle>
            <circle id="Oval" fill="#000000" opacity="0.1" cx="212" cy="386" r="1"></circle>
            <circle id="Oval" fill="#000000" opacity="0.1" cx="177" cy="420" r="1"></circle>
            <circle id="Oval" fill="#000000" opacity="0.1" cx="208" cy="397" r="1"></circle>
            <circle id="Oval" fill="#000000" opacity="0.1" cx="193" cy="412" r="1"></circle>
            <circle id="Oval" fill="#000000" opacity="0.1" cx="174" cy="387" r="1"></circle>
            <circle id="Oval" fill="#000000" opacity="0.1" cx="207" cy="390" r="1"></circle>
            <circle id="Oval" fill="#000000" opacity="0.1" cx="203" cy="402" r="1"></circle>
            <circle id="Oval" fill="#000000" opacity="0.1" cx="188" cy="420" r="1"></circle>
            <circle id="Oval" fill="#000000" opacity="0.1" cx="183" cy="413" r="1"></circle>
            <circle id="Oval" fill="#000000" opacity="0.1" cx="176" cy="396" r="1"></circle>
            <rect id="Rectangle" fill="#000000" opacity="0.1" x="157" y="472" width="46" height="5"></rect>
            <rect id="Rectangle" fill="#474157" x="150" y="434" width="58" height="41"></rect>
            <circle id="Oval" fill="#000000" opacity="0.1" cx="189" cy="426" r="1"></circle>
            <circle id="Oval" fill="#000000" opacity="0.1" cx="180" cy="429" r="1"></circle>
            <path d="M320.921803,592 C320.921803,592 328.524384,601.783909 317.41374,616.548908 C306.303096,631.313908 297.154408,643.813822 300.822414,653 C300.822414,653 317.605671,625.567303 331.264725,625.189789 C344.92378,624.812274 335.945697,608.505759 320.921803,592 Z" id="Path" fill="#F5DF00"></path>
            <path d="M321.64104,592 C322.277528,592.942936 322.779664,593.974383 323.132247,595.063113 C335.88922,610.462597 342.691577,624.83405 330.424864,625.201204 C318.995679,625.568358 305.288827,646.548581 302,651.793637 C302.112351,652.202752 302.24513,652.611866 302.388122,653 C302.388122,653 318.464564,625.557868 331.548377,625.180224 C344.63219,624.80258 336.032213,608.511436 321.64104,592 Z" id="Path" fill="#000000" opacity="0.1"></path>
            <path d="M334,604.093078 C334,607.354813 333.77439,610 333.5,610 C333.22561,610 333,607.354813 333,604.093078 C333,600.831343 333.280488,602.362767 333.554878,602.362767 C333.829268,602.362767 334,600.821399 334,604.093078 Z" id="Path" fill="#FFD037"></path>
            <path d="M339.308626,609.523563 C336.590812,611.281714 334.222162,612.345563 334.014551,611.897627 C333.80694,611.44969 335.845301,609.657944 338.572552,607.899792 C341.299803,606.141641 340.214565,607.418261 340.459923,607.899792 C340.705281,608.381324 342.035878,607.765411 339.308626,609.523563 Z" id="Path" fill="#FFD037"></path>
            <path d="M283.081107,592 C283.081107,592 275.477231,601.783909 286.589768,616.548908 C297.702306,631.313908 306.852553,643.813822 303.173258,653 C303.173258,653 286.397805,625.567303 272.736423,625.189789 C259.07504,624.812274 268.054653,608.505759 283.081107,592 Z" id="Path" fill="#F5DF00"></path>
            <path d="M281.35896,592 C280.722472,592.942936 280.220336,593.974383 279.867753,595.063113 C267.11078,610.462597 260.308423,624.83405 272.575136,625.201204 C284.004321,625.568358 297.711173,646.548581 301,651.793637 C300.888753,652.202922 300.755775,652.605645 300.601664,653 C300.601664,653 284.535436,625.568358 271.451623,625.211694 C258.36781,624.85503 266.967787,608.511436 281.35896,592 Z" id="Path" fill="#000000" opacity="0.1"></path>
            <path d="M269,604.093078 C269,607.354813 269.22561,610 269.5,610 C269.77439,610 270,607.354813 270,604.093078 C270,600.831343 269.719512,602.362767 269.445122,602.362767 C269.170732,602.362767 269,600.821399 269,604.093078 Z" id="Path" fill="#FFD037"></path>
            <path d="M264.691374,609.523563 C267.409188,611.281714 269.777838,612.345563 269.985449,611.897627 C270.19306,611.44969 268.154699,609.657944 265.427448,607.899792 C262.700197,606.141641 263.785435,607.418261 263.540077,607.899792 C263.294719,608.381324 261.964122,607.765411 264.691374,609.523563 Z" id="Path" fill="#FFD037"></path>
            <ellipse id="Oval" fill="#F5DF00" opacity="0.1" cx="301.5" cy="714" rx="77.5" ry="12"></ellipse>
            <path d="M341.98359,640.513458 L341.613384,643.52588 L341.099208,647.79089 L340.893537,649.561077 L340.369078,653.826087 L340.153124,655.606625 L339.638948,659.861284 L333.818476,708.308489 C333.294017,712.635611 326.270374,716 317.807038,716 L287.24442,716 C278.7708,716 271.819142,712.635611 271.243265,708.308489 L265.361092,659.861284 L264.846916,655.606625 L264.630962,653.826087 L264.106503,649.561077 L263.900832,647.79089 L263.386656,643.52588 L263.01645,640.513458 C262.718228,638.070393 266.512846,636 271.315249,636 L333.695074,636 C338.47691,636 342.281812,638.070393 341.98359,640.513458 Z" id="Path" fill="#65617D"></path>
            <polygon id="Path" fill="#9D9CB5" points="342 642 341.480741 647 263.519259 647 263 642"></polygon>
            <polygon id="Path" fill="#9D9CB5" points="340 648 339.484398 653 263.525914 653 263 648"></polygon>
            <polygon id="Path" fill="#9D9CB5" points="340 654 339.481087 659 264.518913 659 264 654"></polygon>
        </g>
    </g>
</svg>